{
.appVersion = "3086";
.formatVersion = 3;
axes = (
{
default = 400;
name = Weight;
tag = wght;
},
{
default = 100;
name = Width;
tag = wdth;
}
);
classes = (
{
automatic = 1;

glyphs = (
{
color = 5;
glyphname = A;
kernLeft = A;
kernRight = A;
layers = (
{
anchors = (
{
name = bottom;
pos = (278,0);
},
{
name = ogonek;
pos = (590,0);
},
{
name = top;
pos = (415,690);
}
);
guides = (
{
angle = 78;
pos = (271,0);
}
);
layerId = master01;
shapes = (
{
closed = 1;
nodes = (
(112,0,l),
(402,533,l),
(425,690,l),
(351,690,l),
(-60,0,l)
);
},
{
closed = 1;
nodes = (
(467,136,l),
(494,263,l),
(168,263,l),
(141,136,l)
);
},
{
closed = 1;
nodes = (
(430,0,l),
(590,0,l),
(475,690,l),
(403,690,l),
(366,533,l)
);
}
);
userData = {
com.schriftgestaltung.Glyphs.lastChange = "2021-03-08 18:10:54 +0000";
com.typemytype.robofont.guideline.magnetic.yKRc1KYmcW = 5;
};
width = 650;
},
{
anchors = (
{
name = bottom;
pos = (235,0);
},
{
name = ogonek;
pos = (497,0);
},
{
name = top;
pos = (365,690);
}
);
layerId = master02;
shapes = (
{
closed = 1;
nodes = (
(95,0,l),
(350,537,l),
(376,690,l),
(310,690,l),
(-62,0,l)
);
},
{
closed = 1;
nodes = (
(393,142,l),
(422,264,l),
(144,264,l),
(115,142,l)
);
},
{
closed = 1;
nodes = (
(351,0,l),
(497,0,l),
(423,690,l),
(359,690,l),
(320,537,l)
);
}
);
userData = {
com.schriftgestaltung.Glyphs.lastChange = "2021-03-08 17:07:35 +0000";
};
width = 555;
},
{
anchors = (
{
name = bottom;
pos = (212,0);
},
{
name = ogonek;
pos = (429,0);
},
{
name = top;
pos = (344,690);
}
);
guides = (
{
angle = 78;
pos = (228,0);
}
);
layerId = master03;
shapes = (
{
closed = 1;
nodes = (
(24,0,l),
(355,645,l),
(360,690,l),
(320,690,l),
(-42,0,l)
);
},
{
closed = 1;
nodes = (
(368,226,l),
(368,280,l),
(136,280,l),
(124,226,l)
);
},
{
closed = 1;
nodes = (
(367,0,l),
(429,0,l),
(369,690,l),
(328,690,l),
(320,648,l)
);
}
);
userData = {
com.schriftgestaltung.Glyphs.lastChange = "2021-03-08 06:29:23 +0000";
com.typemytype.robofont.guideline.magnetic.L6PCExRGN1 = 5;
};
width = 507;
},
{
anchors = (
{
name = bottom;
pos = (208,0);
},
{
name = ogonek;
pos = (432,0);
},
{
name = top;
pos = (336,690);
}
);
layerId = master04;
shapes = (
{
closed = 1;
nodes = (
(48,0,l),
(336,609,l),
(351,690,l),
(302,690,l),
(-45,0,l)
);
},
{
closed = 1;
nodes = (
(361,183,l),
(380,261,l),
(131,261,l),
(112,183,l)
);
},
{
closed = 1;
nodes = (
(342,0,l),
(432,0,l),
(375,690,l),
(329,690,l),
(308,609,l)
);
}
);
userData = {
com.schriftgestaltung.Glyphs.lastChange = "2021-03-08 06:30:32 +0000";
};
width = 507;
},
{
anchors = (
{
name = bottom;
pos = (249,0);
},
{
name = ogonek;
pos = (497,0);
},
{
name = top;
pos = (374,690);
}
);
guides = (
{
angle = 78;
pos = (228,0);
}
);
layerId = master05;
shapes = (
{
closed = 1;
nodes = (
(24,0,l),
(385,645,l),
(390,690,l),
(350,690,l),
(-42,0,l)
);
},
{
closed = 1;
nodes = (
(421,226,l),
(433,280,l),
(140,280,l),
(128,226,l)
);
},
{
closed = 1;
nodes = (
(435,0,l),
(497,0,l),
(399,690,l),
(358,690,l),
(350,645,l)
);
}
);
userData = {
com.schriftgestaltung.Glyphs.lastChange = "2021-03-08 18:08:57 +0000";
com.typemytype.robofont.guideline.magnetic.L6PCExRGN1 = 5;
};
width = 575;
},
{
anchors = (
{
name = bottom;
pos = (248,0);
},
{
name = ogonek;
pos = (528,0);
},
{
name = top;
pos = (386,690);
}
);
layerId = master06;
shapes = (
{
closed = 1;
nodes = (
(54,0,l),
(389,605,l),
(401,690,l),
(349,690,l),
(-50,0,l)
);
},
{
closed = 1;
nodes = (
(436,194,l),
(453,274,l),
(148,274,l),
(131,194,l)
);
},
{
closed = 1;
nodes = (
(432,0,l),
(528,0,l),
(424,690,l),
(372,690,l),
(354,605,l)
);
}
);
userData = {
com.schriftgestaltung.Glyphs.lastChange = "2021-03-08 18:08:36 +0000";
};
width = 598;
}
);
unicode = 65;
},
{
color = 5;
glyphname = AE;
kernLeft = AE;
kernRight = E;
layers = (
{
anchors = (
{
name = top;
pos = (672,690);
}
);
layerId = master01;
shapes = (
{
closed = 1;
nodes = (
(110,0,l),
(455,590,l),
(447,690,l),
(355,690,l),
(-60,0,l)
);
},
{
closed = 1;
nodes = (
(464,136,l),
(491,263,l),
(165,263,l),
(138,136,l)
);
},
{
closed = 1;
nodes = (
(525,0,l),
(672,690,l),
(512,690,l),
(365,0,l)
);
},
{
closed = 1;
nodes = (
(967,550,l),
(997,690,l),
(417,690,l),
(387,550,l)
);
},
{
closed = 1;
nodes = (
(855,0,l),
(885,140,l),
(469,140,l),
(439,0,l)
);
},
{
closed = 1;
nodes = (
(863,282,l),
(891,414,l),
(527,414,l),
(499,282,l)
);
}
);
userData = {
com.schriftgestaltung.Glyphs.lastChange = "2021-03-02 23:46:34 +0000";
};
width = 960;
},
{
anchors = (
{
name = top;
pos = (587,690);
}
);
layerId = master02;
shapes = (
{
closed = 1;
nodes = (
(94,0,l),
(397,594,l),
(392,690,l),
(308,690,l),
(-61,0,l)
);
},
{
closed = 1;
nodes = (
(389,142,l),
(415,264,l),
(140,264,l),
(114,142,l)
);
},
{
closed = 1;
nodes = (
(444,0,l),
(591,690,l),
(445,690,l),
(298,0,l)
);
},
{
closed = 1;
nodes = (
(813,556,l),
(842,690,l),
(364,690,l),
(335,556,l)
);
},
{
closed = 1;
nodes = (
(700,0,l),
(728,134,l),
(397,134,l),
(365,0,l)
);
},
{
closed = 1;
nodes = (
(716,285,l),
(742,411,l),
(455,411,l),
(425,285,l)
);
}
);
userData = {
com.schriftgestaltung.Glyphs.lastChange = "2021-03-03 00:29:32 +0000";
};
width = 805;
},
{
anchors = (
{
name = top;
pos = (620,690);
}
);
layerId = master03;
shapes = (
{
closed = 1;
nodes = (
(25,0,l),
(441,645,l),
(449,690,l),
(406,690,l),
(-40,0,l)
);
},
{
closed = 1;
nodes = (
(441,226,l),
(453,280,l),
(160,280,l),
(148,226,l)
);
},
{
closed = 1;
nodes = (
(430,0,l),
(577,690,l),
(515,690,l),
(368,0,l)
);
},
{
closed = 1;
nodes = (
(849,636,l),
(861,690,l),
(440,690,l),
(428,636,l)
);
},
{
closed = 1;
nodes = (
(719,0,l),
(730,54,l),
(409,54,l),
(398,0,l)
);
},
{
closed = 1;
nodes = (
(736,322,l),
(747,374,l),
(477,374,l),
(466,322,l)
);
}
);
userData = {
com.schriftgestaltung.Glyphs.lastChange = "2021-03-04 10:55:32 +0000";
};
width = 843;
},
{
anchors = (
{
name = top;
pos = (533,690);
}
);
layerId = master04;
shapes = (
{
closed = 1;
nodes = (
(40,0,l),
(371,627,l),
(373,690,l),
(319,690,l),
(-54,0,l)
);
},
{
closed = 1;
nodes = (
(357,197,l),
(376,275,l),
(128,275,l),
(108,197,l)
);
},
{
closed = 1;
nodes = (
(369,0,l),
(516,690,l),
(427,690,l),
(280,0,l)
);
},
{
closed = 1;
nodes = (
(766,608,l),
(784,690,l),
(358,690,l),
(337,608,l)
);
},
{
closed = 1;
nodes = (
(645,0,l),
(662,82,l),
(342,82,l),
(322,0,l)
);
},
{
closed = 1;
nodes = (
(667,309,l),
(683,387,l),
(405,387,l),
(386,309,l)
);
}
);
userData = {
com.schriftgestaltung.Glyphs.lastChange = "2021-03-02 23:38:03 +0000";
};
width = 760;
},
{
anchors = (
{
name = top;
pos = (620,690);
}
);
layerId = master05;
shapes = (
{
closed = 1;
nodes = (
(25,0,l),
(441,645,l),
(449,690,l),
(406,690,l),
(-40,0,l)
);
},
{
closed = 1;
nodes = (
(441,226,l),
(453,280,l),
(160,280,l),
(148,226,l)
);
},
{
closed = 1;
nodes = (
(430,0,l),
(577,690,l),
(515,690,l),
(368,0,l)
);
},
{
closed = 1;
nodes = (
(914,636,l),
(926,690,l),
(440,690,l),
(428,636,l)
);
},
{
closed = 1;
nodes = (
(784,0,l),
(795,54,l),
(409,54,l),
(398,0,l)
);
},
{
closed = 1;
nodes = (
(801,322,l),
(812,374,l),
(477,374,l),
(466,322,l)
);
}
);
userData = {
com.schriftgestaltung.Glyphs.lastChange = "2021-03-03 00:29:23 +0000";
};
width = 910;
},
{
anchors = (
{
name = top;
pos = (640,690);
}
);
layerId = master06;
shapes = (
{
closed = 1;
nodes = (
(57,0,l),
(448,625,l),
(450,690,l),
(390,690,l),
(-45,0,l)
);
},
{
closed = 1;
nodes = (
(451,194,l),
(468,274,l),
(164,274,l),
(146,194,l)
);
},
{
closed = 1;
nodes = (
(466,0,l),
(613,690,l),
(516,690,l),
(369,0,l)
);
},
{
closed = 1;
nodes = (
(935,605,l),
(953,690,l),
(434,690,l),
(415,605,l)
);
},
{
closed = 1;
nodes = (
(811,0,l),
(829,85,l),
(432,85,l),
(415,0,l)
);
},
{
closed = 1;
nodes = (
(825,308,l),
(842,388,l),
(497,388,l),
(480,308,l)
);
}
);
userData = {
com.schriftgestaltung.Glyphs.lastChange = "2021-03-02 23:45:59 +0000";
};
width = 937;
}
);
unicode = 198;
},
{
color = 5;
glyphname = B;
kernLeft = H;
layers = (
{
layerId = master01;
shapes = (
{
closed = 1;
nodes = (
(172,0,l),
(319,690,l),
(159,690,l),
(12,0,l)
);
},
{
closed = 1;
nodes = (
(288,0,ls),
(452,0,o),
(570,94,o),
(570,221,cs),
(570,322,o),
(483.9,388,o),
(360,388,cs),
(168,388,l),
(147,292,l),
(336,292,ls),
(382,292,o),
(413,269,o),
(413,226,c),
(413,176,o),
(365,129,o),
(303,129,cs),
(114,129,l),
(86,0,l)
);
},
{
closed = 1;
nodes = (
(323,328,ls),
(476.421,328,o),
(606,413,o),
(606,530,cs),
(606,627,o),
(528,690,o),
(410,690,cs),
(233,690,l),
(204,561,l),
(373,561,ls),
(417,561,o),
(446,537,o),
(446,499,c),
(446,452,o),
(407,407,o),
(343,407,cs),
(174,407,l),
(156,328,l)
);
}
);
userData = {
com.schriftgestaltung.Glyphs.lastChange = "2021-03-02 23:46:34 +0000";
};
width = 627;
},
{
layerId = master02;
shapes = (
{
closed = 1;
nodes = (
(156,0,l),
(303,690,l),
(157,690,l),
(10,0,l)
);
},
{
closed = 1;
nodes = (
(250,0,ls),
(388,0,o),
(496,94,o),
(496,221,cs),
(496,316,o),
(428,387,o),
(323,387,cs),
(160,387,l),
(138,295,l),
(299,295,ls),
(332,295,o),
(353,270,o),
(353,225,cs),
(353,172,o),
(312,124,o),
(268,124,cs),
(107,124,l),
(77,0,l)
);
},
{
closed = 1;
nodes = (
(288,329,ls),
(417,329,o),
(534,414,o),
(534,537,c),
(534,627,o),
(469,690,o),
(368,690,cs),
(225,690,l),
(194,566,l),
(338,566,ls),
(370,566,o),
(390,542,o),
(390,501,cs),
(390,452,o),
(358,405,o),
(310,405,cs),
(166,405,l),
(147,329,l)
);
}
);
userData = {
com.schriftgestaltung.Glyphs.lastChange = "2021-03-03 00:29:32 +0000";
};
width = 545;
},
{
layerId = master03;
shapes = (
{
closed = 1;
nodes = (
(99,0,l),
(246,690,l),
(184,690,l),
(37,0,l)
);
},
{
closed = 1;
nodes = (
(171,0,ls),
(342,0,o),
(432,93,o),
(432,216,cs),
(432,311,o),
(355,370,o),
(240,370,cs),
(146,370,l),
(137,330,l),
(226,330,ls),
(315,330,o),
(368,285,o),
(368,211,cs),
(368,124,o),
(306,54,o),
(177,54,cs),
(78,54,l),
(67,0,l)
);
},
{
closed = 1;
nodes = (
(213,340,ls),
(368,340,o),
(466,430,o),
(466,539,cs),
(466,632,o),
(391,690,o),
(288,690,cs),
(214,690,l),
(202,636,l),
(271,636,ls),
(358,636,o),
(400,601,o),
(400,531,cs),
(400,457,o),
(333,380,o),
(217,380,cs),
(148,380,l),
(139,340,l)
);
}
);
userData = {
com.schriftgestaltung.Glyphs.lastChange = "2021-03-04 10:55:32 +0000";
};
width = 509;
},
{
layerId = master04;
shapes = (
{
closed = 1;
nodes = (
(106,0,l),
(253,690,l),
(164,690,l),
(17,0,l)
);
},
{
closed = 1;
nodes = (
(202,0,l),
(343,0,o),
(446,95,o),
(446,231,c),
(446,317,o),
(386,369,o),
(290,369,cs),
(140,369,l),
(125,316,l),
(250,316,ls),
(323,316,o),
(352,278,o),
(352,223,cs),
(352,148,o),
(309,78,o),
(199,78,cs),
(79,78,l),
(60,0,l)
);
},
{
closed = 1;
nodes = (
(263,334,ls),
(385,334,o),
(488,432,o),
(488,547,cs),
(488,634,o),
(438,690,o),
(326,690,cs),
(206,690,l),
(186,612,l),
(295,612,ls),
(366,612,o),
(395,586,o),
(395,527,cs),
(395,462,o),
(349,390,o),
(257,390,cs),
(144,390,l),
(131,334,l)
);
}
);
userData = {
com.schriftgestaltung.Glyphs.lastChange = "2021-03-02 23:38:03 +0000";
};
width = 509;
},
{
layerId = master05;
shapes = (
{
closed = 1;
nodes = (
(106,0,l),
(253,690,l),
(191,690,l),
(44,0,l)
);
},
{
closed = 1;
nodes = (
(252,0,ls),
(413,0,o),
(523,93,o),
(523,216,c),
(523,311,o),
(446,370,o),
(331,370,cs),
(153,370,l),
(144,330,l),
(317,330,ls),
(406,330,o),
(459,285,o),
(459,211,c),
(459,124,o),
(387,54,o),
(258,54,cs),
(85,54,l),
(74,0,l)
);
},
{
closed = 1;
nodes = (
(304,340,ls),
(459,340,o),
(567,430,o),
(567,539,c),
(567,632,o),
(482,690,o),
(379,690,cs),
(221,690,l),
(209,636,l),
(362,636,ls),
(449,636,o),
(501,601,o),
(501,531,c),
(501,457,o),
(424,380,o),
(308,380,cs),
(155,380,l),
(146,340,l)
);
}
);
userData = {
com.schriftgestaltung.Glyphs.lastChange = "2021-03-03 00:29:23 +0000";
};
width = 604;
},
{
layerId = master06;
shapes = (
{
closed = 1;
nodes = (
(132,0,l),
(279,690,l),
(182,690,l),
(35,0,l)
);
},
{
closed = 1;
nodes = (
(267,0,ls),
(429,0,o),
(542,93,o),
(542,218,c),
(542,315,o),
(463,376,o),
(347,376,cs),
(161,376,l),
(148,315,l),
(326,315,ls),
(399,315,o),
(444,279,o),
(444,216,c),
(444,142,o),
(381,82,o),
(276,82,cs),
(98,82,l),
(81,0,l)
);
},
{
closed = 1;
nodes = (
(317,336,ls),
(469,336,o),
(583,424,o),
(583,536,c),
(583,630,o),
(501,690,o),
(392,690,cs),
(228,690,l),
(210,608,l),
(368,608,ls),
(439,608,o),
(483,578,o),
(483,520,c),
(483,455,o),
(420,391,o),
(322,391,cs),
(164,391,l),
(152,336,l)
);
}
);
userData = {
com.schriftgestaltung.Glyphs.lastChange = "2021-03-02 23:45:59 +0000";
};
width = 615;
}
);
unicode = 66;
},
{
color = 5;
glyphname = C;
kernLeft = O;
kernRight = C;
layers = (
{
anchors = (
{
name = bottom;
pos = (304,0);
},
{
name = top;
pos = (446,690);
}
);
layerId = master01;
shapes = (
{
closed = 1;
nodes = (
(46,85,o),
(150,-12,o),
(310,-12,cs),
(399,-12,o),
(490,20,o),
(562,75,c),
(482,201,l),
(440,166,o),
(381,138,o),
(331,138,cs),
(258,138,o),
(211,180,o),
(211,272,cs),
(211,433,o),
(311,554,o),
(430,554,cs),
(480,554,o),
(518,537,o),
(555,502,c),
(669,622,l),
(601,677,o),
(537,702,o),
(461,702,cs),
(231,702,o),
(46,497,o),
(46,251,cs)
);
}
);
userData = {
com.schriftgestaltung.Glyphs.lastChange = "2021-03-02 23:46:34 +0000";
};
width = 631;
},
{
anchors = (
{
name = bottom;
pos = (250,0);
},
{
name = top;
pos = (394,690);
}
);
layerId = master02;
shapes = (
{
closed = 1;
nodes = (
(38,91,o),
(123,-12,o),
(255,-12,c),
(331,-12,o),
(410,27,o),
(467,76,c),
(405,194,l),
(363,150,o),
(323,128,o),
(278,128,c),
(226,128,o),
(189,170,o),
(189,258,c),
(189,444,o),
(278,563,o),
(374,563,c),
(414,563,o),
(450,546,o),
(478,514,c),
(582,623,l),
(529,678,o),
(465,702,o),
(402,702,c),
(206,702,o),
(38,503,o),
(38,243,c)
);
}
);
userData = {
com.schriftgestaltung.Glyphs.lastChange = "2021-03-03 00:29:32 +0000";
};
width = 544;
},
{
anchors = (
{
name = bottom;
pos = (287,0);
},
{
name = top;
pos = (418,690);
}
);
layerId = master03;
shapes = (
{
closed = 1;
nodes = (
(67,76,o),
(129,-8,o),
(235,-8,cs),
(324,-8,o),
(384,29,o),
(441,98,c),
(404,138,l),
(358,88,o),
(313,49,o),
(242,49,cs),
(165,49,o),
(132,115,o),
(132,236,cs),
(132,452,o),
(226,641,o),
(362,641,cs),
(405,641,o),
(439,616,o),
(467,569,c),
(517,604,l),
(470,672,o),
(428,698,o),
(369,698,cs),
(194,698,o),
(67,482,o),
(67,229,cs)
);
}
);
userData = {
com.schriftgestaltung.Glyphs.lastChange = "2021-03-04 10:55:32 +0000";
};
width = 516;
},
{
anchors = (
{
name = bottom;
pos = (233,0);
},
{
name = top;
pos = (373,690);
}
);
layerId = master04;
shapes = (
{
closed = 1;
nodes = (
(49,81,o),
(121,-10,o),
(233,-10,cs),
(310,-10,o),
(379,28,o),
(439,89,c),
(383,148,l),
(343,103,o),
(296,77,o),
(251,77,cs),
(180,77,o),
(144,136,o),
(144,251,cs),
(144,437,o),
(262,613,o),
(375,613,cs),
(412,613,o),
(440,591,o),
(466,548,c),
(540,612,l),
(498,672,o),
(449,700,o),
(387,700,cs),
(200,700,o),
(49,486,o),
(49,236,cs)
);
}
);
userData = {
com.schriftgestaltung.Glyphs.lastChange = "2021-03-02 23:38:03 +0000";
};
width = 516;
},
{
anchors = (
{
name = bottom;
pos = (287,0);
},
{
name = top;
pos = (434,690);
}
);
layerId = master05;
shapes = (
{
closed = 1;
nodes = (
(67,76,o),
(159,-8,o),
(295,-8,c),
(371,-8,o),
(452,23,o),
(521,88,c),
(483,134,l),
(429,81,o),
(365,49,o),
(302,49,c),
(195,49,o),
(132,115,o),
(132,236,c),
(132,452,o),
(276,641,o),
(432,641,cs),
(496,641,o),
(542,616,o),
(571,568,c),
(625,602,l),
(579,667,o),
(521,698,o),
(439,698,cs),
(244,698,o),
(67,482,o),
(67,229,c)
);
}
);
userData = {
com.schriftgestaltung.Glyphs.lastChange = "2021-03-03 00:29:23 +0000";
};
width = 622;
},
{
anchors = (
{
name = bottom;
pos = (297,0);
},
{
name = top;
pos = (434,690);
}
);
layerId = master06;
shapes = (
{
closed = 1;
nodes = (
(60,79,o),
(156,-10,o),
(301,-10,c),
(382,-10,o),
(466,22,o),
(536,83,c),
(483,158,l),
(434,111,o),
(371,80,o),
(313,80,c),
(218,80,o),
(161,138,o),
(161,249,c),
(161,445,o),
(289,610,o),
(432,610,cs),
(491,610,o),
(534,588,o),
(566,545,c),
(641,609,l),
(587,671,o),
(527,700,o),
(447,700,cs),
(240,700,o),
(60,487,o),
(60,237,c)
);
}
);
userData = {
com.schriftgestaltung.Glyphs.lastChange = "2021-03-02 23:45:59 +0000";
};
width = 626;
}
);
unicode = 67;
},
{
color = 5;
glyphname = D;
kernLeft = H;
kernRight = O;
layers = (
{
anchors = (
{
name = top;
pos = (396,690);
}
);
layerId = master01;
shapes = (
{
closed = 1;
nodes = (
(172,0,l),
(319,690,l),
(159,690,l),
(12,0,l)
);
},
{
closed = 1;
nodes = (
(249,0,ls),
(493,0,o),
(682,188,o),
(683,429,cs),
(684,591,o),
(570,690,o),
(406,690,cs),
(233,690,l),
(203,550,l),
(370,550,ls),
(460,550,o),
(517,498,o),
(518,408,c),
(517,260,o),
(397,140,o),
(265,140,cs),
(116,140,l),
(86,0,l)
);
}
);
userData = {
com.schriftgestaltung.Glyphs.lastChange = "2021-03-03 00:21:50 +0000";
};
width = 704;
},
{
anchors = (
{
name = top;
pos = (362,690);
}
);
layerId = master02;
shapes = (
{
closed = 1;
nodes = (
(156,0,l),
(303,690,l),
(157,690,l),
(10,0,l)
);
},
{
closed = 1;
nodes = (
(216,0,ls),
(421,0,o),
(599,188,o),
(599,434,c),
(599,591,o),
(507,690,o),
(370,690,cs),
(225,690,l),
(193,556,l),
(336,556,ls),
(406,556,o),
(448,503,o),
(448,414,c),
(441,258,o),
(339,134,o),
(236,134,cs),
(109,134,l),
(77,0,l)
);
}
);
userData = {
com.schriftgestaltung.Glyphs.lastChange = "2021-03-03 00:29:32 +0000";
};
width = 611;
},
{
anchors = (
{
name = top;
pos = (325,690);
}
);
layerId = master03;
shapes = (
{
closed = 1;
nodes = (
(86,0,l),
(233,690,l),
(171,690,l),
(24,0,l)
);
},
{
closed = 1;
nodes = (
(138,0,ls),
(373,0,o),
(520,193,o),
(520,444,cs),
(520,591,o),
(435,690,o),
(279,690,cs),
(201,690,l),
(189,636,l),
(272,636,ls),
(398,636,o),
(456,562,o),
(456,434,cs),
(456,227,o),
(331,54,o),
(145,54,cs),
(65,54,l),
(54,0,l)
);
}
);
userData = {
com.schriftgestaltung.Glyphs.lastChange = "2021-03-08 19:51:11 +0000";
};
width = 560;
},
{
anchors = (
{
name = top;
pos = (337,690);
}
);
layerId = master04;
shapes = (
{
closed = 1;
nodes = (
(106,0,l),
(253,690,l),
(164,690,l),
(17,0,l)
);
},
{
closed = 1;
nodes = (
(173,0,ls),
(397,0,o),
(538,210,o),
(538,452,cs),
(538,580,o),
(461,690,o),
(306,690,cs),
(206,690,l),
(185,608,l),
(295,608,ls),
(389,608,o),
(447,551,o),
(447,435,cs),
(447,245,o),
(341,82,o),
(176,82,cs),
(80,82,l),
(60,0,l)
);
}
);
userData = {
com.schriftgestaltung.Glyphs.lastChange = "2021-03-02 23:38:03 +0000";
};
width = 560;
},
{
anchors = (
{
name = top;
pos = (365,690);
}
);
layerId = master05;
shapes = (
{
closed = 1;
nodes = (
(106,0,l),
(253,690,l),
(191,690,l),
(44,0,l)
);
},
{
closed = 1;
nodes = (
(218,0,ls),
(463,0,o),
(630,193,o),
(630,444,cs),
(630,591,o),
(525,690,o),
(359,690,cs),
(221,690,l),
(209,636,l),
(352,636,ls),
(488,636,o),
(565,562,o),
(565,434,cs),
(565,227,o),
(421,54,o),
(225,54,cs),
(85,54,l),
(74,0,l)
);
}
);
userData = {
com.schriftgestaltung.Glyphs.lastChange = "2021-03-03 00:29:23 +0000";
};
width = 674;
},
{
anchors = (
{
name = top;
pos = (391,690);
}
);
layerId = master06;
shapes = (
{
closed = 1;
nodes = (
(132,0,l),
(279,690,l),
(182,690,l),
(35,0,l)
);
},
{
closed = 1;
nodes = (
(231,0,ls),
(476,0,o),
(651,191,o),
(651,439,cs),
(652,591,o),
(544,690,o),
(378,690,cs),
(228,690,l),
(209,605,l),
(361,605,ls),
(481,605,o),
(550,539,o),
(551,425,cs),
(550,239,o),
(415,85,o),
(242,85,cs),
(98,85,l),
(81,0,l)
);
}
);
userData = {
com.schriftgestaltung.Glyphs.lastChange = "2021-03-02 23:45:59 +0000";
};
width = 687;
}
);
unicode = 68;
},
{
color = 5;
glyphname = Eth;
kernLeft = H;
kernRight = O;
layers = (
{
layerId = master01;
shapes = (
{
closed = 1;
nodes = (
(369,273,l),
(398,407,l),
(52,407,l),
(23,273,l)
);
},
{
closed = 1;
nodes = (
(177,0,l),
(324,690,l),
(164,690,l),
(17,0,l)
);
},
{
closed = 1;
nodes = (
(254,0,ls),
(498,0,o),
(687,188,o),
(688,429,cs),
(689,591,o),
(575,690,o),
(411,690,cs),
(238,690,l),
(208,550,l),
(375,550,ls),
(465,550,o),
(523,498,o),
(523,408,cs),
(523,260,o),
(402,140,o),
(270,140,cs),
(121,140,l),
(91,0,l)
);
}
);
userData = {
com.schriftgestaltung.Glyphs.lastChange = "2021-03-02 23:46:34 +0000";
};
width = 709;
},
{
layerId = master02;
shapes = (
{
closed = 1;
nodes = (
(324,277,l),
(351,404,l),
(56,404,l),
(29,277,l)
);
},
{
closed = 1;
nodes = (
(156,0,l),
(303,690,l),
(157,690,l),
(10,0,l)
);
},
{
closed = 1;
nodes = (
(216,0,ls),
(421,0,o),
(599,188,o),
(599,434,cs),
(599,591,o),
(507,690,o),
(370,690,cs),
(225,690,l),
(193,556,l),
(336,556,ls),
(406,556,o),
(448,503,o),
(448,414,cs),
(448,258,o),
(339,134,o),
(236,134,cs),
(109,134,l),
(77,0,l)
);
}
);
userData = {
com.schriftgestaltung.Glyphs.lastChange = "2021-03-03 00:29:32 +0000";
};
width = 611;
},
{
layerId = master03;
shapes = (
{
closed = 1;
nodes = (
(263,317,l),
(274,367,l),
(49,367,l),
(38,317,l)
);
},
{
closed = 1;
nodes = (
(111,0,l),
(258,690,l),
(196,690,l),
(49,0,l)
);
},
{
closed = 1;
nodes = (
(163,0,ls),
(408,0,o),
(545,193,o),
(545,444,cs),
(545,581,o),
(470,690,o),
(304,690,cs),
(226,690,l),
(214,636,l),
(297,636,ls),
(433,636,o),
(480,552,o),
(480,434,cs),
(480,227,o),
(366,54,o),
(170,54,cs),
(90,54,l),
(79,0,l)
);
}
);
userData = {
com.schriftgestaltung.Glyphs.lastChange = "2021-03-04 10:55:32 +0000";
};
width = 570;
},
{
layerId = master04;
shapes = (
{
closed = 1;
nodes = (
(282,310,l),
(297,382,l),
(49,382,l),
(34,310,l)
);
},
{
closed = 1;
nodes = (
(116,0,l),
(263,690,l),
(174,690,l),
(27,0,l)
);
},
{
closed = 1;
nodes = (
(183,0,ls),
(407,0,o),
(548,210,o),
(548,452,cs),
(548,580,o),
(471,690,o),
(316,690,cs),
(216,690,l),
(195,608,l),
(305,608,ls),
(399,608,o),
(457,551,o),
(457,435,cs),
(457,245,o),
(351,82,o),
(186,82,cs),
(90,82,l),
(70,0,l)
);
}
);
userData = {
com.schriftgestaltung.Glyphs.lastChange = "2021-03-02 23:38:03 +0000";
};
width = 570;
},
{
layerId = master05;
shapes = (
{
closed = 1;
nodes = (
(298,317,l),
(309,367,l),
(24,367,l),
(13,317,l)
);
},
{
closed = 1;
nodes = (
(116,0,l),
(263,690,l),
(201,690,l),
(54,0,l)
);
},
{
closed = 1;
nodes = (
(228,0,ls),
(473,0,o),
(640,193,o),
(640,444,cs),
(640,591,o),
(535,690,o),
(369,690,cs),
(231,690,l),
(219,636,l),
(362,636,ls),
(498,636,o),
(575,562,o),
(575,434,cs),
(575,227,o),
(431,54,o),
(235,54,cs),
(95,54,l),
(84,0,l)
);
}
);
userData = {
com.schriftgestaltung.Glyphs.lastChange = "2021-03-03 00:29:23 +0000";
};
width = 684;
},
{
layerId = master06;
shapes = (
{
closed = 1;
nodes = (
(358,308,l),
(374,383,l),
(53,383,l),
(37,308,l)
);
},
{
closed = 1;
nodes = (
(142,0,l),
(289,690,l),
(192,690,l),
(45,0,l)
);
},
{
closed = 1;
nodes = (
(241,0,ls),
(486,0,o),
(661,191,o),
(661,439,cs),
(662,591,o),
(554,690,o),
(388,690,cs),
(238,690,l),
(219,605,l),
(371,605,ls),
(491,605,o),
(560,539,o),
(561,425,cs),
(560,239,o),
(425,85,o),
(252,85,cs),
(108,85,l),
(91,0,l)
);
}
);
userData = {
com.schriftgestaltung.Glyphs.lastChange = "2021-03-02 23:45:59 +0000";
};
width = 698;
}
);
unicode = 208;
},
{
color = 5;
glyphname = E;
kernLeft = H;
kernRight = E;
layers = (
{
anchors = (
{
name = bottom;
pos = (263,0);
},
{
name = ogonek;
pos = (382,0);
},
{
name = top;
pos = (392,690);
}
);
layerId = master01;
shapes = (
{
closed = 1;
nodes = (
(172,0,l),
(319,690,l),
(159,690,l),
(12,0,l)
);
},
{
closed = 1;
nodes = (
(502,0,l),
(532,140,l),
(116,140,l),
(86,0,l)
);
},
{
closed = 1;
nodes = (
(510,282,l),
(538,414,l),
(174,414,l),
(146,282,l)
);
},
{
closed = 1;
nodes = (
(614,550,l),
(644,690,l),
(233,690,l),
(203,550,l)
);
}
);
userData = {
com.schriftgestaltung.Glyphs.lastChange = "2021-03-02 23:46:34 +0000";
};
width = 607;
},
{
anchors = (
{
name = bottom;
pos = (226,0);
},
{
name = ogonek;
pos = (432,0);
},
{
name = top;
pos = (356,690);
}
);
layerId = master02;
shapes = (
{
closed = 1;
nodes = (
(156,0,l),
(303,690,l),
(157,690,l),
(10,0,l)
);
},
{
closed = 1;
nodes = (
(432,0,l),
(460,134,l),
(107,134,l),
(79,0,l)
);
},
{
closed = 1;
nodes = (
(448,285,l),
(474,411,l),
(165,411,l),
(139,285,l)
);
},
{
closed = 1;
nodes = (
(545,556,l),
(574,690,l),
(225,690,l),
(196,556,l)
);
}
);
userData = {
com.schriftgestaltung.Glyphs.lastChange = "2021-03-08 00:48:45 +0000";
};
width = 537;
},
{
anchors = (
{
name = bottom;
pos = (215,0);
},
{
name = ogonek;
pos = (366,0);
},
{
name = top;
pos = (349,690);
}
);
layerId = master03;
shapes = (
{
closed = 1;
nodes = (
(92,0,l),
(239,690,l),
(177,690,l),
(30,0,l)
);
},
{
closed = 1;
nodes = (
(366,0,l),
(377,54,l),
(71,54,l),
(60,0,l)
);
},
{
closed = 1;
nodes = (
(383,322,l),
(394,374,l),
(139,374,l),
(128,322,l)
);
},
{
closed = 1;
nodes = (
(496,636,l),
(508,690,l),
(207,690,l),
(195,636,l)
);
}
);
userData = {
com.schriftgestaltung.Glyphs.lastChange = "2021-03-07 23:26:36 +0000";
};
width = 498;
},
{
anchors = (
{
name = bottom;
pos = (202,0);
},
{
name = ogonek;
pos = (382,0);
},
{
name = top;
pos = (343,690);
}
);
layerId = master04;
shapes = (
{
closed = 1;
nodes = (
(106,0,l),
(253,690,l),
(164,690,l),
(17,0,l)
);
},
{
closed = 1;
nodes = (
(382,0,l),
(399,82,l),
(80,82,l),
(60,0,l)
);
},
{
closed = 1;
nodes = (
(406,309,l),
(422,387,l),
(143,387,l),
(124,309,l)
);
},
{
closed = 1;
nodes = (
(505,608,l),
(521,690,l),
(206,690,l),
(185,608,l)
);
}
);
userData = {
com.schriftgestaltung.Glyphs.lastChange = "2021-03-07 23:27:15 +0000";
};
width = 498;
},
{
anchors = (
{
name = bottom;
pos = (245,0);
},
{
name = ogonek;
pos = (404,0);
},
{
name = top;
pos = (397,690);
}
);
layerId = master05;
shapes = (
{
closed = 1;
nodes = (
(106,0,l),
(253,690,l),
(191,690,l),
(44,0,l)
);
},
{
closed = 1;
nodes = (
(460,0,l),
(471,54,l),
(85,54,l),
(74,0,l)
);
},
{
closed = 1;
nodes = (
(477,322,l),
(488,374,l),
(153,374,l),
(142,322,l)
);
},
{
closed = 1;
nodes = (
(590,636,l),
(602,690,l),
(221,690,l),
(209,636,l)
);
}
);
userData = {
com.schriftgestaltung.Glyphs.lastChange = "2021-03-03 00:29:23 +0000";
};
width = 586;
},
{
anchors = (
{
name = bottom;
pos = (259,0);
},
{
name = ogonek;
pos = (396,0);
},
{
name = top;
pos = (403,690);
}
);
layerId = master06;
shapes = (
{
closed = 1;
nodes = (
(132,0,l),
(279,690,l),
(182,690,l),
(35,0,l)
);
},
{
closed = 1;
nodes = (
(477,0,l),
(495,85,l),
(99,85,l),
(81,0,l)
);
},
{
closed = 1;
nodes = (
(491,308,l),
(509,388,l),
(163,388,l),
(146,308,l)
);
},
{
closed = 1;
nodes = (
(601,605,l),
(619,690,l),
(227,690,l),
(209,605,l)
);
}
);
userData = {
com.schriftgestaltung.Glyphs.lastChange = "2021-03-02 23:45:59 +0000";
};
width = 603;
}
);
unicode = 69;
},
{
color = 5;
glyphname = F;
kernLeft = H;
layers = (
{
layerId = master01;
shapes = (
{
closed = 1;
nodes = (
(172,0,l),
(319,690,l),
(159,690,l),
(12,0,l)
);
},
{
closed = 1;
nodes = (
(495,247,l),
(524,387,l),
(168,387,l),
(139,247,l)
);
},
{
closed = 1;
nodes = (
(599,550,l),
(629,690,l),
(233,690,l),
(203,550,l)
);
}
);
userData = {
com.schriftgestaltung.Glyphs.lastChange = "2021-03-02 23:46:34 +0000";
};
width = 570;
},
{
layerId = master02;
shapes = (
{
closed = 1;
nodes = (
(156,0,l),
(303,690,l),
(157,690,l),
(10,0,l)
);
},
{
closed = 1;
nodes = (
(433,251,l),
(462,385,l),
(160,385,l),
(131,251,l)
);
},
{
closed = 1;
nodes = (
(532,556,l),
(561,690,l),
(225,690,l),
(196,556,l)
);
}
);
userData = {
com.schriftgestaltung.Glyphs.lastChange = "2021-03-03 00:29:32 +0000";
};
width = 509;
},
{
layerId = master03;
shapes = (
{
closed = 1;
nodes = (
(96,0,l),
(243,690,l),
(181,690,l),
(34,0,l)
);
},
{
closed = 1;
nodes = (
(388,301,l),
(399,355,l),
(139,355,l),
(128,301,l)
);
},
{
closed = 1;
nodes = (
(497,636,l),
(509,690,l),
(211,690,l),
(199,636,l)
);
}
);
userData = {
com.schriftgestaltung.Glyphs.lastChange = "2021-03-04 10:55:32 +0000";
};
width = 457;
},
{
layerId = master04;
shapes = (
{
closed = 1;
nodes = (
(106,0,l),
(253,690,l),
(164,690,l),
(17,0,l)
);
},
{
closed = 1;
nodes = (
(395,284,l),
(413,365,l),
(138,365,l),
(118,284,l)
);
},
{
closed = 1;
nodes = (
(493,608,l),
(511,690,l),
(206,690,l),
(185,608,l)
);
}
);
userData = {
com.schriftgestaltung.Glyphs.lastChange = "2021-03-08 20:44:03 +0000";
};
width = 457;
},
{
layerId = master05;
shapes = (
{
closed = 1;
nodes = (
(106,0,l),
(253,690,l),
(191,690,l),
(44,0,l)
);
},
{
closed = 1;
nodes = (
(468,301,l),
(479,355,l),
(149,355,l),
(138,301,l)
);
},
{
closed = 1;
nodes = (
(577,636,l),
(589,690,l),
(221,690,l),
(209,636,l)
);
}
);
userData = {
com.schriftgestaltung.Glyphs.lastChange = "2021-03-03 00:29:23 +0000";
};
width = 549;
},
{
layerId = master06;
shapes = (
{
closed = 1;
nodes = (
(132,0,l),
(279,690,l),
(182,690,l),
(35,0,l)
);
},
{
closed = 1;
nodes = (
(480,282,l),
(498,366,l),
(159,366,l),
(141,282,l)
);
},
{
closed = 1;
nodes = (
(587,605,l),
(605,690,l),
(227,690,l),
(209,605,l)
);
}
);
userData = {
com.schriftgestaltung.Glyphs.lastChange = "2021-03-02 23:45:59 +0000";
};
width = 563;
}
);
unicode = 70;
},
{
color = 5;
glyphname = G;
kernLeft = O;
kernRight = G;
layers = (
{
anchors = (
{
name = bottom;
pos = (314,0);
},
{
name = top;
pos = (451,690);
}
);
layerId = master01;
shapes = (
{
closed = 1;
nodes = (
(46,85,o),
(154,-12,o),
(320,-12,cs),
(418,-12,o),
(527,26,o),
(597,81,c),
(502,165,l),
(464,141,o),
(401,122,o),
(351,122,c),
(262,122,o),
(211,173,o),
(211,272,cs),
(211,433,o),
(313,554,o),
(435,554,cs),
(487,554,o),
(527,537,o),
(565,502,c),
(679,622,l),
(609,677,o),
(540,702,o),
(466,702,cs),
(233,702,o),
(46,497,o),
(46,251,cs)
);
},
{
closed = 1;
nodes = (
(565,249,l),
(593,382,l),
(377,382,l),
(349,249,l)
);
},
{
closed = 1;
nodes = (
(597,81,l),
(661,382,l),
(507,382,l),
(441,70,l)
);
}
);
userData = {
com.schriftgestaltung.Glyphs.lastChange = "2021-03-02 23:46:34 +0000";
};
width = 694;
},
{
anchors = (
{
name = bottom;
pos = (257,0);
},
{
name = top;
pos = (399,690);
}
);
layerId = master02;
shapes = (
{
closed = 1;
nodes = (
(32,85,o),
(128,-12,o),
(275,-12,c),
(355,-12,o),
(443,26,o),
(504,81,c),
(420,163,l),
(390,137,o),
(342,115,o),
(302,115,c),
(229,115,o),
(185,164,o),
(189,258,c),
(189,444,o),
(284,563,o),
(380,563,c),
(420,563,o),
(458,546,o),
(486,514,c),
(590,623,l),
(537,678,o),
(471,702,o),
(408,702,c),
(212,702,o),
(38,503,o),
(38,243,c)
);
},
{
closed = 1;
nodes = (
(478,251,l),
(508,378,l),
(323,378,l),
(296,251,l)
);
},
{
closed = 1;
nodes = (
(504,81,l),
(567,378,l),
(429,378,l),
(364,71,l)
);
}
);
userData = {
com.schriftgestaltung.Glyphs.lastChange = "2021-03-03 00:29:32 +0000";
};
width = 596;
},
{
anchors = (
{
name = bottom;
pos = (265,0);
},
{
name = top;
pos = (355,690);
}
);
layerId = master03;
shapes = (
{
closed = 1;
nodes = (
(67,79,o),
(152,-8,o),
(247,-8,cs),
(326,-8,o),
(396,20,o),
(451,87,c),
(413,128,l),
(363,69,o),
(320,52,o),
(256,52,cs),
(193,52,o),
(132,116,o),
(132,236,cs),
(132,452,o),
(246,641,o),
(364,641,cs),
(412,641,o),
(460,609,o),
(495,563,c),
(541,603,l),
(496,662,o),
(442,698,o),
(371,698,cs),
(207,698,o),
(67,482,o),
(67,229,cs)
);
},
{
closed = 1;
nodes = (
(462,276,l),
(473,330,l),
(350,330,l),
(339,276,l)
);
},
{
closed = 1;
nodes = (
(451,87,l),
(503,330,l),
(441,330,l),
(389,87,l)
);
}
);
userData = {
com.schriftgestaltung.Glyphs.lastChange = "2021-03-04 10:55:32 +0000";
};
width = 556;
},
{
anchors = (
{
name = bottom;
pos = (246,0);
},
{
name = top;
pos = (374,690);
}
);
layerId = master04;
shapes = (
{
closed = 1;
nodes = (
(49,81,o),
(121,-10,o),
(233,-10,cs),
(316,-10,o),
(391,27,o),
(455,85,c),
(393,141,l),
(349,99,o),
(299,75,o),
(251,75,cs),
(180,75,o),
(144,135,o),
(144,251,cs),
(144,437,o),
(263,613,o),
(375,613,cs),
(413,613,o),
(440,591,o),
(466,548,c),
(540,612,l),
(498,672,o),
(449,700,o),
(387,700,cs),
(200,700,o),
(49,486,o),
(49,236,cs)
);
},
{
closed = 1;
nodes = (
(453,267,l),
(472,346,l),
(312,346,l),
(295,267,l)
);
},
{
closed = 1;
nodes = (
(455,85,l),
(511,346,l),
(422,346,l),
(365,82,l)
);
}
);
userData = {
com.schriftgestaltung.Glyphs.lastChange = "2021-03-08 20:44:03 +0000";
};
width = 556;
},
{
anchors = (
{
name = bottom;
pos = (305,0);
},
{
name = top;
pos = (435,690);
}
);
layerId = master05;
shapes = (
{
closed = 1;
nodes = (
(67,79,o),
(164,-8,o),
(297,-8,c),
(376,-8,o),
(467,22,o),
(541,87,c),
(503,128,l),
(445,75,o),
(370,48,o),
(304,48,c),
(200,48,o),
(132,118,o),
(132,236,cs),
(132,452,o),
(273,641,o),
(432,641,cs),
(498,641,o),
(546,616,o),
(576,568,c),
(630,602,l),
(583,667,o),
(523,698,o),
(439,698,cs),
(241,698,o),
(67,482,o),
(67,229,cs)
);
},
{
closed = 1;
nodes = (
(552,276,l),
(563,330,l),
(380,330,l),
(369,276,l)
);
},
{
closed = 1;
nodes = (
(541,87,l),
(593,330,l),
(531,330,l),
(479,87,l)
);
}
);
userData = {
com.schriftgestaltung.Glyphs.lastChange = "2021-03-03 00:29:23 +0000";
};
width = 663;
},
{
anchors = (
{
name = bottom;
pos = (342,0);
},
{
name = top;
pos = (435,690);
}
);
layerId = master06;
shapes = (
{
closed = 1;
nodes = (
(60,81,o),
(161,-10,o),
(306,-10,c),
(392,-10,o),
(489,23,o),
(562,85,c),
(503,143,l),
(452,101,o),
(382,76,o),
(321,76,c),
(223,76,o),
(161,138,o),
(161,249,cs),
(161,445,o),
(288,610,o),
(434,610,cs),
(495,610,o),
(540,588,o),
(573,545,c),
(648,609,l),
(593,671,o),
(530,700,o),
(449,700,cs),
(239,700,o),
(60,487,o),
(60,237,cs)
);
},
{
closed = 1;
nodes = (
(557,266,l),
(574,348,l),
(380,348,l),
(363,266,l)
);
},
{
closed = 1;
nodes = (
(562,85,l),
(618,348,l),
(523,348,l),
(466,81,l)
);
}
);
userData = {
com.schriftgestaltung.Glyphs.lastChange = "2021-03-08 20:42:53 +0000";
};
width = 680;
}
);
unicode = 71;
},
{
color = 5;
glyphname = H;
kernLeft = H;
kernRight = H;
layers = (
{
anchors = (
{
name = top;
pos = (451,690);
}
);
layerId = master01;
shapes = (
{
closed = 1;
nodes = (
(172,0,l),
(319,690,l),
(159,690,l),
(12,0,l)
);
},
{
closed = 1;
nodes = (
(581,278,l),
(611,418,l),
(175,418,l),
(145,278,l)
);
},
{
closed = 1;
nodes = (
(596,0,l),
(743,690,l),
(583,690,l),
(436,0,l)
);
}
);
userData = {
com.schriftgestaltung.Glyphs.lastChange = "2021-03-02 23:46:34 +0000";
};
width = 728;
},
{
anchors = (
{
name = top;
pos = (409,690);
}
);
layerId = master02;
shapes = (
{
closed = 1;
nodes = (
(156,0,l),
(303,690,l),
(157,690,l),
(10,0,l)
);
},
{
closed = 1;
nodes = (
(502,281,l),
(530,415,l),
(164,415,l),
(136,281,l)
);
},
{
closed = 1;
nodes = (
(511,0,l),
(658,690,l),
(512,690,l),
(365,0,l)
);
}
);
userData = {
com.schriftgestaltung.Glyphs.lastChange = "2021-03-03 00:29:32 +0000";
};
width = 641;
},
{
anchors = (
{
name = top;
pos = (373,690);
}
);
layerId = master03;
shapes = (
{
closed = 1;
nodes = (
(88,0,l),
(235,690,l),
(173,690,l),
(26,0,l)
);
},
{
closed = 1;
nodes = (
(471,321,l),
(483,375,l),
(136,375,l),
(124,321,l)
);
},
{
closed = 1;
nodes = (
(433,0,l),
(580,690,l),
(518,690,l),
(371,0,l)
);
}
);
userData = {
com.schriftgestaltung.Glyphs.lastChange = "2021-03-04 10:59:49 +0000";
};
width = 578;
},
{
anchors = (
{
name = top;
pos = (377,690);
}
);
layerId = master04;
shapes = (
{
closed = 1;
nodes = (
(106,0,l),
(253,690,l),
(164,690,l),
(17,0,l)
);
},
{
closed = 1;
nodes = (
(472,308,l),
(493,388,l),
(144,388,l),
(124,308,l)
);
},
{
closed = 1;
nodes = (
(451,0,l),
(598,690,l),
(509,690,l),
(362,0,l)
);
}
);
userData = {
com.schriftgestaltung.Glyphs.lastChange = "2021-03-02 23:38:03 +0000";
};
width = 588;
},
{
anchors = (
{
name = top;
pos = (439,690);
}
);
layerId = master05;
shapes = (
{
closed = 1;
nodes = (
(106,0,l),
(253,690,l),
(191,690,l),
(44,0,l)
);
},
{
closed = 1;
nodes = (
(578,321,l),
(590,375,l),
(154,375,l),
(142,321,l)
);
},
{
closed = 1;
nodes = (
(540,0,l),
(687,690,l),
(625,690,l),
(478,0,l)
);
}
);
userData = {
com.schriftgestaltung.Glyphs.lastChange = "2021-03-03 00:29:23 +0000";
};
width = 704;
},
{
anchors = (
{
name = top;
pos = (440,690);
}
);
layerId = master06;
shapes = (
{
closed = 1;
nodes = (
(132,0,l),
(279,690,l),
(182,690,l),
(35,0,l)
);
},
{
closed = 1;
nodes = (
(582,306,l),
(600,390,l),
(164,390,l),
(146,306,l)
);
},
{
closed = 1;
nodes = (
(562,0,l),
(709,690,l),
(612,690,l),
(466,0,l)
);
}
);
userData = {
com.schriftgestaltung.Glyphs.lastChange = "2021-03-02 23:45:59 +0000";
};
width = 717;
}
);
unicode = 72;
},
{
color = 5;
glyphname = Hbar;
kernLeft = H;
kernRight = H;
layers = (
{
layerId = master01;
shapes = (
{
closed = 1;
nodes = (
(761,506,l),
(787,630,l),
(99,630,l),
(73,506,l)
);
},
{
closed = 1;
nodes = (
(177,0,l),
(324,690,l),
(164,690,l),
(17,0,l)
);
},
{
closed = 1;
nodes = (
(586,268,l),
(616,408,l),
(180,408,l),
(150,268,l)
);
},
{
closed = 1;
nodes = (
(601,0,l),
(748,690,l),
(588,690,l),
(441,0,l)
);
}
);
userData = {
com.schriftgestaltung.Glyphs.lastChange = "2021-03-02 23:46:34 +0000";
};
width = 738;
},
{
layerId = master02;
shapes = (
{
closed = 1;
nodes = (
(664,508,l),
(689,626,l),
(98,626,l),
(73,508,l)
);
},
{
closed = 1;
nodes = (
(156,0,l),
(303,690,l),
(157,690,l),
(10,0,l)
);
},
{
closed = 1;
nodes = (
(502,281,l),
(530,415,l),
(164,415,l),
(136,281,l)
);
},
{
closed = 1;
nodes = (
(511,0,l),
(658,690,l),
(512,690,l),
(365,0,l)
);
}
);
userData = {
com.schriftgestaltung.Glyphs.lastChange = "2021-03-03 00:29:32 +0000";
};
width = 641;
},
{
layerId = master03;
shapes = (
{
closed = 1;
nodes = (
(599,528,l),
(610,578,l),
(99,578,l),
(88,528,l)
);
},
{
closed = 1;
nodes = (
(110,0,l),
(257,690,l),
(195,690,l),
(48,0,l)
);
},
{
closed = 1;
nodes = (
(452,321,l),
(464,375,l),
(158,375,l),
(146,321,l)
);
},
{
closed = 1;
nodes = (
(414,0,l),
(561,690,l),
(499,690,l),
(352,0,l)
);
}
);
userData = {
com.schriftgestaltung.Glyphs.lastChange = "2021-03-04 10:59:49 +0000";
};
width = 581;
},
{
layerId = master04;
shapes = (
{
closed = 1;
nodes = (
(620,527,l),
(634,592,l),
(86,592,l),
(72,527,l)
);
},
{
closed = 1;
nodes = (
(106,0,l),
(253,690,l),
(164,690,l),
(17,0,l)
);
},
{
closed = 1;
nodes = (
(472,308,l),
(493,388,l),
(144,388,l),
(124,308,l)
);
},
{
closed = 1;
nodes = (
(451,0,l),
(598,690,l),
(509,690,l),
(362,0,l)
);
}
);
userData = {
com.schriftgestaltung.Glyphs.lastChange = "2021-03-02 23:38:03 +0000";
};
width = 588;
},
{
layerId = master05;
shapes = (
{
closed = 1;
nodes = (
(730,528,l),
(741,578,l),
(100,578,l),
(89,528,l)
);
},
{
closed = 1;
nodes = (
(111,0,l),
(258,690,l),
(196,690,l),
(49,0,l)
);
},
{
closed = 1;
nodes = (
(583,321,l),
(595,375,l),
(159,375,l),
(147,321,l)
);
},
{
closed = 1;
nodes = (
(545,0,l),
(692,690,l),
(630,690,l),
(483,0,l)
);
}
);
userData = {
com.schriftgestaltung.Glyphs.lastChange = "2021-03-03 00:29:23 +0000";
};
width = 715;
},
{
layerId = master06;
shapes = (
{
closed = 1;
nodes = (
(757,526,l),
(773,594,l),
(88,594,l),
(72,526,l)
);
},
{
closed = 1;
nodes = (
(137,0,l),
(284,690,l),
(187,690,l),
(40,0,l)
);
},
{
closed = 1;
nodes = (
(587,306,l),
(605,390,l),
(169,390,l),
(151,306,l)
);
},
{
closed = 1;
nodes = (
(567,0,l),
(714,690,l),
(617,690,l),
(471,0,l)
);
}
);
userData = {
com.schriftgestaltung.Glyphs.lastChange = "2021-03-02 23:45:59 +0000";
};
width = 727;
}
);
unicode = 294;
},
{
color = 5;
glyphname = I;
kernLeft = I;
kernRight = I;
layers = (
{
anchors = (
{
name = bottom;
pos = (160,0);
},
{
name = ogonek;
pos = (330,0);
},
{
name = top;
pos = (307,690);
}
);
layerId = master01;
shapes = (
{
closed = 1;
nodes = (
(330,0,l),
(356,120,l),
(16,120,l),
(-10,0,l)
);
},
{
closed = 1;
nodes = (
(240,0,l),
(387,690,l),
(227,690,l),
(80,0,l)
);
},
{
closed = 1;
nodes = (
(451,570,l),
(477,690,l),
(137,690,l),
(111,570,l)
);
}
);
userData = {
com.schriftgestaltung.Glyphs.lastChange = "2021-03-08 00:52:56 +0000";
};
width = 441;
},
{
anchors = (
{
name = bottom;
pos = (147,0);
},
{
name = ogonek;
pos = (293,0);
},
{
name = top;
pos = (295,690);
}
);
layerId = master02;
shapes = (
{
closed = 1;
nodes = (
(293,0,l),
(317,115,l),
(24,115,l),
(0,0,l)
);
},
{
closed = 1;
nodes = (
(219,0,l),
(366,690,l),
(221,690,l),
(74,0,l)
);
},
{
closed = 1;
nodes = (
(415,575,l),
(440,690,l),
(147,690,l),
(122,575,l)
);
}
);
userData = {
com.schriftgestaltung.Glyphs.lastChange = "2021-03-08 00:48:17 +0000";
};
width = 414;
},
{
anchors = (
{
name = bottom;
pos = (151,0);
},
{
name = ogonek;
pos = (237,0);
},
{
name = top;
pos = (280,690);
}
);
layerId = master03;
shapes = (
{
closed = 1;
nodes = (
(237,0,l),
(248,50,l),
(36,50,l),
(25,0,l)
);
},
{
closed = 1;
nodes = (
(162,0,l),
(309,690,l),
(247,690,l),
(100,0,l)
);
},
{
closed = 1;
nodes = (
(373,640,l),
(384,690,l),
(172,690,l),
(161,640,l)
);
}
);
userData = {
com.schriftgestaltung.Glyphs.lastChange = "2021-03-08 00:49:31 +0000";
};
width = 370;
},
{
anchors = (
{
name = bottom;
pos = (125,0);
},
{
name = ogonek;
pos = (248,0);
},
{
name = top;
pos = (272,690);
}
);
layerId = master04;
shapes = (
{
closed = 1;
nodes = (
(248,0,l),
(264,73,l),
(18,73,l),
(2,0,l)
);
},
{
closed = 1;
nodes = (
(170,0,l),
(317,690,l),
(228,690,l),
(81,0,l)
);
},
{
closed = 1;
nodes = (
(379,617,l),
(395,690,l),
(149,690,l),
(133,617,l)
);
}
);
userData = {
com.schriftgestaltung.Glyphs.lastChange = "2021-03-08 00:49:18 +0000";
};
width = 370;
},
{
anchors = (
{
name = bottom;
pos = (151,0);
},
{
name = ogonek;
pos = (287,0);
},
{
name = top;
pos = (298,690);
}
);
layerId = master05;
shapes = (
{
closed = 1;
nodes = (
(287,0,l),
(298,50,l),
(26,50,l),
(15,0,l)
);
},
{
closed = 1;
nodes = (
(182,0,l),
(329,690,l),
(267,690,l),
(120,0,l)
);
},
{
closed = 1;
nodes = (
(423,640,l),
(434,690,l),
(162,690,l),
(151,640,l)
);
}
);
userData = {
com.schriftgestaltung.Glyphs.lastChange = "2021-03-08 00:50:02 +0000";
};
width = 422;
},
{
anchors = (
{
name = bottom;
pos = (159,0);
},
{
name = ogonek;
pos = (307,0);
},
{
name = top;
pos = (306,690);
}
);
layerId = master06;
shapes = (
{
closed = 1;
nodes = (
(307,0,l),
(323,75,l),
(27,75,l),
(11,0,l)
);
},
{
closed = 1;
nodes = (
(208,0,l),
(354,690,l),
(257,690,l),
(111,0,l)
);
},
{
closed = 1;
nodes = (
(438,615,l),
(454,690,l),
(158,690,l),
(142,615,l)
);
}
);
userData = {
com.schriftgestaltung.Glyphs.lastChange = "2021-03-08 00:51:59 +0000";
};
width = 438;
}
);
unicode = 73;
},
{
color = 5;
glyphname = IJ;
kernLeft = H;
kernRight = U;
layers = (
{
layerId = master01;
shapes = (
{
closed = 1;
nodes = (
(172,0,l),
(319,690,l),
(159,690,l),
(12,0,l)
);
},
{
closed = 1;
nodes = (
(300,0,o),
(360,-12,o),
(428,-12,cs),
(560,-12,o),
(686,70,o),
(723,245,cs),
(818,690,l),
(658,690,l),
(567,265,ls),
(547,171,o),
(496,132,o),
(430,132,cs),
(396,132,o),
(367,143,o),
(350,157,c),
(261,26,l)
);
}
);
userData = {
com.schriftgestaltung.Glyphs.lastChange = "2021-03-02 23:46:34 +0000";
};
width = 793;
},
{
layerId = master02;
shapes = (
{
closed = 1;
nodes = (
(156,0,l),
(303,690,l),
(157,690,l),
(10,0,l)
);
},
{
closed = 1;
nodes = (
(270,4,o),
(318,-14,o),
(373,-14,cs),
(500,-14,o),
(598,63,o),
(635,237,cs),
(732,690,l),
(587,690,l),
(496,262,ls),
(475,165,o),
(436,123,o),
(379,123,cs),
(354,123,o),
(328,136,o),
(314,149,c),
(236,31,l)
);
}
);
userData = {
com.schriftgestaltung.Glyphs.lastChange = "2021-03-03 00:29:32 +0000";
};
width = 706;
},
{
layerId = master03;
shapes = (
{
closed = 1;
nodes = (
(88,0,l),
(235,690,l),
(173,690,l),
(26,0,l)
);
},
{
closed = 1;
nodes = (
(204,4,o),
(240,-8,o),
(289,-8,cs),
(400,-8,o),
(462,52,o),
(497,215,cs),
(598,690,l),
(536,690,l),
(436,220,ls),
(410,97,o),
(375,49,o),
(294,49,cs),
(255,49,o),
(236,59,o),
(214,77,c),
(176,27,l)
);
}
);
userData = {
com.schriftgestaltung.Glyphs.lastChange = "2021-03-04 11:24:20 +0000";
};
width = 586;
},
{
layerId = master04;
shapes = (
{
closed = 1;
nodes = (
(108,0,l),
(254,690,l),
(164,690,l),
(18,0,l)
);
},
{
closed = 1;
nodes = (
(220,6,o),
(260,-10,o),
(306,-10,cs),
(404,-10,o),
(492,50,o),
(526,214,cs),
(625,690,l),
(536,690,l),
(450,269,ls),
(417,106,o),
(368,75,o),
(315,75,cs),
(286,75,o),
(262,84,o),
(244,100,c),
(192,28,l)
);
}
);
userData = {
com.schriftgestaltung.Glyphs.lastChange = "2021-03-02 23:38:03 +0000";
};
width = 609;
},
{
layerId = master05;
shapes = (
{
closed = 1;
nodes = (
(93,0,l),
(240,690,l),
(178,690,l),
(31,0,l)
);
},
{
closed = 1;
nodes = (
(259,4,o),
(305,-8,o),
(354,-8,cs),
(465,-8,o),
(557,52,o),
(592,215,cs),
(693,690,l),
(631,690,l),
(531,220,ls),
(505,97,o),
(440,49,o),
(359,49,cs),
(320,49,o),
(291,59,o),
(269,77,c),
(231,27,l)
);
}
);
userData = {
com.schriftgestaltung.Glyphs.lastChange = "2021-03-03 00:29:23 +0000";
};
width = 700;
},
{
layerId = master06;
shapes = (
{
closed = 1;
nodes = (
(133,0,l),
(279,690,l),
(182,690,l),
(36,0,l)
);
},
{
closed = 1;
nodes = (
(270,4,o),
(319,-10,o),
(376,-10,cs),
(495,-10,o),
(596,58,o),
(634,236,cs),
(731,690,l),
(637,690,l),
(542,246,ls),
(516,123,o),
(453,78,o),
(378,78,cs),
(344,78,o),
(312,88,o),
(291,104,c),
(236,26,l)
);
}
);
userData = {
com.schriftgestaltung.Glyphs.lastChange = "2021-03-02 23:45:59 +0000";
};
width = 735;
}
);
unicode = 306;
},
{
color = 5;
glyphname = J;
kernLeft = J;
kernRight = U;
layers = (
{
anchors = (
{
name = top;
pos = (398,690);
}
);
layerId = master01;
shapes = (
{
closed = 1;
nodes = (
(17,16,o),
(82,-12,o),
(174,-12,c),
(306,-12,o),
(428,70,o),
(465,245,cs),
(560,690,l),
(404,690,l),
(313,265,ls),
(293,171,o),
(237,131,o),
(170,131,c),
(128,131,o),
(89,148,o),
(57,180,c),
(-34,66,l)
);
},
{
closed = 1;
nodes = (
(480,570,l),
(506,690,l),
(236,690,l),
(210,570,l)
);
}
);
userData = {
com.schriftgestaltung.Glyphs.lastChange = "2021-03-02 23:46:34 +0000";
};
width = 535;
},
{
anchors = (
{
name = top;
pos = (353,690);
}
);
layerId = master02;
shapes = (
{
closed = 1;
nodes = (
(12,15,o),
(71,-12,o),
(147,-12,c),
(265,-12,o),
(363,63,o),
(400,237,cs),
(497,690,l),
(352,690,l),
(261,262,ls),
(241,166,o),
(201,123,o),
(144,123,c),
(114,123,o),
(78,141,o),
(52,171,c),
(-35,65,l)
);
},
{
closed = 1;
nodes = (
(423,575,l),
(448,690,l),
(215,690,l),
(190,575,l)
);
}
);
userData = {
com.schriftgestaltung.Glyphs.lastChange = "2021-03-03 00:29:32 +0000";
};
width = 471;
},
{
anchors = (
{
name = top;
pos = (350,690);
}
);
layerId = master03;
shapes = (
{
closed = 1;
nodes = (
(48,20,o),
(98,-8,o),
(156,-8,cs),
(247,-8,o),
(324,52,o),
(359,215,cs),
(460,690,l),
(398,690,l),
(298,220,ls),
(274,105,o),
(215,50,o),
(161,50,cs),
(116,50,o),
(82,80,o),
(54,115,c),
(11,75,l)
);
},
{
closed = 1;
nodes = (
(423,640,l),
(434,690,l),
(243,690,l),
(232,640,l)
);
}
);
userData = {
com.schriftgestaltung.Glyphs.lastChange = "2021-03-04 11:24:20 +0000";
};
width = 438;
},
{
anchors = (
{
name = top;
pos = (349,690);
}
);
layerId = master04;
shapes = (
{
closed = 1;
nodes = (
(23,19,o),
(76,-10,o),
(134,-10,cs),
(232,-10,o),
(319,50,o),
(354,214,cs),
(456,690,l),
(368,690,l),
(278,269,ls),
(243,106,o),
(196,75,o),
(143,75,c),
(101,75,o),
(70,97,o),
(43,132,c),
(-14,67,l)
);
},
{
closed = 1;
nodes = (
(406,617,l),
(422,690,l),
(226,690,l),
(210,617,l)
);
}
);
userData = {
com.schriftgestaltung.Glyphs.lastChange = "2021-03-04 11:06:59 +0000";
};
width = 438;
},
{
anchors = (
{
name = top;
pos = (399,690);
}
);
layerId = master05;
shapes = (
{
closed = 1;
nodes = (
(47,24,o),
(105,-8,o),
(176,-8,c),
(287,-8,o),
(379,52,o),
(414,215,cs),
(515,690,l),
(453,690,l),
(353,220,ls),
(327,97,o),
(261,49,o),
(181,49,c),
(120,49,o),
(79,77,o),
(50,117,c),
(8,76,l)
);
},
{
closed = 1;
nodes = (
(478,640,l),
(489,690,l),
(273,690,l),
(262,640,l)
);
}
);
userData = {
com.schriftgestaltung.Glyphs.lastChange = "2021-03-03 00:29:23 +0000";
};
width = 522;
},
{
anchors = (
{
name = top;
pos = (407,690);
}
);
layerId = master06;
shapes = (
{
closed = 1;
nodes = (
(33,21,o),
(94,-10,o),
(172,-10,c),
(291,-10,o),
(393,58,o),
(429,226,cs),
(528,690,l),
(433,690,l),
(336,236,ls),
(312,123,o),
(249,78,o),
(174,78,c),
(120,78,o),
(80,102,o),
(49,139,c),
(-10,72,l)
);
},
{
closed = 1;
nodes = (
(476,615,l),
(492,690,l),
(257,690,l),
(241,615,l)
);
}
);
userData = {
com.schriftgestaltung.Glyphs.lastChange = "2021-03-02 23:45:59 +0000";
};
width = 532;
}
);
unicode = 74;
},
{
color = 5;
glyphname = K;
kernLeft = H;
kernRight = K;
layers = (
{
anchors = (
{
name = bottom;
pos = (305,0);
}
);
layerId = master01;
shapes = (
{
closed = 1;
nodes = (
(172,0,l),
(319,690,l),
(159,690,l),
(12,0,l)
);
},
{
closed = 1;
nodes = (
(723,690,l),
(520,690,l),
(184,326,l),
(143,116,l)
);
},
{
closed = 1;
nodes = (
(414,0,l),
(592,0,l),
(402,407,l),
(290,292,l)
);
}
);
userData = {
com.schriftgestaltung.Glyphs.lastChange = "2021-03-02 23:46:34 +0000";
};
width = 652;
},
{
anchors = (
{
name = bottom;
pos = (264,0);
}
);
layerId = master02;
shapes = (
{
closed = 1;
nodes = (
(156,0,l),
(303,690,l),
(157,690,l),
(10,0,l)
);
},
{
closed = 1;
nodes = (
(644,690,l),
(465,690,l),
(172,324,l),
(128,121,l)
);
},
{
closed = 1;
nodes = (
(351,0,l),
(510,0,l),
(362,406,l),
(259,296,l)
);
}
);
userData = {
com.schriftgestaltung.Glyphs.lastChange = "2021-03-03 00:29:32 +0000";
};
width = 568;
},
{
anchors = (
{
name = bottom;
pos = (210,0);
}
);
layerId = master03;
shapes = (
{
closed = 1;
nodes = (
(88,0,l),
(235,690,l),
(173,690,l),
(26,0,l)
);
},
{
closed = 1;
nodes = (
(555,690,l),
(483,690,l),
(126,309,l),
(108,216,l)
);
},
{
closed = 1;
nodes = (
(361,-3,l),
(424,-3,l),
(269,402,l),
(221,361,l)
);
}
);
userData = {
com.schriftgestaltung.Glyphs.lastChange = "2021-03-04 11:24:20 +0000";
};
width = 509;
},
{
anchors = (
{
name = bottom;
pos = (224,0);
}
);
layerId = master04;
shapes = (
{
closed = 1;
nodes = (
(103,0,l),
(253,690,l),
(164,690,l),
(17,0,l)
);
},
{
closed = 1;
nodes = (
(574,690,l),
(468,690,l),
(140,311,l),
(119,184,l)
);
},
{
closed = 1;
nodes = (
(345,0,l),
(440,0,l),
(302,396,l),
(236,331,l)
);
}
);
userData = {
com.schriftgestaltung.Glyphs.lastChange = "2021-03-04 11:12:10 +0000";
};
width = 509;
},
{
anchors = (
{
name = bottom;
pos = (281,0);
}
);
layerId = master05;
shapes = (
{
closed = 1;
nodes = (
(106,0,l),
(253,690,l),
(191,690,l),
(44,0,l)
);
},
{
closed = 1;
nodes = (
(645,690,l),
(562,690,l),
(163,302,l),
(146,216,l)
);
},
{
closed = 1;
nodes = (
(447,0,l),
(515,0,l),
(319,392,l),
(277,350,l)
);
}
);
userData = {
com.schriftgestaltung.Glyphs.lastChange = "2021-03-03 00:29:23 +0000";
};
width = 598;
},
{
anchors = (
{
name = bottom;
pos = (286,0);
}
);
layerId = master06;
shapes = (
{
closed = 1;
nodes = (
(132,0,l),
(279,690,l),
(182,690,l),
(35,0,l)
);
},
{
closed = 1;
nodes = (
(676,690,l),
(552,690,l),
(174,312,l),
(147,180,l)
);
},
{
closed = 1;
nodes = (
(438,0,l),
(545,0,l),
(351,397,l),
(284,329,l)
);
}
);
userData = {
com.schriftgestaltung.Glyphs.lastChange = "2021-03-02 23:45:59 +0000";
};
width = 620;
}
);
unicode = 75;
},
{
color = 5;
glyphname = L;
kernLeft = H;
kernRight = L;
layers = (
{
anchors = (
{
name = bottom;
pos = (267,0);
},
{
name = caron.alt;
pos = (457,680);
},
{
name = top;
pos = (239,690);
}
);
layerId = master01;
shapes = (
{
closed = 1;
nodes = (
(172,0,l),
(319,690,l),
(159,690,l),
(12,0,l)
);
},
{
closed = 1;
nodes = (
(482,0,l),
(512,140,l),
(116,140,l),
(86,0,l)
);
}
);
userData = {
com.schriftgestaltung.Glyphs.lastChange = "2021-03-02 23:46:34 +0000";
};
width = 562;
},
{
anchors = (
{
name = bottom;
pos = (232,0);
},
{
name = caron.alt;
pos = (414,680);
},
{
name = top;
pos = (231,690);
}
);
layerId = master02;
shapes = (
{
closed = 1;
nodes = (
(156,0,l),
(303,690,l),
(157,690,l),
(10,0,l)
);
},
{
closed = 1;
nodes = (
(417,0,l),
(445,134,l),
(107,134,l),
(79,0,l)
);
}
);
userData = {
com.schriftgestaltung.Glyphs.lastChange = "2021-03-03 00:29:32 +0000";
};
width = 507;
},
{
anchors = (
{
name = bottom;
pos = (197,0);
},
{
name = caron.alt;
pos = (380,680);
},
{
name = top;
pos = (209,690);
}
);
layerId = master03;
shapes = (
{
closed = 1;
nodes = (
(88,0,l),
(235,690,l),
(173,690,l),
(26,0,l)
);
},
{
closed = 1;
nodes = (
(340,0,l),
(351,54,l),
(67,54,l),
(56,0,l)
);
}
);
userData = {
com.schriftgestaltung.Glyphs.lastChange = "2021-03-19 05:20:21 +0000";
};
width = 444;
},
{
anchors = (
{
name = bottom;
pos = (197,0);
},
{
name = caron.alt;
pos = (380,680);
},
{
name = top;
pos = (209,690);
}
);
layerId = master04;
shapes = (
{
closed = 1;
nodes = (
(106,0,l),
(253,690,l),
(164,690,l),
(17,0,l)
);
},
{
closed = 1;
nodes = (
(361,0,l),
(378,82,l),
(80,82,l),
(60,0,l)
);
}
);
userData = {
com.schriftgestaltung.Glyphs.lastChange = "2021-03-02 23:38:03 +0000";
};
width = 454;
},
{
anchors = (
{
name = bottom;
pos = (248,0);
},
{
name = caron.alt;
pos = (435,680);
},
{
name = top;
pos = (222,690);
}
);
layerId = master05;
shapes = (
{
closed = 1;
nodes = (
(106,0,l),
(253,690,l),
(191,690,l),
(44,0,l)
);
},
{
closed = 1;
nodes = (
(426,0,l),
(437,54,l),
(85,54,l),
(74,0,l)
);
}
);
userData = {
com.schriftgestaltung.Glyphs.lastChange = "2021-03-03 00:29:23 +0000";
};
width = 528;
},
{
anchors = (
{
name = bottom;
pos = (249,0);
},
{
name = caron.alt;
pos = (444,680);
},
{
name = top;
pos = (230,690);
}
);
layerId = master06;
shapes = (
{
closed = 1;
nodes = (
(132,0,l),
(279,690,l),
(182,690,l),
(35,0,l)
);
},
{
closed = 1;
nodes = (
(448,0,l),
(466,85,l),
(99,85,l),
(81,0,l)
);
}
);
userData = {
com.schriftgestaltung.Glyphs.lastChange = "2021-03-02 23:45:59 +0000";
};
width = 538;
}
);
unicode = 76;
},
{
color = 5;
glyphname = Lslash;
kernLeft = H;
kernRight = L;
layers = (
{
layerId = master01;
shapes = (
{
closed = 1;
nodes = (
(387,360,l),
(418,510,l),
(38,320,l),
(6,170,l)
);
},
{
closed = 1;
nodes = (
(177,0,l),
(324,690,l),
(164,690,l),
(17,0,l)
);
},
{
closed = 1;
nodes = (
(487,0,l),
(517,140,l),
(121,140,l),
(91,0,l)
);
}
);
userData = {
com.schriftgestaltung.Glyphs.lastChange = "2021-03-02 23:46:34 +0000";
};
width = 567;
},
{
layerId = master02;
shapes = (
{
closed = 1;
nodes = (
(338,363,l),
(369,507,l),
(33,318,l),
(2,174,l)
);
},
{
closed = 1;
nodes = (
(156,0,l),
(303,690,l),
(157,690,l),
(10,0,l)
);
},
{
closed = 1;
nodes = (
(417,0,l),
(445,134,l),
(107,134,l),
(79,0,l)
);
}
);
userData = {
com.schriftgestaltung.Glyphs.lastChange = "2021-03-03 00:29:32 +0000";
};
width = 507;
},
{
layerId = master03;
shapes = (
{
closed = 1;
nodes = (
(309,357,l),
(322,418,l),
(56,286,l),
(43,225,l)
);
},
{
closed = 1;
nodes = (
(116,0,l),
(263,690,l),
(201,690,l),
(54,0,l)
);
},
{
closed = 1;
nodes = (
(346,0,l),
(357,54,l),
(95,54,l),
(84,0,l)
);
}
);
userData = {
com.schriftgestaltung.Glyphs.lastChange = "2021-03-04 11:24:20 +0000";
};
width = 450;
},
{
layerId = master04;
shapes = (
{
closed = 1;
nodes = (
(298,392,l),
(317,479,l),
(31,300,l),
(12,212,l)
);
},
{
closed = 1;
nodes = (
(106,0,l),
(253,690,l),
(164,690,l),
(17,0,l)
);
},
{
closed = 1;
nodes = (
(361,0,l),
(378,82,l),
(80,82,l),
(60,0,l)
);
}
);
userData = {
com.schriftgestaltung.Glyphs.lastChange = "2021-03-02 23:38:03 +0000";
};
width = 454;
},
{
layerId = master05;
shapes = (
{
closed = 1;
nodes = (
(347,376,l),
(360,437,l),
(56,286,l),
(43,225,l)
);
},
{
closed = 1;
nodes = (
(116,0,l),
(263,690,l),
(201,690,l),
(54,0,l)
);
},
{
closed = 1;
nodes = (
(436,0,l),
(447,54,l),
(95,54,l),
(84,0,l)
);
}
);
userData = {
com.schriftgestaltung.Glyphs.lastChange = "2021-03-03 00:29:23 +0000";
};
width = 538;
},
{
layerId = master06;
shapes = (
{
closed = 1;
nodes = (
(352,390,l),
(375,481,l),
(38,301,l),
(15,210,l)
);
},
{
closed = 1;
nodes = (
(137,0,l),
(284,690,l),
(187,690,l),
(40,0,l)
);
},
{
closed = 1;
nodes = (
(453,0,l),
(471,85,l),
(104,85,l),
(86,0,l)
);
}
);
userData = {
com.schriftgestaltung.Glyphs.lastChange = "2021-03-02 23:45:59 +0000";
};
width = 548;
}
);
unicode = 321;
},
{
color = 5;
glyphname = M;
kernLeft = H;
kernRight = H;
layers = (
{
layerId = master01;
shapes = (
{
closed = 1;
nodes = (
(165,0,l),
(312,690,l),
(159,690,l),
(12,0,l)
);
},
{
closed = 1;
nodes = (
(330,141,l),
(391,141,l),
(431,327,l),
(377,690,l),
(242,690,l)
);
},
{
closed = 1;
nodes = (
(440,141,l),
(763,690,l),
(612,690,l),
(415,327,l),
(375,141,l)
);
},
{
closed = 1;
nodes = (
(696,0,l),
(843,690,l),
(690,690,l),
(543,0,l)
);
}
);
userData = {
com.schriftgestaltung.Glyphs.lastChange = "2021-03-02 23:46:34 +0000";
};
width = 828;
},
{
layerId = master02;
shapes = (
{
closed = 1;
nodes = (
(149,0,l),
(296,690,l),
(157,690,l),
(10,0,l)
);
},
{
closed = 1;
nodes = (
(282,143,l),
(338,143,l),
(381,322,l),
(356,690,l),
(234,690,l)
);
},
{
closed = 1;
nodes = (
(382,143,l),
(669,690,l),
(533,690,l),
(366,322,l),
(324,143,l)
);
},
{
closed = 1;
nodes = (
(594,0,l),
(741,690,l),
(602,690,l),
(455,0,l)
);
}
);
userData = {
com.schriftgestaltung.Glyphs.lastChange = "2021-03-03 00:29:32 +0000";
};
width = 724;
},
{
layerId = master03;
shapes = (
{
closed = 1;
nodes = (
(80,0,l),
(227,690,l),
(165,690,l),
(18,0,l)
);
},
{
closed = 1;
nodes = (
(295,175,l),
(316,175,l),
(333,254,l),
(259,690,l),
(196,690,l)
);
},
{
closed = 1;
nodes = (
(339,175,l),
(655,690,l),
(584,690,l),
(327,254,l),
(310,175,l)
);
},
{
closed = 1;
nodes = (
(542,0,l),
(689,690,l),
(627,690,l),
(480,0,l)
);
}
);
userData = {
com.schriftgestaltung.Glyphs.lastChange = "2021-03-04 11:29:07 +0000";
};
width = 670;
},
{
layerId = master04;
shapes = (
{
closed = 1;
nodes = (
(104,0,l),
(251,690,l),
(164,690,l),
(17,0,l)
);
},
{
closed = 1;
nodes = (
(279,164,l),
(312,164,l),
(340,286,l),
(282,690,l),
(205,690,l)
);
},
{
closed = 1;
nodes = (
(341,164,l),
(639,690,l),
(553,690,l),
(331,286,l),
(303,164,l)
);
},
{
closed = 1;
nodes = (
(533,0,l),
(680,690,l),
(593,690,l),
(446,0,l)
);
}
);
userData = {
com.schriftgestaltung.Glyphs.lastChange = "2021-03-02 23:38:03 +0000";
};
width = 670;
},
{
layerId = master05;
shapes = (
{
closed = 1;
nodes = (
(106,0,l),
(253,690,l),
(191,690,l),
(44,0,l)
);
},
{
closed = 1;
nodes = (
(361,175,l),
(382,175,l),
(399,254,l),
(285,690,l),
(222,690,l)
);
},
{
closed = 1;
nodes = (
(405,175,l),
(761,690,l),
(690,690,l),
(393,254,l),
(376,175,l)
);
},
{
closed = 1;
nodes = (
(648,0,l),
(795,690,l),
(733,690,l),
(586,0,l)
);
}
);
userData = {
com.schriftgestaltung.Glyphs.lastChange = "2021-03-03 00:29:23 +0000";
};
width = 812;
},
{
layerId = master06;
shapes = (
{
closed = 1;
nodes = (
(129,0,l),
(276,690,l),
(182,690,l),
(35,0,l)
);
},
{
closed = 1;
nodes = (
(353,163,l),
(388,163,l),
(413,282,l),
(319,690,l),
(230,690,l)
);
},
{
closed = 1;
nodes = (
(420,163,l),
(766,690,l),
(666,690,l),
(403,282,l),
(378,163,l)
);
},
{
closed = 1;
nodes = (
(668,0,l),
(814,690,l),
(720,690,l),
(573,0,l)
);
}
);
userData = {
com.schriftgestaltung.Glyphs.lastChange = "2021-03-02 23:45:59 +0000";
};
width = 823;
}
);
unicode = 77;
},
{
color = 5;
glyphname = N;
kernLeft = H;
kernRight = H;
layers = (
{
anchors = (
{
name = bottom;
pos = (319,0);
},
{
name = top;
pos = (441,690);
}
);
layerId = master01;
shapes = (
{
closed = 1;
nodes = (
(156,0,l),
(303,690,l),
(159,690,l),
(12,0,l)
);
},
{
closed = 1;
nodes = (
(407,0,l),
(549,0,l),
(357,690,l),
(215,690,l)
);
},
{
closed = 1;
nodes = (
(594,0,l),
(741,690,l),
(597,690,l),
(450,0,l)
);
}
);
userData = {
com.schriftgestaltung.Glyphs.lastChange = "2021-03-02 23:46:34 +0000";
};
width = 726;
},
{
anchors = (
{
name = bottom;
pos = (277,0);
},
{
name = top;
pos = (396,690);
}
);
layerId = master02;
shapes = (
{
closed = 1;
nodes = (
(140,0,l),
(289,690,l),
(157,690,l),
(10,0,l)
);
},
{
closed = 1;
nodes = (
(339,0,l),
(467,0,l),
(338,690,l),
(210,690,l)
);
},
{
closed = 1;
nodes = (
(508,0,l),
(655,690,l),
(525,690,l),
(378,0,l)
);
}
);
userData = {
com.schriftgestaltung.Glyphs.lastChange = "2021-03-03 00:29:32 +0000";
};
width = 638;
},
{
anchors = (
{
name = bottom;
pos = (225,0);
},
{
name = top;
pos = (379,690);
}
);
layerId = master03;
shapes = (
{
closed = 1;
nodes = (
(78,0,l),
(225,690,l),
(163,690,l),
(16,0,l)
);
},
{
closed = 1;
nodes = (
(374,0,l),
(436,0,l),
(243,690,l),
(181,690,l)
);
},
{
closed = 1;
nodes = (
(454,0,l),
(601,690,l),
(539,690,l),
(392,0,l)
);
}
);
userData = {
com.schriftgestaltung.Glyphs.lastChange = "2021-03-04 11:30:25 +0000";
};
width = 589;
},
{
anchors = (
{
name = bottom;
pos = (234,0);
},
{
name = top;
pos = (385,690);
}
);
layerId = master04;
shapes = (
{
closed = 1;
nodes = (
(101,0,l),
(248,690,l),
(164,690,l),
(17,0,l)
);
},
{
closed = 1;
nodes = (
(346,0,l),
(426,0,l),
(275,690,l),
(194,690,l)
);
},
{
closed = 1;
nodes = (
(452,0,l),
(599,690,l),
(515,690,l),
(368,0,l)
);
}
);
userData = {
com.schriftgestaltung.Glyphs.lastChange = "2021-03-02 23:38:03 +0000";
};
width = 589;
},
{
anchors = (
{
name = bottom;
pos = (289,0);
},
{
name = top;
pos = (443,690);
}
);
layerId = master05;
shapes = (
{
closed = 1;
nodes = (
(106,0,l),
(253,690,l),
(191,690,l),
(44,0,l)
);
},
{
closed = 1;
nodes = (
(465,0,l),
(527,0,l),
(271,690,l),
(209,690,l)
);
},
{
closed = 1;
nodes = (
(545,0,l),
(692,690,l),
(630,690,l),
(483,0,l)
);
}
);
userData = {
com.schriftgestaltung.Glyphs.lastChange = "2021-03-03 00:29:23 +0000";
};
width = 709;
},
{
anchors = (
{
name = bottom;
pos = (293,0);
},
{
name = top;
pos = (457,690);
}
);
layerId = master06;
shapes = (
{
closed = 1;
nodes = (
(126,0,l),
(273,690,l),
(182,690,l),
(35,0,l)
);
},
{
closed = 1;
nodes = (
(447,0,l),
(537,0,l),
(304,690,l),
(213,690,l)
);
},
{
closed = 1;
nodes = (
(565,0,l),
(712,690,l),
(621,690,l),
(474,0,l)
);
}
);
userData = {
com.schriftgestaltung.Glyphs.lastChange = "2021-03-02 23:45:59 +0000";
};
width = 720;
}
);
unicode = 78;
},
{
color = 5;
glyphname = Nhookleft;
kernLeft = j;
kernRight = H;
layers = (
{
layerId = master01;
shapes = (
{
closed = 1;
nodes = (
(-134,-189,o),
(-102,-197,o),
(-62,-197,cs),
(51,-197,o),
(129,-132,o),
(156,0,cs),
(303,690,l),
(159,690,l),
(12,0,ls),
(1,-57,o),
(-35,-75,o),
(-73,-75,cs),
(-91,-75,o),
(-108,-71,o),
(-124,-63,c),
(-159,-179,l)
);
},
{
closed = 1;
nodes = (
(407,0,l),
(549,0,l),
(357,690,l),
(215,690,l)
);
},
{
closed = 1;
nodes = (
(594,0,l),
(741,690,l),
(597,690,l),
(450,0,l)
);
}
);
userData = {
com.schriftgestaltung.Glyphs.lastChange = "2021-03-02 23:46:34 +0000";
};
width = 726;
},
{
layerId = master02;
shapes = (
{
closed = 1;
nodes = (
(-115,-187,o),
(-82,-195,o),
(-50,-195,c),
(50,-195,o),
(111,-133,o),
(140,1,cs),
(289,690,l),
(157,690,l),
(11,5,ls),
(0,-46,o),
(-26,-71,o),
(-60,-71,c),
(-73,-71,o),
(-88,-66,o),
(-101,-59,c),
(-136,-177,l)
);
},
{
closed = 1;
nodes = (
(339,0,l),
(467,0,l),
(338,690,l),
(210,690,l)
);
},
{
closed = 1;
nodes = (
(508,0,l),
(655,690,l),
(525,690,l),
(378,0,l)
);
}
);
userData = {
com.schriftgestaltung.Glyphs.lastChange = "2021-03-03 00:29:32 +0000";
};
width = 638;
},
{
layerId = master03;
shapes = (
{
closed = 1;
nodes = (
(-116,-184,o),
(-85,-193,o),
(-56,-193,c),
(21,-193,o),
(75,-147,o),
(96,-48,c),
(253,690,l),
(191,690,l),
(34,-47,ls),
(19,-116,o),
(-15,-140,o),
(-59,-140,c),
(-78,-140,o),
(-99,-134,o),
(-114,-127,c),
(-136,-173,l)
);
},
{
closed = 1;
nodes = (
(365,0,l),
(427,0,l),
(271,690,l),
(209,690,l)
);
},
{
closed = 1;
nodes = (
(445,0,l),
(592,690,l),
(530,690,l),
(383,0,l)
);
}
);
userData = {
com.schriftgestaltung.Glyphs.lastChange = "2021-03-04 11:38:59 +0000";
};
width = 590;
},
{
layerId = master04;
shapes = (
{
closed = 1;
nodes = (
(-114,-186,o),
(-88,-195,o),
(-59,-195,cs),
(21,-195,o),
(74,-155,o),
(100,-34,cs),
(253,690,l),
(169,690,l),
(15,-32,ls),
(1,-97,o),
(-26,-120,o),
(-62,-120,cs),
(-77,-120,o),
(-94,-115,o),
(-106,-107,c),
(-132,-175,l)
);
},
{
closed = 1;
nodes = (
(351,0,l),
(431,0,l),
(280,690,l),
(199,690,l)
);
},
{
closed = 1;
nodes = (
(457,0,l),
(604,690,l),
(520,690,l),
(373,0,l)
);
}
);
userData = {
com.schriftgestaltung.Glyphs.lastChange = "2021-03-02 23:38:03 +0000";
};
width = 594;
},
{
layerId = master05;
shapes = (
{
closed = 1;
nodes = (
(-116,-184,o),
(-85,-193,o),
(-56,-193,c),
(21,-193,o),
(75,-147,o),
(96,-48,c),
(253,690,l),
(191,690,l),
(34,-47,ls),
(19,-116,o),
(-15,-140,o),
(-59,-140,c),
(-78,-140,o),
(-99,-134,o),
(-114,-127,c),
(-136,-173,l)
);
},
{
closed = 1;
nodes = (
(465,0,l),
(527,0,l),
(271,690,l),
(209,690,l)
);
},
{
closed = 1;
nodes = (
(545,0,l),
(692,690,l),
(630,690,l),
(483,0,l)
);
}
);
userData = {
com.schriftgestaltung.Glyphs.lastChange = "2021-03-03 00:29:23 +0000";
};
width = 709;
},
{
layerId = master06;
shapes = (
{
closed = 1;
nodes = (
(-120,-186,o),
(-90,-195,o),
(-57,-195,c),
(33,-195,o),
(93,-153,o),
(119,-32,cs),
(273,690,l),
(182,690,l),
(29,-30,ls),
(15,-94,o),
(-17,-117,o),
(-61,-117,c),
(-80,-117,o),
(-100,-112,o),
(-115,-104,c),
(-141,-175,l)
);
},
{
closed = 1;
nodes = (
(447,0,l),
(537,0,l),
(304,690,l),
(213,690,l)
);
},
{
closed = 1;
nodes = (
(565,0,l),
(712,690,l),
(621,690,l),
(474,0,l)
);
}
);
userData = {
com.schriftgestaltung.Glyphs.lastChange = "2021-03-02 23:45:59 +0000";
};
width = 720;
}
);
unicode = 413;
},
{
color = 5;
glyphname = Eng;
kernLeft = H;
kernRight = H;
layers = (
{
layerId = master01;
shapes = (
{
closed = 1;
nodes = (
(156,0,l),
(303,690,l),
(159,690,l),
(12,0,l)
);
},
{
closed = 1;
nodes = (
(450,0,l),
(592,0,l),
(357,690,l),
(215,690,l)
);
},
{
closed = 1;
nodes = (
(304,-189,o),
(336,-197,o),
(376,-197,cs),
(489,-197,o),
(566,-132,o),
(594,0,cs),
(741,690,l),
(597,690,l),
(450,0,ls),
(438,-57,o),
(403,-75,o),
(365,-75,cs),
(347,-75,o),
(330,-71,o),
(314,-63,c),
(279,-179,l)
);
}
);
userData = {
com.schriftgestaltung.Glyphs.lastChange = "2021-03-02 23:46:34 +0000";
};
width = 726;
},
{
layerId = master02;
shapes = (
{
closed = 1;
nodes = (
(140,0,l),
(289,690,l),
(157,690,l),
(10,0,l)
);
},
{
closed = 1;
nodes = (
(378,0,l),
(506,0,l),
(338,690,l),
(210,690,l)
);
},
{
closed = 1;
nodes = (
(253,-189,o),
(286,-197,o),
(318,-197,c),
(418,-197,o),
(479,-133,o),
(508,1,cs),
(655,690,l),
(525,690,l),
(379,5,ls),
(368,-46,o),
(342,-73,o),
(308,-73,c),
(295,-73,o),
(280,-68,o),
(267,-61,c),
(232,-179,l)
);
}
);
userData = {
com.schriftgestaltung.Glyphs.lastChange = "2021-03-03 00:29:32 +0000";
};
width = 638;
},
{
layerId = master03;
shapes = (
{
closed = 1;
nodes = (
(96,0,l),
(243,690,l),
(181,690,l),
(34,0,l)
);
},
{
closed = 1;
nodes = (
(383,0,l),
(445,0,l),
(261,690,l),
(199,690,l)
);
},
{
closed = 1;
nodes = (
(223,-184,o),
(254,-193,o),
(283,-193,c),
(360,-193,o),
(414,-147,o),
(435,-48,cs),
(592,690,l),
(530,690,l),
(373,-47,ls),
(358,-116,o),
(324,-140,o),
(280,-140,c),
(261,-140,o),
(240,-134,o),
(225,-127,c),
(203,-173,l)
);
}
);
userData = {
com.schriftgestaltung.Glyphs.lastChange = "2021-03-04 11:51:41 +0000";
};
width = 590;
},
{
layerId = master04;
shapes = (
{
closed = 1;
nodes = (
(101,0,l),
(248,690,l),
(164,690,l),
(17,0,l)
);
},
{
closed = 1;
nodes = (
(369,0,l),
(449,0,l),
(275,690,l),
(194,690,l)
);
},
{
closed = 1;
nodes = (
(232,-186,o),
(258,-195,o),
(287,-195,cs),
(367,-195,o),
(420,-155,o),
(446,-34,cs),
(599,690,l),
(515,690,l),
(361,-32,ls),
(347,-97,o),
(320,-120,o),
(284,-120,cs),
(269,-120,o),
(252,-115,o),
(240,-107,c),
(214,-175,l)
);
}
);
userData = {
com.schriftgestaltung.Glyphs.lastChange = "2021-03-04 11:38:38 +0000";
};
width = 590;
},
{
layerId = master05;
shapes = (
{
closed = 1;
nodes = (
(106,0,l),
(253,690,l),
(191,690,l),
(44,0,l)
);
},
{
closed = 1;
nodes = (
(483,0,l),
(545,0,l),
(271,690,l),
(209,690,l)
);
},
{
closed = 1;
nodes = (
(323,-184,o),
(354,-193,o),
(383,-193,c),
(460,-193,o),
(514,-147,o),
(535,-48,cs),
(692,690,l),
(630,690,l),
(473,-47,ls),
(458,-116,o),
(424,-140,o),
(380,-140,c),
(361,-140,o),
(340,-134,o),
(325,-127,c),
(303,-173,l)
);
}
);
userData = {
com.schriftgestaltung.Glyphs.lastChange = "2021-03-03 00:29:23 +0000";
};
width = 709;
},
{
layerId = master06;
shapes = (
{
closed = 1;
nodes = (
(126,0,l),
(273,690,l),
(182,690,l),
(35,0,l)
);
},
{
closed = 1;
nodes = (
(475,0,l),
(564,0,l),
(304,690,l),
(213,690,l)
);
},
{
closed = 1;
nodes = (
(319,-186,o),
(349,-195,o),
(382,-195,c),
(472,-195,o),
(532,-153,o),
(558,-32,cs),
(712,690,l),
(621,690,l),
(468,-30,ls),
(454,-94,o),
(422,-117,o),
(378,-117,c),
(359,-117,o),
(339,-112,o),
(324,-104,c),
(298,-175,l)
);
}
);
userData = {
com.schriftgestaltung.Glyphs.lastChange = "2021-03-02 23:45:59 +0000";
};
width = 720;
}
);
unicode = 330;
},
{
color = 5;
glyphname = O;
kernLeft = O;
kernRight = O;
layers = (
{
anchors = (
{
name = bottom;
pos = (307,0);
},
{
name = horn;
pos = (576,690);
},
{
name = ogonek;
pos = (360,0);
},
{
name = top;
pos = (454,690);
}
);
layerId = master01;
shapes = (
{
closed = 1;
nodes = (
(46,85,o),
(152,-12,o),
(305,-12,c),
(527,-12,o),
(714,193,o),
(715,439,cs),
(714,605,o),
(608,702,o),
(456,702,c),
(233,702,o),
(46,497,o),
(46,251,cs)
);
},
{
closed = 1;
nodes = (
(211,436,o),
(313,559,o),
(425,559,c),
(500,559,o),
(550,513,o),
(550,418,cs),
(550,254,o),
(447,131,o),
(336,131,c),
(260,131,o),
(211,177,o),
(211,272,cs)
);
}
);
userData = {
com.schriftgestaltung.Glyphs.lastChange = "2021-03-08 22:10:05 +0000";
};
width = 734;
},
{
anchors = (
{
name = bottom;
pos = (255,0);
},
{
name = horn;
pos = (488,690);
},
{
name = ogonek;
pos = (295,0);
},
{
name = top;
pos = (401,690);
}
);
layerId = master02;
shapes = (
{
closed = 1;
nodes = (
(42,91,o),
(127,-12,o),
(254,-12,c),
(444,-12,o),
(612,187,o),
(612,448,c),
(612,599,o),
(527,702,o),
(401,702,c),
(210,702,o),
(42,503,o),
(42,243,c)
);
},
{
closed = 1;
nodes = (
(193,444,o),
(282,565,o),
(373,565,c),
(428,565,o),
(461,520,o),
(461,433,c),
(461,246,o),
(371,125,o),
(281,125,c),
(225,125,o),
(193,170,o),
(193,258,c)
);
}
);
userData = {
com.schriftgestaltung.Glyphs.lastChange = "2021-03-08 21:43:41 +0000";
};
width = 627;
},
{
anchors = (
{
name = bottom;
pos = (251,0);
},
{
name = horn;
pos = (469,690);
},
{
name = ogonek;
pos = (276,0);
},
{
name = top;
pos = (374,690);
}
);
layerId = master03;
shapes = (
{
closed = 1;
nodes = (
(57,82,o),
(132,-8,o),
(246,-8,cs),
(431,-8,o),
(557,208,o),
(557,451,cs),
(557,602,o),
(480,698,o),
(362,698,cs),
(187,698,o),
(57,492,o),
(57,239,cs)
);
},
{
closed = 1;
nodes = (
(122,462,o),
(219,641,o),
(355,641,cs),
(439,641,o),
(492,561,o),
(492,444,cs),
(492,238,o),
(399,49,o),
(253,49,cs),
(182,49,o),
(122,123,o),
(122,246,cs)
);
}
);
userData = {
com.schriftgestaltung.Glyphs.lastChange = "2021-03-08 21:27:51 +0000";
};
width = 585;
},
{
anchors = (
{
name = bottom;
pos = (227,0);
},
{
name = horn;
pos = (459,690);
},
{
name = ogonek;
pos = (282,0);
},
{
name = top;
pos = (378,690);
}
);
layerId = master04;
shapes = (
{
closed = 1;
nodes = (
(49,79,o),
(120,-10,o),
(237,-10,cs),
(415,-10,o),
(563,204,o),
(563,459,cs),
(563,611,o),
(491,700,o),
(376,700,cs),
(196,700,o),
(49,485,o),
(49,231,cs)
);
},
{
closed = 1;
nodes = (
(144,443,o),
(253,615,o),
(365,615,cs),
(432,615,o),
(469,555,o),
(469,447,cs),
(469,243,o),
(360,75,o),
(247,75,cs),
(180,75,o),
(144,135,o),
(144,243,cs)
);
}
);
userData = {
com.schriftgestaltung.Glyphs.lastChange = "2021-03-08 21:32:11 +0000";
};
width = 585;
},
{
anchors = (
{
name = bottom;
pos = (286,0);
},
{
name = horn;
pos = (553,690);
},
{
name = ogonek;
pos = (340,0);
},
{
name = top;
pos = (442,690);
}
);
layerId = master05;
shapes = (
{
closed = 1;
nodes = (
(67,76,o),
(159,-8,o),
(285,-8,c),
(480,-8,o),
(657,208,o),
(657,461,c),
(657,614,o),
(566,698,o),
(439,698,c),
(244,698,o),
(67,482,o),
(67,229,c)
);
},
{
closed = 1;
nodes = (
(132,452,o),
(276,641,o),
(432,641,c),
(529,641,o),
(592,575,o),
(592,454,c),
(592,238,o),
(448,49,o),
(292,49,c),
(195,49,o),
(132,115,o),
(132,236,c)
);
}
);
userData = {
com.schriftgestaltung.Glyphs.lastChange = "2021-03-08 21:45:54 +0000";
};
width = 697;
},
{
anchors = (
{
name = bottom;
pos = (286,0);
},
{
name = horn;
pos = (556,690);
},
{
name = ogonek;
pos = (360,0);
},
{
name = top;
pos = (441,690);
}
);
layerId = master06;
shapes = (
{
closed = 1;
nodes = (
(60,79,o),
(157,-10,o),
(293,-10,c),
(497,-10,o),
(678,203,o),
(678,453,c),
(678,611,o),
(581,700,o),
(446,700,c),
(241,700,o),
(60,487,o),
(60,237,c)
);
},
{
closed = 1;
nodes = (
(161,446,o),
(290,612,o),
(430,612,c),
(519,612,o),
(577,553,o),
(578,441,c),
(577,244,o),
(448,78,o),
(308,78,c),
(219,78,o),
(161,137,o),
(161,249,c)
);
}
);
userData = {
com.schriftgestaltung.Glyphs.lastChange = "2021-03-08 22:08:12 +0000";
};
width = 711;
}
);
unicode = 79;
},
{
color = 5;
glyphname = Oslash;
kernLeft = O;
kernRight = O;
layers = (
{
anchors = (
{
name = top;
pos = (454,690);
}
);
layerId = master01;
shapes = (
{
closed = 1;
nodes = (
(46,85,o),
(152,-12,o),
(305,-12,c),
(527,-12,o),
(714,193,o),
(715,439,cs),
(714,605,o),
(608,702,o),
(456,702,c),
(233,702,o),
(46,497,o),
(46,251,cs)
);
},
{
closed = 1;
nodes = (
(211,436,o),
(313,559,o),
(425,559,c),
(500,559,o),
(550,513,o),
(550,418,cs),
(550,254,o),
(447,131,o),
(336,131,c),
(260,131,o),
(211,177,o),
(211,272,cs)
);
},
{
closed = 1;
nodes = (
(52,-12,l),
(781,615,l),
(708,702,l),
(-20,75,l)
);
}
);
userData = {
com.schriftgestaltung.Glyphs.lastChange = "2021-03-02 23:46:34 +0000";
};
width = 734;
},
{
anchors = (
{
name = top;
pos = (398,690);
}
);
layerId = master02;
shapes = (
{
closed = 1;
nodes = (
(42,91,o),
(127,-12,o),
(254,-12,c),
(444,-12,o),
(612,187,o),
(612,448,c),
(612,599,o),
(527,702,o),
(401,702,c),
(210,702,o),
(42,503,o),
(42,243,c)
);
},
{
closed = 1;
nodes = (
(193,444,o),
(282,565,o),
(373,565,c),
(428,565,o),
(461,520,o),
(461,433,c),
(461,246,o),
(371,125,o),
(281,125,c),
(225,125,o),
(193,170,o),
(193,258,c)
);
},
{
closed = 1;
nodes = (
(41,-10,l),
(679,623,l),
(612,702,l),
(-25,69,l)
);
}
);
userData = {
com.schriftgestaltung.Glyphs.lastChange = "2021-03-03 00:29:32 +0000";
};
width = 627;
},
{
anchors = (
{
name = top;
pos = (424,690);
}
);
layerId = master03;
shapes = (
{
closed = 1;
nodes = (
(68,76,o),
(150,-8,o),
(246,-8,cs),
(441,-8,o),
(568,208,o),
(568,461,cs),
(568,614,o),
(496,698,o),
(400,698,cs),
(205,698,o),
(68,482,o),
(68,229,cs)
);
},
{
closed = 1;
nodes = (
(133,452,o),
(237,641,o),
(393,641,cs),
(460,641,o),
(503,575,o),
(503,454,c),
(503,238,o),
(409,49,o),
(253,49,cs),
(186,49,o),
(133,115,o),
(133,236,c)
);
},
{
closed = 1;
nodes = (
(18,-10,l),
(646,662,l),
(610,701,l),
(-18,29,l)
);
}
);
userData = {
com.schriftgestaltung.Glyphs.lastChange = "2021-03-05 00:02:20 +0000";
};
width = 599;
},
{
anchors = (
{
name = top;
pos = (371,690);
}
);
layerId = master04;
shapes = (
{
closed = 1;
nodes = (
(49,79,o),
(120,-10,o),
(237,-10,cs),
(415,-10,o),
(563,204,o),
(563,459,cs),
(563,611,o),
(491,700,o),
(376,700,cs),
(196,700,o),
(49,485,o),
(49,231,cs)
);
},
{
closed = 1;
nodes = (
(144,443,o),
(253,615,o),
(365,615,cs),
(432,615,o),
(469,555,o),
(469,447,c),
(469,243,o),
(360,75,o),
(247,75,cs),
(180,75,o),
(144,135,o),
(144,243,c)
);
},
{
closed = 1;
nodes = (
(33,-10,l),
(627,649,l),
(579,700,l),
(-15,41,l)
);
}
);
userData = {
com.schriftgestaltung.Glyphs.lastChange = "2021-03-05 00:02:19 +0000";
};
width = 585;
},
{
anchors = (
{
name = top;
pos = (433,690);
}
);
layerId = master05;
shapes = (
{
closed = 1;
nodes = (
(67,76,o),
(159,-8,o),
(285,-8,c),
(480,-8,o),
(657,208,o),
(657,461,c),
(657,614,o),
(565,698,o),
(439,698,c),
(244,698,o),
(67,482,o),
(67,229,c)
);
},
{
closed = 1;
nodes = (
(132,452,o),
(276,641,o),
(432,641,c),
(529,641,o),
(592,575,o),
(592,454,c),
(592,238,o),
(448,49,o),
(292,49,c),
(195,49,o),
(132,115,o),
(132,236,c)
);
},
{
closed = 1;
nodes = (
(17,-10,l),
(743,659,l),
(707,698,l),
(-19,29,l)
);
}
);
userData = {
com.schriftgestaltung.Glyphs.lastChange = "2021-03-03 00:29:23 +0000";
};
width = 697;
},
{
anchors = (
{
name = top;
pos = (441,690);
}
);
layerId = master06;
shapes = (
{
closed = 1;
nodes = (
(60,79,o),
(157,-10,o),
(293,-10,c),
(497,-10,o),
(678,203,o),
(678,453,c),
(678,611,o),
(581,700,o),
(446,700,c),
(241,700,o),
(60,487,o),
(60,237,c)
);
},
{
closed = 1;
nodes = (
(161,446,o),
(290,612,o),
(430,612,c),
(519,612,o),
(577,553,o),
(578,441,c),
(577,244,o),
(448,78,o),
(308,78,c),
(219,78,o),
(161,137,o),
(161,249,c)
);
},
{
closed = 1;
nodes = (
(37,-10,l),
(749,647,l),
(701,700,l),
(-11,43,l)
);
}
);
userData = {
com.schriftgestaltung.Glyphs.lastChange = "2021-03-02 23:45:59 +0000";
};
width = 711;
}
);
unicode = 216;
},
{
color = 5;
glyphname = OE;
kernLeft = O;
kernRight = E;
layers = (
{
layerId = master01;
shapes = (
{
closed = 1;
nodes = (
(52,98,o),
(187,0,o),
(359,0,cs),
(445,0,l),
(475,140,l),
(385,140,ls),
(284,140,o),
(217,182,o),
(217,305,c),
(217,432,o),
(322,550,o),
(476,550,cs),
(562,550,l),
(592,690,l),
(502,690,ls),
(236,690,o),
(52,517,o),
(52,283,c)
);
},
{
closed = 1;
nodes = (
(583,0,l),
(730,690,l),
(570,690,l),
(423,0,l)
);
},
{
closed = 1;
nodes = (
(883,0,l),
(913,140,l),
(527,140,l),
(497,0,l)
);
},
{
closed = 1;
nodes = (
(891,282,l),
(919,414,l),
(585,414,l),
(557,282,l)
);
},
{
closed = 1;
nodes = (
(995,550,l),
(1025,690,l),
(644,690,l),
(614,550,l)
);
}
);
userData = {
com.schriftgestaltung.Glyphs.lastChange = "2021-03-02 23:46:34 +0000";
};
width = 988;
},
{
layerId = master02;
shapes = (
{
closed = 1;
nodes = (
(47,96,o),
(149,0,o),
(296,0,cs),
(368,0,l),
(400,134,l),
(324,134,ls),
(243,134,o),
(198,178,o),
(198,301,cs),
(198,434,o),
(289,556,o),
(412,556,cs),
(484,556,l),
(516,690,l),
(441,690,ls),
(215,690,o),
(47,516,o),
(47,281,cs)
);
},
{
closed = 1;
nodes = (
(495,0,l),
(642,690,l),
(496,690,l),
(349,0,l)
);
},
{
closed = 1;
nodes = (
(751,0,l),
(779,134,l),
(428,134,l),
(396,0,l)
);
},
{
closed = 1;
nodes = (
(767,285,l),
(793,411,l),
(486,411,l),
(456,285,l)
);
},
{
closed = 1;
nodes = (
(864,556,l),
(893,690,l),
(544,690,l),
(515,556,l)
);
}
);
userData = {
com.schriftgestaltung.Glyphs.lastChange = "2021-03-03 00:29:32 +0000";
};
width = 856;
},
{
layerId = master03;
shapes = (
{
closed = 1;
nodes = (
(62,97,o),
(148,0,o),
(298,0,cs),
(363,0,l),
(374,54,l),
(309,54,ls),
(182,54,o),
(127,140,o),
(127,256,cs),
(127,437,o),
(222,636,o),
(429,636,cs),
(498,636,l),
(510,690,l),
(441,690,ls),
(193,690,o),
(62,485,o),
(62,252,cs)
);
},
{
closed = 1;
nodes = (
(412,0,l),
(559,690,l),
(497,690,l),
(350,0,l)
);
},
{
closed = 1;
nodes = (
(656,0,l),
(667,54,l),
(391,54,l),
(380,0,l)
);
},
{
closed = 1;
nodes = (
(673,322,l),
(684,374,l),
(459,374,l),
(448,322,l)
);
},
{
closed = 1;
nodes = (
(786,636,l),
(798,690,l),
(527,690,l),
(515,636,l)
);
}
);
userData = {
com.schriftgestaltung.Glyphs.lastChange = "2021-03-04 11:53:00 +0000";
};
width = 780;
},
{
layerId = master04;
shapes = (
{
closed = 1;
nodes = (
(51,90,o),
(141,0,o),
(271,0,cs),
(339,0,l),
(359,82,l),
(289,82,ls),
(198,82,o),
(146,147,o),
(146,261,cs),
(146,443,o),
(254,608,o),
(400,608,cs),
(465,608,l),
(485,690,l),
(414,690,ls),
(208,690,o),
(51,501,o),
(51,252,cs)
);
},
{
closed = 1;
nodes = (
(414,0,l),
(561,690,l),
(472,690,l),
(325,0,l)
);
},
{
closed = 1;
nodes = (
(670,0,l),
(687,82,l),
(387,82,l),
(367,0,l)
);
},
{
closed = 1;
nodes = (
(692,309,l),
(708,387,l),
(450,387,l),
(431,309,l)
);
},
{
closed = 1;
nodes = (
(791,608,l),
(809,690,l),
(513,690,l),
(493,608,l)
);
}
);
userData = {
com.schriftgestaltung.Glyphs.lastChange = "2021-03-02 23:38:03 +0000";
};
width = 785;
},
{
layerId = master05;
shapes = (
{
closed = 1;
nodes = (
(72,77,o),
(188,0,o),
(338,0,cs),
(423,0,l),
(434,54,l),
(349,54,ls),
(222,54,o),
(137,120,o),
(137,256,cs),
(137,457,o),
(262,636,o),
(469,636,cs),
(558,636,l),
(570,690,l),
(481,690,ls),
(233,690,o),
(72,505,o),
(72,252,cs)
);
},
{
closed = 1;
nodes = (
(472,0,l),
(619,690,l),
(557,690,l),
(410,0,l)
);
},
{
closed = 1;
nodes = (
(806,0,l),
(817,54,l),
(451,54,l),
(440,0,l)
);
},
{
closed = 1;
nodes = (
(823,322,l),
(834,374,l),
(519,374,l),
(508,322,l)
);
},
{
closed = 1;
nodes = (
(936,636,l),
(948,690,l),
(587,690,l),
(575,636,l)
);
}
);
userData = {
com.schriftgestaltung.Glyphs.lastChange = "2021-03-03 00:29:23 +0000";
};
width = 932;
},
{
layerId = master06;
shapes = (
{
closed = 1;
nodes = (
(65,84,o),
(188,0,o),
(346,0,cs),
(431,0,l),
(449,85,l),
(362,85,ls),
(244,85,o),
(166,142,o),
(166,273,cs),
(166,448,o),
(284,605,o),
(472,605,cs),
(560,605,l),
(578,690,l),
(489,690,ls),
(234,690,o),
(65,509,o),
(65,263,cs)
);
},
{
closed = 1;
nodes = (
(512,0,l),
(659,690,l),
(562,690,l),
(415,0,l)
);
},
{
closed = 1;
nodes = (
(834,0,l),
(851,85,l),
(478,85,l),
(460,0,l)
);
},
{
closed = 1;
nodes = (
(847,308,l),
(864,388,l),
(543,388,l),
(526,308,l)
);
},
{
closed = 1;
nodes = (
(957,605,l),
(976,690,l),
(607,690,l),
(589,605,l)
);
}
);
userData = {
com.schriftgestaltung.Glyphs.lastChange = "2021-03-02 23:45:59 +0000";
};
width = 960;
}
);
unicode = 338;
},
{
color = 5;
glyphname = P;
kernLeft = H;
layers = (
{
layerId = master01;
shapes = (
{
closed = 1;
nodes = (
(172,0,l),
(319,690,l),
(159,690,l),
(12,0,l)
);
},
{
closed = 1;
nodes = (
(298,190,ls),
(497,190,o),
(631,312,o),
(631,476,c),
(631,605,o),
(536,690,o),
(395,690,cs),
(233,690,l),
(203,552,l),
(356,552,ls),
(431,552,o),
(467,518,o),
(467,461,c),
(467,383,o),
(407,328,o),
(305,328,cs),
(156,328,l),
(126,190,l)
);
}
);
userData = {
com.schriftgestaltung.Glyphs.lastChange = "2021-03-02 23:46:34 +0000";
};
width = 626;
},
{
layerId = master02;
shapes = (
{
closed = 1;
nodes = (
(156,0,l),
(303,690,l),
(157,690,l),
(10,0,l)
);
},
{
closed = 1;
nodes = (
(262,194,ls),
(432,194,o),
(555,315,o),
(555,482,c),
(555,609,o),
(477,690,o),
(353,690,cs),
(225,690,l),
(193,558,l),
(321,558,ls),
(381,558,o),
(406,523,o),
(406,468,c),
(406,383,o),
(354,326,o),
(273,326,cs),
(148,326,l),
(116,194,l)
);
}
);
userData = {
com.schriftgestaltung.Glyphs.lastChange = "2021-03-03 00:29:32 +0000";
};
width = 551;
},
{
layerId = master03;
shapes = (
{
closed = 1;
nodes = (
(83,0,l),
(230,690,l),
(168,690,l),
(21,0,l)
);
},
{
closed = 1;
nodes = (
(199,250,ls),
(378,250,o),
(484,360,o),
(484,509,cs),
(484,616,o),
(412,690,o),
(293,690,cs),
(198,690,l),
(186,636,l),
(281,636,ls),
(379,636,o),
(419,587,o),
(419,503,cs),
(419,388,o),
(348,304,o),
(206,304,cs),
(116,304,l),
(104,250,l)
);
}
);
userData = {
com.schriftgestaltung.Glyphs.lastChange = "2021-03-04 11:58:56 +0000";
};
width = 487;
},
{
layerId = master04;
shapes = (
{
closed = 1;
nodes = (
(106,0,l),
(253,690,l),
(164,690,l),
(17,0,l)
);
},
{
closed = 1;
nodes = (
(219,231,l),
(401,231,o),
(506,361,o),
(506,512,c),
(506,609,o),
(443,690,o),
(315,690,c),
(206,690,l),
(185,608,l),
(290,608,l),
(379,608,o),
(412,571,o),
(412,502,c),
(412,411,o),
(362,312,o),
(228,312,c),
(127,312,l),
(106,231,l)
);
}
);
userData = {
com.schriftgestaltung.Glyphs.lastChange = "2021-03-02 23:38:03 +0000";
};
width = 502;
},
{
layerId = master05;
shapes = (
{
closed = 1;
nodes = (
(106,0,l),
(253,690,l),
(191,690,l),
(44,0,l)
);
},
{
closed = 1;
nodes = (
(286,250,ls),
(465,250,o),
(591,360,o),
(591,509,cs),
(591,616,o),
(499,690,o),
(380,690,cs),
(221,690,l),
(209,636,l),
(368,636,ls),
(466,636,o),
(526,587,o),
(526,503,c),
(526,388,o),
(435,304,o),
(293,304,cs),
(139,304,l),
(127,250,l)
);
}
);
userData = {
com.schriftgestaltung.Glyphs.lastChange = "2021-03-03 00:29:23 +0000";
};
width = 599;
},
{
layerId = master06;
shapes = (
{
closed = 1;
nodes = (
(132,0,l),
(279,690,l),
(182,690,l),
(35,0,l)
);
},
{
closed = 1;
nodes = (
(293,229,ls),
(479,229,o),
(608,343,o),
(608,497,cs),
(608,612,o),
(515,690,o),
(388,690,cs),
(228,690,l),
(209,605,l),
(366,605,ls),
(456,605,o),
(507,563,o),
(507,488,c),
(507,386,o),
(428,313,o),
(300,313,cs),
(148,313,l),
(129,229,l)
);
}
);
userData = {
com.schriftgestaltung.Glyphs.lastChange = "2021-03-02 23:45:59 +0000";
};
width = 613;
}
);
unicode = 80;
},
{
color = 5;
glyphname = Thorn;
kernLeft = H;
layers = (
{
layerId = master01;
shapes = (
{
closed = 1;
nodes = (
(172,0,l),
(319,690,l),
(159,690,l),
(12,0,l)
);
},
{
closed = 1;
nodes = (
(295,100,ls),
(494,100,o),
(621,197,o),
(621,398,cs),
(621,515,o),
(534,590,o),
(399,590,cs),
(211,590,l),
(182,450,l),
(363,450,ls),
(424,450,o),
(454,424,o),
(454,372,cs),
(454,295,o),
(403,240,o),
(318,240,cs),
(137,240,l),
(107,100,l)
);
}
);
userData = {
com.schriftgestaltung.Glyphs.lastChange = "2021-03-02 23:46:34 +0000";
};
width = 636;
},
{
layerId = master02;
shapes = (
{
closed = 1;
nodes = (
(156,0,l),
(303,690,l),
(157,690,l),
(10,0,l)
);
},
{
closed = 1;
nodes = (
(246,104,ls),
(416,104,o),
(539,221,o),
(539,385,cs),
(539,509,o),
(461,586,o),
(337,586,c),
(209,586,l),
(177,454,l),
(305,454,ls),
(365,454,o),
(390,423,o),
(390,371,cs),
(390,289,o),
(338,236,o),
(257,236,c),
(132,236,l),
(100,104,l)
);
}
);
userData = {
com.schriftgestaltung.Glyphs.lastChange = "2021-03-03 00:29:32 +0000";
};
width = 555;
},
{
layerId = master03;
shapes = (
{
closed = 1;
nodes = (
(106,0,l),
(253,690,l),
(191,690,l),
(44,0,l)
);
},
{
closed = 1;
nodes = (
(192,150,ls),
(352,150,o),
(455,239,o),
(455,389,cs),
(455,488,o),
(378,540,o),
(273,540,cs),
(189,540,l),
(177,486,l),
(261,486,ls),
(344,486,o),
(390,452,o),
(390,380,cs),
(390,278,o),
(316,204,o),
(200,204,cs),
(117,204,l),
(106,150,l)
);
}
);
userData = {
com.schriftgestaltung.Glyphs.lastChange = "2021-03-08 22:17:47 +0000";
};
width = 483;
},
{
layerId = master04;
shapes = (
{
closed = 1;
nodes = (
(106,0,l),
(253,690,l),
(164,690,l),
(17,0,l)
);
},
{
closed = 1;
nodes = (
(237,134,ls),
(378,134,o),
(490,225,o),
(490,392,cs),
(490,488,o),
(426,556,o),
(330,556,cs),
(179,556,l),
(159,474,l),
(307,474,ls),
(364,474,o),
(397,435,o),
(397,378,cs),
(397,277,o),
(330,216,o),
(253,216,cs),
(106,216,l),
(86,134,l)
);
}
);
userData = {
com.schriftgestaltung.Glyphs.lastChange = "2021-03-02 23:38:03 +0000";
};
width = 502;
},
{
layerId = master05;
shapes = (
{
closed = 1;
nodes = (
(106,0,l),
(253,690,l),
(191,690,l),
(44,0,l)
);
},
{
closed = 1;
nodes = (
(310,150,ls),
(470,150,o),
(573,239,o),
(573,389,cs),
(573,488,o),
(496,540,o),
(391,540,cs),
(189,540,l),
(177,486,l),
(379,486,ls),
(462,486,o),
(508,452,o),
(508,380,cs),
(508,278,o),
(434,204,o),
(318,204,cs),
(117,204,l),
(106,150,l)
);
}
);
userData = {
com.schriftgestaltung.Glyphs.lastChange = "2021-03-03 00:29:23 +0000";
};
width = 607;
},
{
layerId = master06;
shapes = (
{
closed = 1;
nodes = (
(131,0,l),
(278,690,l),
(182,690,l),
(35,0,l)
);
},
{
closed = 1;
nodes = (
(307,132,ls),
(481,132,o),
(592,224,o),
(592,392,cs),
(592,498,o),
(511,558,o),
(396,558,cs),
(199,558,l),
(181,473,l),
(375,473,ls),
(451,473,o),
(494,443,o),
(494,378,cs),
(494,278,o),
(425,217,o),
(320,217,cs),
(126,217,l),
(108,132,l)
);
}
);
userData = {
com.schriftgestaltung.Glyphs.lastChange = "2021-03-02 23:45:59 +0000";
};
width = 621;
}
);
unicode = 222;
},
{
color = 5;
glyphname = Q;
kernLeft = O;
kernRight = O;
layers = (
{
layerId = master01;
shapes = (
{
closed = 1;
nodes = (
(366,-115,o),
(438,-172,o),
(594,-172,c),
(627,-21,l),
(535,-21,o),
(492,-4,o),
(476,46,c),
(348,9,l)
);
},
{
closed = 1;
nodes = (
(46,85,o),
(152,-12,o),
(305,-12,c),
(527,-12,o),
(714,193,o),
(715,439,cs),
(714,605,o),
(608,702,o),
(456,702,c),
(233,702,o),
(46,497,o),
(46,251,cs)
);
},
{
closed = 1;
nodes = (
(211,436,o),
(313,559,o),
(425,559,c),
(500,559,o),
(550,513,o),
(550,418,cs),
(550,254,o),
(447,131,o),
(336,131,c),
(260,131,o),
(211,177,o),
(211,272,cs)
);
}
);
userData = {
com.schriftgestaltung.Glyphs.lastChange = "2021-03-02 23:46:34 +0000";
};
width = 734;
},
{
layerId = master02;
shapes = (
{
closed = 1;
nodes = (
(295,-114,o),
(353,-170,o),
(489,-170,c),
(519,-26,l),
(441,-26,o),
(414,-8,o),
(404,45,c),
(286,9,l)
);
},
{
closed = 1;
nodes = (
(42,91,o),
(127,-12,o),
(254,-12,c),
(444,-12,o),
(612,187,o),
(612,448,c),
(612,599,o),
(527,702,o),
(401,702,c),
(210,702,o),
(42,503,o),
(42,243,c)
);
},
{
closed = 1;
nodes = (
(193,444,o),
(282,565,o),
(373,565,c),
(428,565,o),
(461,520,o),
(461,433,c),
(461,246,o),
(371,125,o),
(281,125,c),
(225,125,o),
(193,170,o),
(193,258,c)
);
}
);
userData = {
com.schriftgestaltung.Glyphs.lastChange = "2021-03-03 00:29:32 +0000";
};
width = 627;
},
{
layerId = master03;
shapes = (
{
closed = 1;
nodes = (
(339,-91,o),
(406,-126,o),
(489,-130,c),
(503,-67,l),
(444,-67,o),
(389,-52,o),
(363,35,c),
(308,13,l)
);
},
{
closed = 1;
nodes = (
(67,96,o),
(124,-8,o),
(250,-8,cs),
(435,-8,o),
(577,206,o),
(577,459,cs),
(577,612,o),
(512,698,o),
(386,698,cs),
(211,698,o),
(67,482,o),
(67,229,cs)
);
},
{
closed = 1;
nodes = (
(132,452,o),
(243,641,o),
(379,641,cs),
(476,641,o),
(512,573,o),
(512,452,cs),
(512,236,o),
(403,49,o),
(257,49,cs),
(160,49,o),
(132,135,o),
(132,236,cs)
);
}
);
userData = {
com.schriftgestaltung.Glyphs.lastChange = "2021-03-04 12:56:20 +0000";
};
width = 595;
},
{
layerId = master04;
shapes = (
{
closed = 1;
nodes = (
(284,-91,o),
(345,-154,o),
(453,-157,c),
(476,-66,l),
(404,-66,o),
(360,-41,o),
(346,34,c),
(270,8,l)
);
},
{
closed = 1;
nodes = (
(49,79,o),
(121,-10,o),
(237,-10,cs),
(415,-10,o),
(563,204,o),
(563,459,cs),
(563,611,o),
(491,700,o),
(376,700,cs),
(196,700,o),
(49,485,o),
(49,231,cs)
);
},
{
closed = 1;
nodes = (
(144,443,o),
(253,615,o),
(365,615,cs),
(432,615,o),
(469,555,o),
(469,447,c),
(469,243,o),
(360,75,o),
(247,75,cs),
(180,75,o),
(144,135,o),
(144,243,c)
);
}
);
userData = {
com.schriftgestaltung.Glyphs.lastChange = "2021-03-02 23:38:03 +0000";
};
width = 595;
},
{
layerId = master05;
shapes = (
{
closed = 1;
nodes = (
(373,-97,o),
(456,-146,o),
(569,-150,c),
(583,-87,l),
(494,-87,o),
(423,-58,o),
(397,29,c),
(342,7,l)
);
},
{
closed = 1;
nodes = (
(67,76,o),
(159,-8,o),
(285,-8,c),
(480,-8,o),
(657,208,o),
(657,461,c),
(657,614,o),
(565,698,o),
(439,698,c),
(244,698,o),
(67,482,o),
(67,229,c)
);
},
{
closed = 1;
nodes = (
(132,452,o),
(276,641,o),
(432,641,c),
(529,641,o),
(592,575,o),
(592,454,c),
(592,238,o),
(448,49,o),
(292,49,c),
(195,49,o),
(132,115,o),
(132,236,c)
);
}
);
userData = {
com.schriftgestaltung.Glyphs.lastChange = "2021-03-03 00:29:23 +0000";
};
width = 697;
},
{
layerId = master06;
shapes = (
{
closed = 1;
nodes = (
(371,-103,o),
(450,-155,o),
(578,-158,c),
(599,-64,l),
(509,-64,o),
(448,-39,o),
(425,35,c),
(344,8,l)
);
},
{
closed = 1;
nodes = (
(60,79,o),
(157,-10,o),
(293,-10,c),
(497,-10,o),
(678,203,o),
(678,453,c),
(678,611,o),
(581,700,o),
(446,700,c),
(241,700,o),
(60,487,o),
(60,237,c)
);
},
{
closed = 1;
nodes = (
(161,446,o),
(290,612,o),
(430,612,c),
(519,612,o),
(577,553,o),
(578,441,c),
(577,244,o),
(448,78,o),
(308,78,c),
(219,78,o),
(161,137,o),
(161,249,c)
);
}
);
userData = {
com.schriftgestaltung.Glyphs.lastChange = "2021-03-02 23:45:59 +0000";
};
width = 711;
}
);
unicode = 81;
},
{
color = 5;
glyphname = R;
kernLeft = H;
kernRight = R;
layers = (
{
anchors = (
{
name = bottom;
pos = (277,0);
},
{
name = top;
pos = (380,690);
}
);
layerId = master01;
shapes = (
{
closed = 1;
nodes = (
(172,0,l),
(319,690,l),
(159,690,l),
(12,0,l)
);
},
{
closed = 1;
nodes = (
(298,240,ls),
(491,240,o),
(621,347,o),
(621,491,cs),
(621,615,o),
(531,690,o),
(390,690,cs),
(233,690,l),
(203,552,l),
(346,552,ls),
(421,552,o),
(457,523,o),
(457,479,c),
(457,413,o),
(401,368,o),
(305,368,cs),
(166,368,l),
(136,240,l)
);
},
{
closed = 1;
nodes = (
(382,0,l),
(551,0,l),
(436,290,l),
(282,290,l)
);
}
);
userData = {
com.schriftgestaltung.Glyphs.lastChange = "2021-03-02 23:46:34 +0000";
};
width = 631;
},
{
anchors = (
{
name = bottom;
pos = (237,0);
},
{
name = top;
pos = (348,690);
}
);
layerId = master02;
shapes = (
{
closed = 1;
nodes = (
(156,0,l),
(303,690,l),
(157,690,l),
(10,0,l)
);
},
{
closed = 1;
nodes = (
(263,243,ls),
(428,243,o),
(547,352,o),
(547,498,c),
(547,618,o),
(473,690,o),
(351,690,cs),
(225,690,l),
(193,558,l),
(311,558,ls),
(372,558,o),
(398,528,o),
(398,483,c),
(398,412,o),
(349,365,o),
(274,365,cs),
(159,365,l),
(127,243,l)
);
},
{
closed = 1;
nodes = (
(318,0,l),
(472,0,l),
(383,290,l),
(247,290,l)
);
}
);
userData = {
com.schriftgestaltung.Glyphs.lastChange = "2021-03-03 00:29:32 +0000";
};
width = 559;
},
{
anchors = (
{
name = bottom;
pos = (185,0);
},
{
name = top;
pos = (310,690);
}
);
layerId = master03;
shapes = (
{
closed = 1;
nodes = (
(86,0,l),
(233,690,l),
(171,690,l),
(24,0,l)
);
},
{
closed = 1;
nodes = (
(221,275,ls),
(394,275,o),
(491,376,o),
(491,514,cs),
(491,618,o),
(423,690,o),
(310,690,cs),
(201,690,l),
(189,636,l),
(298,636,ls),
(390,636,o),
(426,589,o),
(426,508,cs),
(426,404,o),
(364,329,o),
(228,329,cs),
(124,329,l),
(112,275,l)
);
},
{
closed = 1;
nodes = (
(349,0,l),
(415,0,l),
(306,290,l),
(244,290,l)
);
}
);
userData = {
com.schriftgestaltung.Glyphs.lastChange = "2021-03-04 12:56:20 +0000";
};
width = 519;
},
{
anchors = (
{
name = bottom;
pos = (215,0);
},
{
name = top;
pos = (328,690);
}
);
layerId = master04;
shapes = (
{
closed = 1;
nodes = (
(106,0,l),
(253,690,l),
(164,690,l),
(17,0,l)
);
},
{
closed = 1;
nodes = (
(219,263,ls),
(398,263,o),
(499,398,o),
(499,517,cs),
(499,611,o),
(447,690,o),
(315,690,cs),
(206,690,l),
(185,608,l),
(290,608,ls),
(374,608,o),
(405,573,o),
(405,510,cs),
(405,428,o),
(351,342,o),
(228,342,cs),
(127,342,l),
(106,263,l)
);
},
{
closed = 1;
nodes = (
(323,0,l),
(419,0,l),
(334,290,l),
(246,290,l)
);
}
);
userData = {
com.schriftgestaltung.Glyphs.lastChange = "2021-03-02 23:38:03 +0000";
};
width = 519;
},
{
anchors = (
{
name = bottom;
pos = (265,0);
},
{
name = top;
pos = (370,690);
}
);
layerId = master05;
shapes = (
{
closed = 1;
nodes = (
(106,0,l),
(253,690,l),
(191,690,l),
(44,0,l)
);
},
{
closed = 1;
nodes = (
(291,275,ls),
(464,275,o),
(581,376,o),
(581,514,cs),
(581,618,o),
(493,690,o),
(380,690,cs),
(221,690,l),
(209,636,l),
(368,636,ls),
(460,636,o),
(516,589,o),
(516,508,cs),
(516,404,o),
(434,329,o),
(298,329,cs),
(144,329,l),
(132,275,l)
);
},
{
closed = 1;
nodes = (
(439,0,l),
(505,0,l),
(376,290,l),
(314,290,l)
);
}
);
userData = {
com.schriftgestaltung.Glyphs.lastChange = "2021-03-03 00:29:23 +0000";
};
width = 617;
},
{
anchors = (
{
name = bottom;
pos = (276,0);
},
{
name = top;
pos = (381,690);
}
);
layerId = master06;
shapes = (
{
closed = 1;
nodes = (
(132,0,l),
(279,690,l),
(182,690,l),
(35,0,l)
);
},
{
closed = 1;
nodes = (
(296,263,ls),
(476,263,o),
(598,366,o),
(598,506,cs),
(598,617,o),
(509,690,o),
(386,690,cs),
(228,690,l),
(209,605,l),
(363,605,ls),
(449,605,o),
(497,566,o),
(497,498,cs),
(497,407,o),
(425,344,o),
(303,344,cs),
(154,344,l),
(136,263,l)
);
},
{
closed = 1;
nodes = (
(421,0,l),
(524,0,l),
(400,290,l),
(305,290,l)
);
}
);
userData = {
com.schriftgestaltung.Glyphs.lastChange = "2021-03-02 23:45:59 +0000";
};
width = 619;
}
);
unicode = 82;
},
{
color = 5;
glyphname = S;
kernLeft = S;
kernRight = S;
layers = (
{
anchors = (
{
name = bottom;
pos = (263,0);
},
{
name = top;
pos = (381,690);
}
);
layerId = master01;
shapes = (
{
closed = 1;
nodes = (
(61,29,o),
(167,-12,o),
(282,-12,c),
(468,-12,o),
(558,91,o),
(558,206,c),
(558,283,o),
(517,344,o),
(371,418,cs),
(283,463,o),
(265,488,o),
(265,511,c),
(265,541,o),
(292,563,o),
(347,563,c),
(413,563,o),
(483,529,o),
(540,490,c),
(608,628,l),
(546,670,o),
(454,702,o),
(373,702,c),
(202,702,o),
(101,611,o),
(101,499,c),
(101,425,o),
(134,361,o),
(282,285,cs),
(370,240,o),
(384,220,o),
(384,192,c),
(384,163,o),
(355,129,o),
(281,129,c),
(204,129,o),
(129,166,o),
(74,214,c),
(-12,83,l)
);
}
);
userData = {
com.schriftgestaltung.Glyphs.lastChange = "2021-03-02 23:46:34 +0000";
};
width = 607;
},
{
anchors = (
{
name = bottom;
pos = (218,0);
},
{
name = top;
pos = (344,690);
}
);
layerId = master02;
shapes = (
{
closed = 1;
nodes = (
(48,27,o),
(139,-12,o),
(239,-12,c),
(390,-12,o),
(479,86,o),
(479,196,c),
(479,272,o),
(443,341,o),
(329,415,cs),
(258,461,o),
(246,488,o),
(246,512,c),
(246,541,o),
(274,571,o),
(315,571,c),
(364,571,o),
(421,545,o),
(469,506,c),
(535,630,l),
(480,672,o),
(401,702,o),
(336,702,c),
(190,702,o),
(96,611,o),
(96,496,c),
(96,433,o),
(119,374,o),
(243,290,cs),
(311,244,o),
(321,220,o),
(321,193,c),
(321,157,o),
(296,123,o),
(236,123,c),
(182,123,o),
(117,154,o),
(67,203,c),
(-14,82,l)
);
}
);
userData = {
com.schriftgestaltung.Glyphs.lastChange = "2021-03-03 00:29:32 +0000";
};
width = 535;
},
{
anchors = (
{
name = bottom;
pos = (254,0);
},
{
name = top;
pos = (359,690);
}
);
layerId = master03;
shapes = (
{
closed = 1;
nodes = (
(79,34,o),
(143,-8,o),
(218,-8,cs),
(358,-8,o),
(440,78,o),
(440,177,cs),
(440,254,o),
(406,328,o),
(291,392,cs),
(193,447,o),
(183,481,o),
(183,531,cs),
(183,584,o),
(231,644,o),
(310,644,cs),
(364,644,o),
(404,623,o),
(448,585,c),
(487,625,l),
(433,671,o),
(385,698,o),
(315,698,cs),
(196,698,o),
(122,615,o),
(122,524,cs),
(122,456,o),
(149,403,o),
(262,338,cs),
(362,281,o),
(377,229,o),
(377,169,cs),
(377,108,o),
(323,46,o),
(225,46,cs),
(165,46,o),
(107,89,o),
(63,137,c),
(23,96,l)
);
}
);
userData = {
com.schriftgestaltung.Glyphs.lastChange = "2021-03-04 12:56:20 +0000";
};
width = 499;
},
{
anchors = (
{
name = bottom;
pos = (204,0);
},
{
name = top;
pos = (318,690);
}
);
layerId = master04;
shapes = (
{
closed = 1;
nodes = (
(51,32,o),
(124,-10,o),
(214,-10,cs),
(339,-10,o),
(432,81,o),
(432,189,cs),
(432,264,o),
(404,327,o),
(288,400,cs),
(212,449,o),
(198,482,o),
(198,517,cs),
(198,571,o),
(238,615,o),
(303,615,cs),
(357,615,o),
(405,587,o),
(443,550,c),
(496,628,l),
(450,671,o),
(382,700,o),
(316,700,cs),
(182,700,o),
(102,609,o),
(102,514,cs),
(102,445,o),
(129,388,o),
(236,321,cs),
(326,263,o),
(336,221,o),
(336,178,cs),
(336,123,o),
(296,73,o),
(219,73,cs),
(155,73,o),
(95,112,o),
(56,164,c),
(-4,92,l)
);
}
);
userData = {
com.schriftgestaltung.Glyphs.lastChange = "2021-03-02 23:38:03 +0000";
};
width = 499;
},
{
anchors = (
{
name = bottom;
pos = (254,0);
},
{
name = top;
pos = (359,690);
}
);
layerId = master05;
shapes = (
{
closed = 1;
nodes = (
(84,32,o),
(162,-8,o),
(261,-8,c),
(411,-8,o),
(501,78,o),
(501,177,c),
(501,254,o),
(459,318,o),
(314,392,cs),
(213,443,o),
(186,481,o),
(186,531,c),
(186,584,o),
(244,644,o),
(353,644,c),
(423,644,o),
(478,618,o),
(519,578,c),
(561,622,l),
(508,668,o),
(445,698,o),
(358,698,c),
(209,698,o),
(125,615,o),
(125,524,c),
(125,456,o),
(169,398,o),
(285,338,cs),
(415,271,o),
(438,229,o),
(438,169,c),
(438,108,o),
(376,46,o),
(268,46,c),
(179,46,o),
(109,84,o),
(58,139,c),
(16,96,l)
);
}
);
userData = {
com.schriftgestaltung.Glyphs.lastChange = "2021-03-03 00:29:23 +0000";
};
width = 583;
},
{
anchors = (
{
name = bottom;
pos = (264,0);
},
{
name = top;
pos = (367,690);
}
);
layerId = master06;
shapes = (
{
closed = 1;
nodes = (
(80,32,o),
(165,-10,o),
(272,-10,c),
(437,-10,o),
(526,79,o),
(526,184,c),
(526,261,o),
(484,326,o),
(339,401,cs),
(242,451,o),
(219,483,o),
(219,524,c),
(219,569,o),
(265,615,o),
(355,615,c),
(424,615,o),
(484,586,o),
(531,547,c),
(582,624,l),
(526,669,o),
(453,700,o),
(368,700,c),
(211,700,o),
(121,611,o),
(121,518,c),
(121,445,o),
(162,387,o),
(288,319,cs),
(403,259,o),
(422,223,o),
(422,175,c),
(422,124,o),
(375,75,o),
(278,75,c),
(196,75,o),
(120,115,o),
(68,167,c),
(10,92,l)
);
}
);
userData = {
com.schriftgestaltung.Glyphs.lastChange = "2021-03-02 23:45:59 +0000";
};
width = 601;
}
);
unicode = 83;
},
{
color = 5;
glyphname = Schwa;
kernLeft = O;
kernRight = O;
layers = (
{
layerId = master01;
shapes = (
{
closed = 1;
nodes = (
(47,112,o),
(137,-12,o),
(320,-12,c),
(567,-12,o),
(696,187,o),
(696,406,c),
(696,598,o),
(581,702,o),
(409,702,cs),
(319,702,o),
(231,672,o),
(164,637,c),
(190,502,l),
(239,530,o),
(315,552,o),
(384,552,cs),
(477,552,o),
(535,508,o),
(535,407,cs),
(535,244,o),
(474,131,o),
(331,131,cs),
(260,131,o),
(209,176,o),
(209,258,c),
(209,291,o),
(214,316,o),
(220,345,c),
(169,280,l),
(555,280,l),
(580,400,l),
(74,400,l),
(57,362,o),
(47,325,o),
(47,259,c)
);
}
);
userData = {
com.schriftgestaltung.Glyphs.lastChange = "2021-03-02 23:46:34 +0000";
};
width = 724;
},
{
layerId = master02;
shapes = (
{
closed = 1;
nodes = (
(41,96,o),
(117,-12,o),
(274,-12,c),
(476,-12,o),
(594,189,o),
(594,398,c),
(594,599,o),
(491,702,o),
(340,702,c),
(273,702,o),
(189,674,o),
(138,638,c),
(175,509,l),
(216,538,o),
(269,560,o),
(326,560,cs),
(401,560,o),
(447,512,o),
(447,399,c),
(447,244,o),
(393,123,o),
(285,123,c),
(226,123,o),
(185,172,o),
(186,257,cs),
(187,290,o),
(192,316,o),
(199,344,c),
(150,281,l),
(460,281,l),
(487,397,l),
(62,397,l),
(48,355,o),
(41,309,o),
(41,248,c)
);
}
);
userData = {
com.schriftgestaltung.Glyphs.lastChange = "2021-03-03 00:29:32 +0000";
};
width = 615;
},
{
layerId = master03;
shapes = (
{
closed = 1;
nodes = (
(56,103,o),
(118,-10,o),
(248,-10,c),
(460,-10,o),
(562,211,o),
(562,440,cs),
(562,586,o),
(514,700,o),
(383,700,cs),
(300,700,o),
(257,683,o),
(186,642,c),
(207,589,l),
(267,625,o),
(306,640,o),
(374,640,cs),
(481,640,o),
(498,542,o),
(498,437,cs),
(498,246,o),
(428,47,o),
(259,47,c),
(141,47,o),
(117,153,o),
(117,245,cs),
(117,282,o),
(127,317,o),
(135,334,c),
(113,300,l),
(511,300,l),
(524,360,l),
(74,360,l),
(74,360,o),
(56,311,o),
(56,242,cs)
);
}
);
userData = {
com.schriftgestaltung.Glyphs.lastChange = "2021-03-04 13:02:39 +0000";
};
width = 599;
},
{
layerId = master04;
shapes = (
{
closed = 1;
nodes = (
(46,97,o),
(118,-10,o),
(243,-10,cs),
(435,-10,o),
(551,204,o),
(560,429,cs),
(567,603,o),
(485,701,o),
(355,701,cs),
(280,701,o),
(204,670,o),
(145,632,c),
(173,551,l),
(220,585,o),
(279,612,o),
(338,612,cs),
(425,612,o),
(473,545,o),
(468,427,cs),
(460,244,o),
(387,72,o),
(255,72,cs),
(173,72,o),
(131,138,o),
(131,243,cs),
(131,284,o),
(142,320,o),
(151,338,c),
(121,294,l),
(476,294,l),
(495,373,l),
(71,373,l),
(62,361,o),
(46,315,o),
(46,237,cs)
);
}
);
userData = {
com.schriftgestaltung.Glyphs.lastChange = "2021-03-02 23:38:03 +0000";
};
width = 584;
},
{
layerId = master05;
shapes = (
{
closed = 1;
nodes = (
(65,73,o),
(167,-10,o),
(307,-10,c),
(539,-10,o),
(677,211,o),
(677,440,cs),
(677,606,o),
(576,700,o),
(425,700,cs),
(332,700,o),
(251,668,o),
(180,627,c),
(201,574,l),
(261,610,o),
(338,640,o),
(416,640,cs),
(543,640,o),
(613,562,o),
(613,437,cs),
(613,246,o),
(507,47,o),
(318,47,c),
(190,47,o),
(126,123,o),
(126,245,cs),
(126,282,o),
(136,317,o),
(144,334,c),
(122,300,l),
(626,300,l),
(639,360,l),
(83,360,l),
(83,360,o),
(65,311,o),
(65,242,cs)
);
}
);
userData = {
com.schriftgestaltung.Glyphs.lastChange = "2021-03-03 00:29:23 +0000";
};
width = 722;
},
{
layerId = master06;
shapes = (
{
closed = 1;
nodes = (
(60,87,o),
(158,-11,o),
(313,-11,c),
(551,-11,o),
(686,202,o),
(686,428,cs),
(686,603,o),
(580,701,o),
(421,701,cs),
(329,701,o),
(246,669,o),
(176,631,c),
(199,548,l),
(255,582,o),
(332,609,o),
(407,609,cs),
(521,609,o),
(587,543,o),
(587,426,cs),
(587,245,o),
(497,77,o),
(324,77,c),
(217,77,o),
(157,142,o),
(157,250,cs),
(157,285,o),
(166,317,o),
(173,338,c),
(141,293,l),
(603,293,l),
(620,374,l),
(82,374,l),
(76,361,o),
(60,316,o),
(60,248,cs)
);
}
);
userData = {
com.schriftgestaltung.Glyphs.lastChange = "2021-03-02 23:45:59 +0000";
};
width = 726;
}
);
unicode = 399;
},
{
color = 5;
glyphname = T;
kernLeft = T;
kernRight = T;
layers = (
{
anchors = (
{
name = bottom;
pos = (232,0);
},
{
name = top;
pos = (376,690);
}
);
layerId = master01;
shapes = (
{
closed = 1;
nodes = (
(614,550,l),
(644,690,l),
(108,690,l),
(78,550,l)
);
},
{
closed = 1;
nodes = (
(309,0,l),
(456,690,l),
(296,690,l),
(149,0,l)
);
}
);
userData = {
com.schriftgestaltung.Glyphs.lastChange = "2021-03-02 23:46:34 +0000";
};
width = 577;
},
{
anchors = (
{
name = bottom;
pos = (192,0);
},
{
name = top;
pos = (337,690);
}
);
layerId = master02;
shapes = (
{
closed = 1;
nodes = (
(536,556,l),
(565,690,l),
(107,690,l),
(78,556,l)
);
},
{
closed = 1;
nodes = (
(262,0,l),
(409,690,l),
(263,690,l),
(116,0,l)
);
}
);
userData = {
com.schriftgestaltung.Glyphs.lastChange = "2021-03-03 00:29:32 +0000";
};
width = 498;
},
{
anchors = (
{
name = bottom;
pos = (180,0);
},
{
name = top;
pos = (327,690);
}
);
layerId = master03;
shapes = (
{
closed = 1;
nodes = (
(502,636,l),
(514,690,l),
(140,690,l),
(128,636,l)
);
},
{
closed = 1;
nodes = (
(211,0,l),
(358,690,l),
(296,690,l),
(149,0,l)
);
}
);
userData = {
com.schriftgestaltung.Glyphs.lastChange = "2021-03-04 13:06:44 +0000";
};
width = 462;
},
{
anchors = (
{
name = bottom;
pos = (175,0);
},
{
name = top;
pos = (319,690);
}
);
layerId = master04;
shapes = (
{
closed = 1;
nodes = (
(507,608,l),
(525,690,l),
(112,690,l),
(94,608,l)
);
},
{
closed = 1;
nodes = (
(217,0,l),
(364,690,l),
(275,690,l),
(128,0,l)
);
}
);
userData = {
com.schriftgestaltung.Glyphs.lastChange = "2021-03-02 23:38:03 +0000";
};
width = 462;
},
{
anchors = (
{
name = bottom;
pos = (220,0);
},
{
name = top;
pos = (367,690);
}
);
layerId = master05;
shapes = (
{
closed = 1;
nodes = (
(602,636,l),
(614,690,l),
(120,690,l),
(108,636,l)
);
},
{
closed = 1;
nodes = (
(251,0,l),
(398,690,l),
(336,690,l),
(189,0,l)
);
}
);
userData = {
com.schriftgestaltung.Glyphs.lastChange = "2021-03-03 00:29:23 +0000";
};
width = 560;
},
{
anchors = (
{
name = bottom;
pos = (227,0);
},
{
name = top;
pos = (372,690);
}
);
layerId = master06;
shapes = (
{
closed = 1;
nodes = (
(608,605,l),
(626,690,l),
(117,690,l),
(99,605,l)
);
},
{
closed = 1;
nodes = (
(273,0,l),
(420,690,l),
(323,690,l),
(177,0,l)
);
}
);
userData = {
com.schriftgestaltung.Glyphs.lastChange = "2021-03-02 23:45:59 +0000";
};
width = 569;
}
);
unicode = 84;
},
{
color = 5;
glyphname = Tbar;
kernLeft = T;
kernRight = T;
layers = (
{
layerId = master01;
shapes = (
{
closed = 1;
nodes = (
(501,246,l),
(530,380,l),
(100,380,l),
(71,246,l)
);
},
{
closed = 1;
nodes = (
(619,550,l),
(649,690,l),
(113,690,l),
(83,550,l)
);
},
{
closed = 1;
nodes = (
(314,0,l),
(461,690,l),
(301,690,l),
(154,0,l)
);
}
);
userData = {
com.schriftgestaltung.Glyphs.lastChange = "2021-03-02 23:46:34 +0000";
};
width = 587;
},
{
layerId = master02;
shapes = (
{
closed = 1;
nodes = (
(426,251,l),
(454,379,l),
(86,379,l),
(58,251,l)
);
},
{
closed = 1;
nodes = (
(536,556,l),
(565,690,l),
(107,690,l),
(78,556,l)
);
},
{
closed = 1;
nodes = (
(262,0,l),
(409,690,l),
(263,690,l),
(116,0,l)
);
}
);
userData = {
com.schriftgestaltung.Glyphs.lastChange = "2021-03-03 00:29:32 +0000";
};
width = 498;
},
{
layerId = master03;
shapes = (
{
closed = 1;
nodes = (
(358,308,l),
(369,358,l),
(110,358,l),
(99,308,l)
);
},
{
closed = 1;
nodes = (
(495,636,l),
(507,690,l),
(113,690,l),
(101,636,l)
);
},
{
closed = 1;
nodes = (
(194,0,l),
(341,690,l),
(279,690,l),
(132,0,l)
);
}
);
userData = {
com.schriftgestaltung.Glyphs.lastChange = "2021-03-04 13:06:44 +0000";
};
width = 445;
},
{
layerId = master04;
shapes = (
{
closed = 1;
nodes = (
(396,296,l),
(411,369,l),
(89,369,l),
(74,296,l)
);
},
{
closed = 1;
nodes = (
(507,608,l),
(525,690,l),
(112,690,l),
(94,608,l)
);
},
{
closed = 1;
nodes = (
(217,0,l),
(364,690,l),
(275,690,l),
(128,0,l)
);
}
);
userData = {
com.schriftgestaltung.Glyphs.lastChange = "2021-03-02 23:38:03 +0000";
};
width = 462;
},
{
layerId = master05;
shapes = (
{
closed = 1;
nodes = (
(470,308,l),
(481,358,l),
(122,358,l),
(111,308,l)
);
},
{
closed = 1;
nodes = (
(607,636,l),
(619,690,l),
(125,690,l),
(113,636,l)
);
},
{
closed = 1;
nodes = (
(256,0,l),
(403,690,l),
(341,690,l),
(194,0,l)
);
}
);
userData = {
com.schriftgestaltung.Glyphs.lastChange = "2021-03-03 00:29:23 +0000";
};
width = 571;
},
{
layerId = master06;
shapes = (
{
closed = 1;
nodes = (
(489,293,l),
(506,370,l),
(113,370,l),
(96,293,l)
);
},
{
closed = 1;
nodes = (
(613,605,l),
(631,690,l),
(122,690,l),
(104,605,l)
);
},
{
closed = 1;
nodes = (
(278,0,l),
(425,690,l),
(328,690,l),
(182,0,l)
);
}
);
userData = {
com.schriftgestaltung.Glyphs.lastChange = "2021-03-02 23:45:59 +0000";
};
width = 579;
}
);
unicode = 358;
},
{
color = 5;
glyphname = U;
kernLeft = U;
kernRight = U;
layers = (
{
anchors = (
{
name = bottom;
pos = (296,0);
},
{
name = horn;
pos = (662,716);
},
{
name = ogonek;
pos = (350,0);
},
{
name = top;
pos = (438,690);
}
);
layerId = master01;
shapes = (
{
closed = 1;
nodes = (
(58,89,o),
(153,-12,o),
(302,-12,c),
(457,-12,o),
(591,72,o),
(632,265,cs),
(723,690,l),
(567,690,l),
(483,295,ls),
(459,181,o),
(393,131,o),
(325,131,c),
(260,131,o),
(218,164,o),
(218,238,cs),
(218,255,o),
(221,274,o),
(225,295,cs),
(309,690,l),
(149,690,l),
(67,304,ls),
(60,271,o),
(58,249,o),
(58,227,cs)
);
}
);
userData = {
com.schriftgestaltung.Glyphs.lastChange = "2021-03-08 22:50:57 +0000";
};
width = 698;
},
{
anchors = (
{
name = bottom;
pos = (252,0);
},
{
name = horn;
pos = (592,715);
},
{
name = ogonek;
pos = (295,0);
},
{
name = top;
pos = (396,690);
}
);
layerId = master02;
shapes = (
{
closed = 1;
nodes = (
(54,82,o),
(138,-12,o),
(266,-12,c),
(403,-12,o),
(507,68,o),
(548,259,cs),
(640,690,l),
(498,690,l),
(412,288,ls),
(386,165,o),
(339,125,o),
(284,125,c),
(235,125,o),
(200,159,o),
(200,220,cs),
(200,242,o),
(203,267,o),
(207,288,cs),
(293,690,l),
(147,690,l),
(65,307,ls),
(57,269,o),
(54,237,o),
(54,206,cs)
);
}
);
userData = {
com.schriftgestaltung.Glyphs.lastChange = "2021-03-08 22:47:43 +0000";
};
width = 613;
},
{
anchors = (
{
name = bottom;
pos = (228,0);
},
{
name = horn;
pos = (561,724);
},
{
name = ogonek;
pos = (287,0);
},
{
name = top;
pos = (362,690);
}
);
layerId = master03;
shapes = (
{
closed = 1;
nodes = (
(70,68,o),
(132,-8,o),
(236,-8,c),
(358,-8,o),
(451,73,o),
(487,240,cs),
(583,690,l),
(521,690,l),
(427,250,ls),
(398,116,o),
(332,49,o),
(248,49,c),
(172,49,o),
(132,96,o),
(132,191,cs),
(132,209,o),
(135,232,o),
(140,254,cs),
(233,690,l),
(171,690,l),
(78,254,ls),
(73,232,o),
(70,206,o),
(70,187,cs)
);
}
);
userData = {
com.schriftgestaltung.Glyphs.lastChange = "2021-03-08 22:43:18 +0000";
};
width = 567;
},
{
anchors = (
{
name = bottom;
pos = (227,0);
},
{
name = horn;
pos = (547,716);
},
{
name = ogonek;
pos = (277,0);
},
{
name = top;
pos = (370,690);
}
);
layerId = master04;
shapes = (
{
closed = 1;
nodes = (
(57,74,o),
(110,-10,o),
(231,-10,cs),
(350,-10,o),
(454,73,o),
(491,248,cs),
(585,690,l),
(497,690,l),
(406,264,ls),
(377,129,o),
(321,75,o),
(249,75,cs),
(174,75,o),
(148,118,o),
(148,196,cs),
(148,234,o),
(164,307,o),
(169,329,cs),
(246,690,l),
(156,690,l),
(79,331,ls),
(74,306,o),
(57,229,o),
(57,180,c)
);
}
);
userData = {
com.schriftgestaltung.Glyphs.lastChange = "2021-03-08 22:44:52 +0000";
};
width = 567;
},
{
anchors = (
{
name = bottom;
pos = (288,0);
},
{
name = horn;
pos = (657,716);
},
{
name = ogonek;
pos = (347,0);
},
{
name = top;
pos = (422,690);
}
);
layerId = master05;
shapes = (
{
closed = 1;
nodes = (
(80,68,o),
(162,-8,o),
(286,-8,c),
(428,-8,o),
(541,73,o),
(577,240,cs),
(673,690,l),
(611,690,l),
(517,250,ls),
(488,116,o),
(402,49,o),
(298,49,c),
(202,49,o),
(142,96,o),
(142,191,cs),
(142,209,o),
(145,232,o),
(150,254,cs),
(243,690,l),
(181,690,l),
(88,254,ls),
(83,232,o),
(80,206,o),
(80,187,cs)
);
}
);
userData = {
com.schriftgestaltung.Glyphs.lastChange = "2021-03-08 22:48:32 +0000";
};
width = 680;
},
{
anchors = (
{
name = bottom;
pos = (294,0);
},
{
name = horn;
pos = (664,715);
},
{
name = ogonek;
pos = (360,0);
},
{
name = top;
pos = (438,690);
}
);
layerId = master06;
shapes = (
{
closed = 1;
nodes = (
(80,75,o),
(166,-10,o),
(299,-10,c),
(446,-10,o),
(567,73,o),
(604,249,cs),
(698,690,l),
(603,690,l),
(512,266,ls),
(485,139,o),
(406,78,o),
(315,78,c),
(230,78,o),
(176,120,o),
(176,208,cs),
(176,225,o),
(179,247,o),
(184,269,cs),
(274,690,l),
(177,690,l),
(88,272,ls),
(82,246,o),
(80,221,o),
(80,201,cs)
);
}
);
userData = {
com.schriftgestaltung.Glyphs.lastChange = "2021-03-08 22:50:13 +0000";
};
width = 701;
}
);
unicode = 85;
},
{
color = 5;
glyphname = V;
kernLeft = V;
kernRight = V;
layers = (
{
layerId = master01;
shapes = (
{
closed = 1;
nodes = (
(198,0,l),
(270,0,l),
(307,157,l),
(247,690,l),
(87,690,l)
);
},
{
closed = 1;
nodes = (
(322,0,l),
(729,690,l),
(559,690,l),
(271,157,l),
(248,0,l)
);
}
);
userData = {
com.schriftgestaltung.Glyphs.lastChange = "2021-03-02 23:46:34 +0000";
};
width = 642;
},
{
layerId = master02;
shapes = (
{
closed = 1;
nodes = (
(155,0,l),
(219,0,l),
(259,152,l),
(231,690,l),
(85,690,l)
);
},
{
closed = 1;
nodes = (
(268,0,l),
(636,690,l),
(481,690,l),
(229,152,l),
(202,0,l)
);
}
);
userData = {
com.schriftgestaltung.Glyphs.lastChange = "2021-03-03 00:29:32 +0000";
};
width = 546;
},
{
layerId = master03;
shapes = (
{
closed = 1;
nodes = (
(171,0,l),
(212,0,l),
(220,45,l),
(175,690,l),
(113,690,l)
);
},
{
closed = 1;
nodes = (
(220,0,l),
(562,690,l),
(496,690,l),
(185,45,l),
(180,0,l)
);
}
);
userData = {
com.schriftgestaltung.Glyphs.lastChange = "2021-03-04 13:06:44 +0000";
};
width = 497;
},
{
layerId = master04;
shapes = (
{
closed = 1;
nodes = (
(155,0,l),
(200,0,l),
(227,76,l),
(187,690,l),
(99,690,l)
);
},
{
closed = 1;
nodes = (
(225,0,l),
(573,690,l),
(478,690,l),
(185,76,l),
(179,0,l)
);
}
);
userData = {
com.schriftgestaltung.Glyphs.lastChange = "2021-03-02 23:38:03 +0000";
};
width = 497;
},
{
layerId = master05;
shapes = (
{
closed = 1;
nodes = (
(203,0,l),
(244,0,l),
(252,45,l),
(167,690,l),
(105,690,l)
);
},
{
closed = 1;
nodes = (
(252,0,l),
(644,690,l),
(578,690,l),
(217,45,l),
(212,0,l)
);
}
);
userData = {
com.schriftgestaltung.Glyphs.lastChange = "2021-03-03 00:29:23 +0000";
};
width = 575;
},
{
layerId = master06;
shapes = (
{
closed = 1;
nodes = (
(200,0,l),
(252,0,l),
(270,85,l),
(194,690,l),
(97,690,l)
);
},
{
closed = 1;
nodes = (
(275,0,l),
(672,690,l),
(570,690,l),
(234,85,l),
(223,0,l)
);
}
);
userData = {
com.schriftgestaltung.Glyphs.lastChange = "2021-03-02 23:45:59 +0000";
};
width = 595;
}
);
unicode = 86;
},
{
color = 5;
glyphname = W;
kernLeft = V;
kernRight = V;
layers = (
{
anchors = (
{
name = top;
pos = (561,690);
}
);
layerId = master01;
shapes = (
{
closed = 1;
nodes = (
(155,0,l),
(231,0,l),
(271,161,l),
(248,690,l),
(87,690,l)
);
},
{
closed = 1;
nodes = (
(283,0,l),
(566,543,l),
(596,690,l),
(494,690,l),
(237,161,l),
(209,0,l)
);
},
{
closed = 1;
nodes = (
(549,0,l),
(625,0,l),
(665,161,l),
(629,690,l),
(526,690,l),
(502,543,l)
);
},
{
closed = 1;
nodes = (
(677,0,l),
(1039,690,l),
(872,690,l),
(631,161,l),
(603,0,l)
);
}
);
userData = {
com.schriftgestaltung.Glyphs.lastChange = "2021-03-02 23:46:34 +0000";
};
width = 952;
},
{
anchors = (
{
name = top;
pos = (495,690);
}
);
layerId = master02;
shapes = (
{
closed = 1;
nodes = (
(124,0,l),
(192,0,l),
(233,157,l),
(237,690,l),
(90,690,l)
);
},
{
closed = 1;
nodes = (
(241,0,l),
(494,548,l),
(527,690,l),
(433,690,l),
(205,157,l),
(174,0,l)
);
},
{
closed = 1;
nodes = (
(456,0,l),
(524,0,l),
(565,157,l),
(557,690,l),
(462,690,l),
(436,548,l)
);
},
{
closed = 1;
nodes = (
(573,0,l),
(903,690,l),
(751,690,l),
(537,157,l),
(506,0,l)
);
}
);
userData = {
com.schriftgestaltung.Glyphs.lastChange = "2021-03-03 00:29:32 +0000";
};
width = 818;
},
{
anchors = (
{
name = top;
pos = (461,690);
}
);
layerId = master03;
shapes = (
{
closed = 1;
nodes = (
(128,0,l),
(169,0,l),
(178,51,l),
(166,690,l),
(105,690,l)
);
},
{
closed = 1;
nodes = (
(177,0,l),
(460,614,l),
(472,690,l),
(437,690,l),
(142,51,l),
(137,0,l)
);
},
{
closed = 1;
nodes = (
(453,0,l),
(494,0,l),
(503,51,l),
(487,690,l),
(449,690,l),
(436,614,l)
);
},
{
closed = 1;
nodes = (
(502,0,l),
(819,690,l),
(755,690,l),
(468,51,l),
(462,0,l)
);
}
);
userData = {
com.schriftgestaltung.Glyphs.lastChange = "2021-03-04 13:06:44 +0000";
};
width = 740;
},
{
anchors = (
{
name = top;
pos = (455,690);
}
);
layerId = master04;
shapes = (
{
closed = 1;
nodes = (
(118,0,l),
(166,0,l),
(190,86,l),
(184,690,l),
(99,690,l)
);
},
{
closed = 1;
nodes = (
(192,0,l),
(454,592,l),
(475,690,l),
(415,690,l),
(158,86,l),
(144,0,l)
);
},
{
closed = 1;
nodes = (
(430,0,l),
(478,0,l),
(508,86,l),
(495,690,l),
(436,690,l),
(417,592,l)
);
},
{
closed = 1;
nodes = (
(504,0,l),
(815,690,l),
(726,690,l),
(474,86,l),
(456,0,l)
);
}
);
userData = {
com.schriftgestaltung.Glyphs.lastChange = "2021-03-02 23:38:03 +0000";
};
width = 740;
},
{
anchors = (
{
name = top;
pos = (510,690);
}
);
layerId = master05;
shapes = (
{
closed = 1;
nodes = (
(158,0,l),
(199,0,l),
(208,51,l),
(166,690,l),
(105,690,l)
);
},
{
closed = 1;
nodes = (
(207,0,l),
(520,614,l),
(532,690,l),
(497,690,l),
(172,51,l),
(167,0,l)
);
},
{
closed = 1;
nodes = (
(543,0,l),
(584,0,l),
(593,51,l),
(547,690,l),
(509,690,l),
(496,614,l)
);
},
{
closed = 1;
nodes = (
(592,0,l),
(939,690,l),
(875,690,l),
(558,51,l),
(552,0,l)
);
}
);
userData = {
com.schriftgestaltung.Glyphs.lastChange = "2021-03-03 00:29:23 +0000";
};
width = 870;
},
{
anchors = (
{
name = top;
pos = (535,690);
}
);
layerId = master06;
shapes = (
{
closed = 1;
nodes = (
(157,0,l),
(211,0,l),
(231,90,l),
(195,690,l),
(99,690,l)
);
},
{
closed = 1;
nodes = (
(234,0,l),
(537,589,l),
(555,690,l),
(496,690,l),
(195,90,l),
(182,0,l)
);
},
{
closed = 1;
nodes = (
(545,0,l),
(599,0,l),
(619,90,l),
(576,690,l),
(515,690,l),
(498,589,l)
);
},
{
closed = 1;
nodes = (
(622,0,l),
(975,690,l),
(874,690,l),
(584,90,l),
(570,0,l)
);
}
);
userData = {
com.schriftgestaltung.Glyphs.lastChange = "2021-03-02 23:45:59 +0000";
};
width = 900;
}
);
unicode = 87;
},
{
color = 5;
glyphname = X;
layers = (
{
layerId = master01;
shapes = (
{
closed = 1;
nodes = (
(127,0,l),
(306,248,l),
(377,318,l),
(672,690,l),
(488,690,l),
(323,460,l),
(253,389,l),
(-57,0,l)
);
},
{
closed = 1;
nodes = (
(258,290,l),
(362,0,l),
(535,0,l),
(371,415,l),
(273,690,l),
(100,690,l)
);
}
);
userData = {
com.schriftgestaltung.Glyphs.lastChange = "2021-03-02 23:46:34 +0000";
};
width = 598;
},
{
layerId = master02;
shapes = (
{
closed = 1;
nodes = (
(115,0,l),
(268,250,l),
(333,319,l),
(594,690,l),
(426,690,l),
(289,455,l),
(222,387,l),
(-53,0,l)
);
},
{
closed = 1;
nodes = (
(223,293,l),
(296,0,l),
(454,0,l),
(330,412,l),
(262,690,l),
(104,690,l)
);
}
);
userData = {
com.schriftgestaltung.Glyphs.lastChange = "2021-03-03 00:29:32 +0000";
};
width = 514;
},
{
layerId = master03;
shapes = (
{
closed = 1;
nodes = (
(38,0,l),
(255,314,l),
(276,338,l),
(530,690,l),
(456,690,l),
(251,390,l),
(231,367,l),
(-36,0,l)
);
},
{
closed = 1;
nodes = (
(233,328,l),
(328,0,l),
(393,0,l),
(275,376,l),
(186,690,l),
(121,690,l)
);
}
);
userData = {
com.schriftgestaltung.Glyphs.lastChange = "2021-03-04 13:06:44 +0000";
};
width = 477;
},
{
layerId = master04;
shapes = (
{
closed = 1;
nodes = (
(59,0,l),
(249,293,l),
(288,332,l),
(539,690,l),
(439,690,l),
(260,413,l),
(221,374,l),
(-42,0,l)
);
},
{
closed = 1;
nodes = (
(221,316,l),
(308,0,l),
(400,0,l),
(288,389,l),
(205,690,l),
(113,690,l)
);
}
);
userData = {
com.schriftgestaltung.Glyphs.lastChange = "2021-03-02 23:38:03 +0000";
};
width = 477;
},
{
layerId = master05;
shapes = (
{
closed = 1;
nodes = (
(56,0,l),
(313,314,l),
(334,338,l),
(628,690,l),
(554,690,l),
(309,390,l),
(289,367,l),
(-18,0,l)
);
},
{
closed = 1;
nodes = (
(291,328,l),
(426,0,l),
(491,0,l),
(333,376,l),
(204,690,l),
(139,690,l)
);
}
);
userData = {
com.schriftgestaltung.Glyphs.lastChange = "2021-03-03 00:29:23 +0000";
};
width = 593;
},
{
layerId = master06;
shapes = (
{
closed = 1;
nodes = (
(73,0,l),
(302,291,l),
(341,331,l),
(635,690,l),
(522,690,l),
(306,415,l),
(268,375,l),
(-40,0,l)
);
},
{
closed = 1;
nodes = (
(271,315,l),
(395,0,l),
(498,0,l),
(338,390,l),
(220,690,l),
(117,690,l)
);
}
);
userData = {
com.schriftgestaltung.Glyphs.lastChange = "2021-03-02 23:45:59 +0000";
};
width = 578;
}
);
unicode = 88;
},
{
color = 5;
glyphname = Y;
kernLeft = Y;
kernRight = Y;
layers = (
{
anchors = (
{
name = bottom;
pos = (268,0);
},
{
name = top;
pos = (401,690);
}
);
layerId = master01;
shapes = (
{
closed = 1;
nodes = (
(251,260,l),
(333,260,l),
(358,397,l),
(255,690,l),
(82,690,l)
);
},
{
closed = 1;
nodes = (
(343,0,l),
(405,290,l),
(245,290,l),
(183,0,l)
);
},
{
closed = 1;
nodes = (
(385,260,l),
(738,690,l),
(547,690,l),
(324,397,l),
(311,260,l)
);
}
);
userData = {
com.schriftgestaltung.Glyphs.lastChange = "2021-03-08 23:14:26 +0000";
};
width = 646;
},
{
anchors = (
{
name = bottom;
pos = (233,0);
},
{
name = top;
pos = (364,690);
}
);
layerId = master02;
shapes = (
{
closed = 1;
nodes = (
(217,261,l),
(291,261,l),
(319,392,l),
(247,690,l),
(89,690,l)
);
},
{
closed = 1;
nodes = (
(296,0,l),
(358,291,l),
(212,291,l),
(150,0,l)
);
},
{
closed = 1;
nodes = (
(339,261,l),
(653,690,l),
(479,690,l),
(289,392,l),
(272,261,l)
);
}
);
userData = {
com.schriftgestaltung.Glyphs.lastChange = "2021-03-08 23:03:58 +0000";
};
width = 568;
},
{
anchors = (
{
name = bottom;
pos = (193,0);
},
{
name = top;
pos = (335,690);
}
);
layerId = master03;
shapes = (
{
closed = 1;
nodes = (
(224,280,l),
(262,280,l),
(268,321,l),
(172,690,l),
(106,690,l)
);
},
{
closed = 1;
nodes = (
(221,0,l),
(287,310,l),
(225,310,l),
(159,0,l)
);
},
{
closed = 1;
nodes = (
(276,280,l),
(568,690,l),
(498,690,l),
(245,321,l),
(239,280,l)
);
}
);
userData = {
com.schriftgestaltung.Glyphs.lastChange = "2021-03-08 22:58:01 +0000";
};
width = 499;
},
{
anchors = (
{
name = bottom;
pos = (196,0);
},
{
name = top;
pos = (329,690);
}
);
layerId = master04;
shapes = (
{
closed = 1;
nodes = (
(210,274,l),
(259,274,l),
(274,345,l),
(189,690,l),
(96,690,l)
);
},
{
closed = 1;
nodes = (
(235,0,l),
(305,329,l),
(215,329,l),
(145,0,l)
);
},
{
closed = 1;
nodes = (
(286,274,l),
(578,690,l),
(479,690,l),
(253,345,l),
(238,274,l)
);
}
);
userData = {
com.schriftgestaltung.Glyphs.lastChange = "2021-03-08 23:03:27 +0000";
};
width = 499;
},
{
anchors = (
{
name = bottom;
pos = (226,0);
},
{
name = top;
pos = (363,690);
}
);
layerId = master05;
shapes = (
{
closed = 1;
nodes = (
(255,280,l),
(293,280,l),
(299,321,l),
(163,690,l),
(97,690,l)
);
},
{
closed = 1;
nodes = (
(252,0,l),
(318,310,l),
(256,310,l),
(190,0,l)
);
},
{
closed = 1;
nodes = (
(307,280,l),
(639,690,l),
(569,690,l),
(276,321,l),
(270,280,l)
);
}
);
userData = {
com.schriftgestaltung.Glyphs.lastChange = "2021-03-08 23:04:35 +0000";
};
width = 562;
},
{
anchors = (
{
name = bottom;
pos = (241,0);
},
{
name = top;
pos = (373,690);
}
);
layerId = master06;
shapes = (
{
closed = 1;
nodes = (
(254,273,l),
(307,273,l),
(320,348,l),
(196,690,l),
(92,690,l)
);
},
{
closed = 1;
nodes = (
(284,0,l),
(349,303,l),
(252,303,l),
(188,0,l)
);
},
{
closed = 1;
nodes = (
(335,273,l),
(674,690,l),
(561,690,l),
(293,348,l),
(285,273,l)
);
}
);
userData = {
com.schriftgestaltung.Glyphs.lastChange = "2021-03-08 23:05:02 +0000";
};
width = 592;
}
);
unicode = 89;
},
{
color = 5;
glyphname = Z;
kernLeft = Z;
kernRight = Z;
layers = (
{
anchors = (
{
name = top;
pos = (380,690);
}
);
layerId = master01;
shapes = (
{
closed = 1;
nodes = (
(511,0,l),
(541,140,l),
(74,140,l),
(7,105,l),
(-15,0,l)
);
},
{
closed = 1;
nodes = (
(113,0,l),
(625,585,l),
(520,690,l),
(7,105,l)
);
},
{
closed = 1;
nodes = (
(560,550,l),
(625,585,l),
(648,690,l),
(142,690,l),
(112,550,l)
);
}
);
userData = {
com.schriftgestaltung.Glyphs.lastChange = "2021-03-02 23:46:34 +0000";
};
width = 616;
},
{
anchors = (
{
name = top;
pos = (345,690);
}
);
layerId = master02;
shapes = (
{
closed = 1;
nodes = (
(436,0,l),
(464,134,l),
(73,134,l),
(10,100,l),
(-11,0,l)
);
},
{
closed = 1;
nodes = (
(103,0,l),
(550,590,l),
(458,690,l),
(10,100,l)
);
},
{
closed = 1;
nodes = (
(489,556,l),
(550,590,l),
(572,690,l),
(143,690,l),
(114,556,l)
);
}
);
userData = {
com.schriftgestaltung.Glyphs.lastChange = "2021-03-03 00:29:32 +0000";
};
width = 544;
},
{
anchors = (
{
name = top;
pos = (341,690);
}
);
layerId = master03;
shapes = (
{
closed = 1;
nodes = (
(386,0,l),
(397,54,l),
(25,54,l),
(8,42,l),
(-1,0,l)
);
},
{
closed = 1;
nodes = (
(50,0,l),
(516,648,l),
(473,690,l),
(8,42,l)
);
},
{
closed = 1;
nodes = (
(496,636,l),
(516,648,l),
(525,690,l),
(154,690,l),
(142,636,l)
);
}
);
userData = {
com.schriftgestaltung.Glyphs.lastChange = "2021-03-04 13:06:44 +0000";
};
width = 495;
},
{
anchors = (
{
name = top;
pos = (324,690);
}
);
layerId = master04;
shapes = (
{
closed = 1;
nodes = (
(387,0,l),
(404,82,l),
(37,82,l),
(2,62,l),
(-11,0,l)
);
},
{
closed = 1;
nodes = (
(56,0,l),
(510,628,l),
(455,690,l),
(2,62,l)
);
},
{
closed = 1;
nodes = (
(473,608,l),
(510,628,l),
(524,690,l),
(139,690,l),
(121,608,l)
);
}
);
userData = {
com.schriftgestaltung.Glyphs.lastChange = "2021-03-02 23:38:03 +0000";
};
width = 495;
},
{
anchors = (
{
name = top;
pos = (381,690);
}
);
layerId = master05;
shapes = (
{
closed = 1;
nodes = (
(468,0,l),
(479,54,l),
(27,54,l),
(10,42,l),
(1,0,l)
);
},
{
closed = 1;
nodes = (
(52,0,l),
(598,648,l),
(555,690,l),
(10,42,l)
);
},
{
closed = 1;
nodes = (
(578,636,l),
(598,648,l),
(607,690,l),
(156,690,l),
(144,636,l)
);
}
);
userData = {
com.schriftgestaltung.Glyphs.lastChange = "2021-03-02 23:45:43 +0000";
};
width = 589;
},
{
anchors = (
{
name = top;
pos = (384,690);
}
);
layerId = master06;
shapes = (
{
closed = 1;
nodes = (
(489,0,l),
(507,85,l),
(50,85,l),
(15,64,l),
(1,0,l)
);
},
{
closed = 1;
nodes = (
(82,0,l),
(614,626,l),
(547,690,l),
(15,64,l)
);
},
{
closed = 1;
nodes = (
(578,605,l),
(614,626,l),
(627,690,l),
(157,690,l),
(139,605,l)
);
}
);
userData = {
com.schriftgestaltung.Glyphs.lastChange = "2021-03-02 23:45:59 +0000";
};
width = 611;
}
);
unicode = 90;
},
{
color = 5;
glyphname = a;
kernLeft = a;
kernRight = a;
layers = (
{
anchors = (
{
name = bottom;
pos = (254,0);
},
{
name = ogonek;
pos = (492,0);
},
{
name = top;
pos = (356,525);
}
);
layerId = master01;
shapes = (
{
closed = 1;
nodes = (
(22,70,o),
(86,-12,o),
(184,-12,c),
(259,-12,o),
(326,31,o),
(367,101,c),
(348,111,l),
(348,0,l),
(492,0,l),
(492,49,ls),
(492,78,o),
(493,97,o),
(499,125,cs),
(584,525,l),
(447,525,l),
(425,480,l),
(385,294,ls),
(361,184,o),
(292,120,o),
(233,120,c),
(197,120,o),
(176,146,o),
(176,207,cs),
(176,302,o),
(231,414,o),
(322,414,c),
(363,414,o),
(399,393,o),
(428,356,c),
(449,481,l),
(413,516,o),
(361,537,o),
(306,537,c),
(154,537,o),
(22,371,o),
(22,189,cs)
);
}
);
userData = {
com.schriftgestaltung.Glyphs.lastChange = "2021-03-07 22:28:18 +0000";
};
width = 598;
},
{
anchors = (
{
name = bottom;
pos = (218,0);
},
{
name = ogonek;
pos = (414,0);
},
{
name = top;
pos = (309,525);
}
);
layerId = master02;
shapes = (
{
closed = 1;
nodes = (
(16,63,o),
(65,-12,o),
(149,-12,c),
(208,-12,o),
(265,31,o),
(302,101,c),
(286,111,l),
(283,0,l),
(414,0,l),
(416,50,ls),
(417,79,o),
(418,96,o),
(424,125,cs),
(509,525,l),
(383,525,l),
(364,483,l),
(324,298,ls),
(299,184,o),
(243,123,o),
(203,123,c),
(177,123,o),
(158,144,o),
(158,199,c),
(158,300,o),
(205,412,o),
(278,412,c),
(309,412,o),
(338,400,o),
(362,363,c),
(385,485,l),
(356,519,o),
(313,537,o),
(269,537,c),
(136,537,o),
(16,356,o),
(16,178,c)
);
}
);
userData = {
com.schriftgestaltung.Glyphs.lastChange = "2021-03-08 23:43:59 +0000";
};
width = 522;
},
{
anchors = (
{
name = bottom;
pos = (202,0);
},
{
name = ogonek;
pos = (375,0);
},
{
name = top;
pos = (308,510);
}
);
layerId = master03;
shapes = (
{
closed = 1;
nodes = (
(49,62,o),
(95,-8,o),
(176,-8,cs),
(251,-8,o),
(290,37,o),
(332,108,c),
(323,113,l),
(319,0,l),
(375,0,l),
(375,25,ls),
(375,58,o),
(379,89,o),
(386,122,cs),
(468,510,l),
(416,510,l),
(393,439,l),
(349,232,ls),
(324,112,o),
(262,45,o),
(192,45,cs),
(131,45,o),
(110,98,o),
(110,176,cs),
(110,337,o),
(192,466,o),
(291,466,cs),
(338,466,o),
(368,450,o),
(402,405,c),
(414,455,l),
(382,494,o),
(348,518,o),
(296,518,cs),
(161,518,o),
(49,368,o),
(49,170,cs)
);
}
);
userData = {
com.schriftgestaltung.Glyphs.lastChange = "2021-03-07 21:07:25 +0000";
};
width = 500;
},
{
anchors = (
{
name = bottom;
pos = (201,0);
},
{
name = ogonek;
pos = (380,0);
},
{
name = top;
pos = (308,514);
}
);
layerId = master04;
shapes = (
{
closed = 1;
nodes = (
(29,46,o),
(87,-10,o),
(155,-10,c),
(214,-10,o),
(274,30,o),
(312,100,c),
(301,113,l),
(296,0,l),
(380,0,l),
(380,33,ls),
(380,65,o),
(383,92,o),
(390,124,c),
(473,515,l),
(394,515,l),
(373,452,l),
(331,252,l),
(305,130,o),
(242,67,o),
(185,67,cs),
(141,67,o),
(118,105,o),
(117,178,cs),
(116,319,o),
(196,450,o),
(278,450,cs),
(310,450,o),
(345,437,o),
(374,397,c),
(389,460,l),
(361,501,o),
(319,525,o),
(274,525,c),
(150,525,o),
(29,363,o),
(29,170,cs)
);
}
);
userData = {
com.schriftgestaltung.Glyphs.lastChange = "2021-03-07 21:19:30 +0000";
};
width = 501;
},
{
anchors = (
{
name = bottom;
pos = (222,0);
},
{
name = ogonek;
pos = (418,0);
},
{
name = top;
pos = (339,510);
}
);
layerId = master05;
shapes = (
{
closed = 1;
nodes = (
(42,52,o),
(110,-8,o),
(189,-8,cs),
(261,-8,o),
(333,37,o),
(375,108,c),
(366,113,l),
(362,0,l),
(418,0,l),
(418,25,ls),
(418,58,o),
(422,89,o),
(429,122,cs),
(511,510,l),
(459,510,l),
(436,439,l),
(392,232,ls),
(367,112,o),
(277,45,o),
(205,45,cs),
(146,45,o),
(103,88,o),
(103,176,cs),
(103,337,o),
(205,466,o),
(304,466,cs),
(353,466,o),
(396,448,o),
(437,403,c),
(447,455,l),
(407,499,o),
(357,518,o),
(309,518,cs),
(175,518,o),
(42,368,o),
(42,170,cs)
);
}
);
userData = {
com.schriftgestaltung.Glyphs.lastChange = "2021-03-07 21:36:34 +0000";
};
width = 551;
},
{
anchors = (
{
name = bottom;
pos = (244,0);
},
{
name = ogonek;
pos = (449,0);
},
{
name = top;
pos = (353,515);
}
);
layerId = master06;
shapes = (
{
closed = 1;
nodes = (
(39,58,o),
(109,-10,o),
(195,-10,c),
(268,-10,o),
(335,29,o),
(377,100,c),
(364,112,l),
(361,0,l),
(449,0,l),
(449,34,ls),
(449,65,o),
(451,92,o),
(458,123,cs),
(541,515,l),
(459,515,l),
(436,454,l),
(394,254,ls),
(370,138,o),
(287,72,o),
(219,72,c),
(168,72,o),
(133,109,o),
(133,187,c),
(133,325,o),
(219,448,o),
(315,448,c),
(361,448,o),
(401,428,o),
(438,386,c),
(452,464,l),
(413,505,o),
(363,525,o),
(312,525,c),
(172,525,o),
(39,369,o),
(39,177,c)
);
}
);
userData = {
com.schriftgestaltung.Glyphs.lastChange = "2021-03-07 21:55:43 +0000";
};
width = 580;
}
);
unicode = 97;
},
{
color = 5;
glyphname = ae;
kernLeft = a;
kernRight = e;
layers = (
{
anchors = (
{
name = top;
pos = (477,525);
}
);
layerId = master01;
shapes = (
{
closed = 1;
nodes = (
(4,53,o),
(57,-12,o),
(151,-12,c),
(248,-12,o),
(316,28,o),
(382,93,c),
(346,160,l),
(301,127,o),
(271,104,o),
(217,104,c),
(169,104,o),
(155,128,o),
(155,148,cs),
(155,207,o),
(253,221,o),
(324,221,cs),
(339,221,o),
(352,221,o),
(364,220,c),
(382,310,l),
(358,311,o),
(316,312,o),
(281,312,c),
(123,312,o),
(4,254,o),
(4,124,cs)
);
},
{
closed = 1;
nodes = (
(116,372,l),
(159,391,o),
(211,405,o),
(266,405,cs),
(324,405,o),
(353,385,o),
(353,344,cs),
(353,336,o),
(352,328,o),
(342,280,c),
(481,280,l),
(494,347,o),
(497,367,o),
(497,386,cs),
(497,485,o),
(421,537,o),
(317,537,cs),
(226,537,o),
(157,516,o),
(101,493,c)
);
},
{
closed = 1;
nodes = (
(332,65,o),
(413,-12,o),
(545,-12,c),
(627,-12,o),
(688,10,o),
(767,61,c),
(707,158,l),
(665,128,o),
(627,111,o),
(579,111,c),
(517,111,o),
(486,146,o),
(486,205,cs),
(486,368,o),
(562,416,o),
(619,416,c),
(660,416,o),
(679,400,o),
(679,374,c),
(679,314,o),
(583,306,o),
(459,306,cs),
(458,306,o),
(456,306,o),
(455,306,c),
(434,215,l),
(448,215,o),
(458,214,o),
(472,214,cs),
(665,214,o),
(823,248,o),
(823,390,c),
(823,473,o),
(755,537,o),
(650,537,cs),
(455,537,o),
(332,371,o),
(332,182,c)
);
}
);
userData = {
com.schriftgestaltung.Glyphs.lastChange = "2021-03-02 23:46:34 +0000";
};
width = 847;
},
{
anchors = (
{
name = top;
pos = (406,526);
}
);
layerId = master02;
shapes = (
{
closed = 1;
nodes = (
(-9,54,o),
(37,-12,o),
(123,-12,c),
(202,-12,o),
(263,29,o),
(312,93,c),
(281,161,l),
(243,124,o),
(212,106,o),
(178,106,c),
(146,106,o),
(130,124,o),
(130,148,c),
(130,187,o),
(175,219,o),
(270,219,cs),
(281,219,o),
(292,219,o),
(299,218,c),
(318,311,l),
(297,312,o),
(261,313,o),
(231,313,cs),
(97,313,o),
(-9,255,o),
(-9,128,c)
);
},
{
closed = 1;
nodes = (
(94,371,l),
(130,389,o),
(174,403,o),
(221,403,cs),
(269,403,o),
(291,382,o),
(291,347,c),
(291,335,o),
(289,311,o),
(280,279,c),
(406,280,l),
(420,349,o),
(409,367,o),
(409,386,cs),
(409,486,o),
(352,537,o),
(268,537,c),
(192,537,o),
(134,519,o),
(86,496,c)
);
},
{
closed = 1;
nodes = (
(265,66,o),
(332,-12,o),
(447,-12,cs),
(516,-12,o),
(567,7,o),
(639,57,c),
(589,158,l),
(552,129,o),
(522,115,o),
(483,115,cs),
(432,115,o),
(409,150,o),
(411,207,cs),
(416,371,o),
(478,415,o),
(523,415,cs),
(550,415,o),
(564,398,o),
(564,373,cs),
(564,333,o),
(528,307,o),
(388,307,cs),
(387,307,o),
(385,307,o),
(384,307,c),
(362,213,l),
(369,213,o),
(377,213,o),
(384,213,cs),
(576,213,o),
(696,266,o),
(696,390,cs),
(696,474,o),
(641,537,o),
(551,537,cs),
(383,537,o),
(275,372,o),
(269,183,c)
);
}
);
userData = {
com.schriftgestaltung.Glyphs.lastChange = "2021-03-02 23:44:54 +0000";
};
width = 719;
},
{
anchors = (
{
name = top;
pos = (396,510);
}
);
layerId = master03;
shapes = (
{
closed = 1;
nodes = (
(49,49,o),
(88,-8,o),
(167,-8,cs),
(218,-8,o),
(258,22,o),
(317,102,c),
(304,149,l),
(262,83,o),
(218,46,o),
(174,46,cs),
(122,46,o),
(110,86,o),
(110,132,cs),
(110,211,o),
(183,259,o),
(237,259,cs),
(261,259,o),
(287,258,o),
(311,257,c),
(320,299,l),
(301,301,o),
(268,303,o),
(242,303,cs),
(150,303,o),
(49,245,o),
(49,130,cs)
);
},
{
closed = 1;
nodes = (
(106,434,l),
(157,460,o),
(185,463,o),
(233,463,cs),
(297,463,o),
(324,436,o),
(324,370,cs),
(324,353,o),
(323,343,o),
(312,292,c),
(369,276,l),
(378,321,o),
(386,361,o),
(386,381,cs),
(386,472,o),
(335,518,o),
(245,518,cs),
(191,518,o),
(142,508,o),
(88,481,c)
);
},
{
closed = 1;
nodes = (
(294,55,o),
(339,-8,o),
(425,-8,cs),
(486,-8,o),
(534,23,o),
(582,81,c),
(545,116,l),
(505,68,o),
(472,47,o),
(430,47,cs),
(372,47,o),
(354,87,o),
(354,176,cs),
(354,318,o),
(406,463,o),
(508,463,cs),
(565,463,o),
(585,430,o),
(585,390,cs),
(585,335,o),
(557,286,o),
(445,286,cs),
(413,286,o),
(396,289,o),
(354,295,c),
(345,246,l),
(390,239,o),
(411,236,o),
(447,236,cs),
(596,236,o),
(644,313,o),
(644,393,cs),
(644,460,o),
(606,518,o),
(514,518,cs),
(377,518,o),
(294,349,o),
(294,165,cs)
);
}
);
userData = {
com.schriftgestaltung.Glyphs.lastChange = "2021-03-04 23:04:20 +0000";
};
width = 669;
},
{
anchors = (
{
name = top;
pos = (413,514);
}
);
layerId = master04;
shapes = (
{
closed = 1;
nodes = (
(16,43,o),
(69,-10,o),
(147,-10,cs),
(205,-10,o),
(267,18,o),
(321,89,c),
(306,148,l),
(268,95,o),
(217,64,o),
(172,64,cs),
(129,64,o),
(105,91,o),
(105,130,cs),
(105,203,o),
(190,248,o),
(268,248,cs),
(285,248,o),
(301,247,o),
(316,246,c),
(329,302,l),
(311,305,o),
(280,306,o),
(254,306,cs),
(124,306,o),
(16,240,o),
(16,124,cs)
);
},
{
closed = 1;
nodes = (
(122,404,l),
(163,431,o),
(214,445,o),
(251,445,cs),
(299,445,o),
(321,421,o),
(321,362,cs),
(321,345,o),
(319,339,o),
(309,289,c),
(391,277,l),
(399,329,o),
(403,363,o),
(403,383,cs),
(406,476,o),
(347,525,o),
(262,525,cs),
(204,525,o),
(136,504,o),
(89,480,c)
);
},
{
closed = 1;
nodes = (
(297,57,o),
(361,-10,o),
(449,-10,cs),
(518,-10,o),
(578,26,o),
(628,81,c),
(579,135,l),
(546,94,o),
(510,67,o),
(468,67,cs),
(412,67,o),
(381,105,o),
(381,185,cs),
(381,333,o),
(466,448,o),
(547,448,cs),
(588,448,o),
(606,420,o),
(605,385,cs),
(603,329,o),
(543,291,o),
(428,291,cs),
(413,291,o),
(394,292,o),
(374,296,c),
(360,240,l),
(385,234,o),
(409,233,o),
(427,233,cs),
(588,233,o),
(685,293,o),
(688,392,c),
(691,466,o),
(644,525,o),
(561,525,cs),
(415,525,o),
(297,355,o),
(297,170,cs)
);
}
);
userData = {
com.schriftgestaltung.Glyphs.lastChange = "2021-03-02 23:38:03 +0000";
};
width = 714;
},
{
anchors = (
{
name = top;
pos = (486,510);
}
);
layerId = master05;
shapes = (
{
closed = 1;
nodes = (
(19,39,o),
(78,-8,o),
(157,-8,c),
(228,-8,o),
(288,22,o),
(367,102,c),
(354,149,l),
(292,83,o),
(228,46,o),
(164,46,c),
(112,46,o),
(80,76,o),
(80,122,c),
(80,201,o),
(173,259,o),
(287,259,cs),
(311,259,o),
(337,258,o),
(361,257,c),
(370,299,l),
(351,301,o),
(318,303,o),
(292,303,cs),
(140,303,o),
(19,235,o),
(19,120,c)
);
},
{
closed = 1;
nodes = (
(126,425,l),
(177,451,o),
(225,463,o),
(273,463,cs),
(337,463,o),
(374,436,o),
(374,370,cs),
(374,353,o),
(373,343,o),
(362,292,c),
(419,276,l),
(428,321,o),
(436,361,o),
(436,381,cs),
(436,472,o),
(375,518,o),
(285,518,cs),
(231,518,o),
(162,499,o),
(108,472,c)
);
},
{
closed = 1;
nodes = (
(344,55,o),
(419,-8,o),
(515,-8,cs),
(597,-8,o),
(664,33,o),
(712,91,c),
(675,126,l),
(635,78,o),
(583,47,o),
(520,47,cs),
(452,47,o),
(404,87,o),
(404,176,cs),
(404,318,o),
(506,463,o),
(628,463,c),
(685,463,o),
(715,430,o),
(715,390,cs),
(715,335,o),
(667,286,o),
(515,286,cs),
(483,286,o),
(446,289,o),
(404,295,c),
(395,246,l),
(440,239,o),
(481,236,o),
(517,236,cs),
(706,236,o),
(774,313,o),
(774,393,c),
(774,460,o),
(726,518,o),
(634,518,c),
(477,518,o),
(344,349,o),
(344,165,cs)
);
}
);
userData = {
com.schriftgestaltung.Glyphs.lastChange = "2021-03-02 23:45:43 +0000";
};
width = 804;
},
{
anchors = (
{
name = top;
pos = (464,515);
}
);
layerId = master06;
shapes = (
{
closed = 1;
nodes = (
(14,44,o),
(71,-10,o),
(156,-10,c),
(230,-10,o),
(299,16,o),
(373,91,c),
(352,153,l),
(296,99,o),
(244,67,o),
(183,67,c),
(133,67,o),
(107,94,o),
(107,131,c),
(107,203,o),
(202,246,o),
(301,246,cs),
(322,246,o),
(343,245,o),
(363,244,c),
(375,303,l),
(354,305,o),
(318,306,o),
(289,306,cs),
(135,306,o),
(14,242,o),
(14,121,c)
);
},
{
closed = 1;
nodes = (
(123,406,l),
(171,430,o),
(221,442,o),
(271,442,cs),
(333,442,o),
(367,418,o),
(367,361,cs),
(367,347,o),
(366,338,o),
(356,288,c),
(442,277,l),
(452,330,o),
(458,363,o),
(458,383,cs),
(458,477,o),
(392,525,o),
(297,525,cs),
(230,525,o),
(161,505,o),
(106,479,c)
);
},
{
closed = 1;
nodes = (
(340,59,o),
(418,-10,o),
(526,-10,cs),
(608,-10,o),
(673,25,o),
(732,80,c),
(687,137,l),
(646,96,o),
(599,70,o),
(542,70,cs),
(476,70,o),
(434,108,o),
(434,186,cs),
(434,336,o),
(527,446,o),
(625,446,c),
(677,446,o),
(703,419,o),
(703,384,cs),
(703,328,o),
(638,293,o),
(496,293,cs),
(475,293,o),
(450,295,o),
(423,299,c),
(410,235,l),
(444,230,o),
(474,228,o),
(502,228,cs),
(692,228,o),
(792,290,o),
(792,392,c),
(792,465,o),
(737,525,o),
(640,525,c),
(470,525,o),
(340,357,o),
(340,171,cs)
);
}
);
userData = {
com.schriftgestaltung.Glyphs.lastChange = "2021-03-02 23:45:59 +0000";
};
width = 827;
}
);
unicode = 230;
},
{
color = 5;
glyphname = b;
kernLeft = l;
kernRight = o;
layers = (
{
layerId = master01;
shapes = (
{
closed = 1;
nodes = (
(142,0,l),
(164,45,l),
(204,231,ls),
(228,341,o),
(297,405,o),
(356,405,c),
(392,405,o),
(413,379,o),
(413,318,c),
(413,223,o),
(358,111,o),
(267,111,c),
(226,111,o),
(190,132,o),
(161,169,c),
(140,44,l),
(176,9,o),
(228,-12,o),
(283,-12,c),
(435,-12,o),
(567,154,o),
(567,336,c),
(567,455,o),
(503,537,o),
(405,537,c),
(330,537,o),
(265,494,o),
(224,424,c),
(243,414,l),
(311,735,l),
(157,715,l),
(5,0,l)
);
}
);
userData = {
com.schriftgestaltung.Glyphs.lastChange = "2021-03-02 23:46:34 +0000";
};
width = 597;
},
{
layerId = master02;
shapes = (
{
closed = 1;
nodes = (
(126,0,l),
(145,42,l),
(185,227,ls),
(210,341,o),
(266,402,o),
(306,402,c),
(332,402,o),
(351,381,o),
(351,326,c),
(351,225,o),
(304,113,o),
(231,113,c),
(200,113,o),
(171,125,o),
(147,162,c),
(124,40,l),
(153,6,o),
(196,-12,o),
(240,-12,c),
(373,-12,o),
(493,169,o),
(493,347,c),
(493,462,o),
(444,537,o),
(360,537,c),
(301,537,o),
(244,494,o),
(207,424,c),
(224,414,l),
(293,735,l),
(152,715,l),
(0,0,l)
);
}
);
userData = {
com.schriftgestaltung.Glyphs.lastChange = "2021-03-02 23:44:54 +0000";
};
width = 517;
},
{
layerId = master03;
shapes = (
{
closed = 1;
nodes = (
(83,0,l),
(106,71,l),
(150,278,ls),
(175,398,o),
(238,465,o),
(297,465,cs),
(344,465,o),
(383,410,o),
(383,324,cs),
(383,183,o),
(327,44,o),
(218,44,cs),
(184,44,o),
(141,58,o),
(105,107,c),
(95,55,l),
(135,11,o),
(170,-8,o),
(213,-8,cs),
(357,-8,o),
(444,152,o),
(444,330,cs),
(444,447,o),
(392,518,o),
(323,518,cs),
(261,518,o),
(206,482,o),
(164,411,c),
(175,397,l),
(247,731,l),
(184,717,l),
(31,0,l)
);
}
);
userData = {
com.schriftgestaltung.Glyphs.lastChange = "2021-03-04 23:04:20 +0000";
};
width = 497;
},
{
layerId = master04;
shapes = (
{
closed = 1;
nodes = (
(92,0,l),
(113,63,l),
(156,263,ls),
(182,385,o),
(245,448,o),
(302,448,cs),
(343,448,o),
(370,419,o),
(370,340,cs),
(370,191,o),
(291,65,o),
(209,65,cs),
(177,65,o),
(142,78,o),
(113,118,c),
(98,55,l),
(126,14,o),
(168,-10,o),
(213,-10,cs),
(337,-10,o),
(458,154,o),
(458,350,cs),
(458,471,o),
(400,525,o),
(332,525,cs),
(273,525,o),
(213,485,o),
(175,415,c),
(186,402,l),
(257,732,l),
(165,716,l),
(13,0,l)
);
}
);
userData = {
com.schriftgestaltung.Glyphs.lastChange = "2021-03-02 23:38:03 +0000";
};
width = 497;
},
{
layerId = master05;
shapes = (
{
closed = 1;
nodes = (
(83,0,l),
(106,71,l),
(150,278,ls),
(175,398,o),
(265,465,o),
(337,465,c),
(396,465,o),
(439,422,o),
(439,334,c),
(439,173,o),
(337,44,o),
(238,44,c),
(189,44,o),
(146,62,o),
(105,107,c),
(95,55,l),
(135,11,o),
(185,-8,o),
(233,-8,c),
(367,-8,o),
(500,142,o),
(500,340,c),
(500,458,o),
(432,518,o),
(353,518,c),
(281,518,o),
(209,473,o),
(167,402,c),
(175,397,l),
(247,731,l),
(184,717,l),
(31,0,l)
);
}
);
userData = {
com.schriftgestaltung.Glyphs.lastChange = "2021-03-04 00:13:29 +0000";
};
width = 553;
},
{
layerId = master06;
shapes = (
{
closed = 1;
nodes = (
(109,0,l),
(132,62,l),
(174,261,ls),
(199,378,o),
(281,444,o),
(349,444,c),
(400,444,o),
(435,407,o),
(435,328,c),
(435,191,o),
(350,68,o),
(253,68,c),
(207,68,o),
(167,87,o),
(130,129,c),
(116,51,l),
(155,10,o),
(205,-10,o),
(256,-10,c),
(396,-10,o),
(529,146,o),
(529,339,c),
(529,457,o),
(459,525,o),
(374,525,c),
(301,525,o),
(234,486,o),
(192,416,c),
(204,403,l),
(274,732,l),
(179,716,l),
(27,0,l)
);
}
);
userData = {
com.schriftgestaltung.Glyphs.lastChange = "2021-03-02 23:45:59 +0000";
};
width = 578;
}
);
unicode = 98;
},
{
color = 5;
glyphname = c;
kernLeft = o;
kernRight = c;
layers = (
{
anchors = (
{
name = bottom;
pos = (224,0);
},
{
name = top;
pos = (320,525);
}
);
layerId = master01;
shapes = (
{
closed = 1;
nodes = (
(22,71,o),
(102,-12,o),
(223,-12,cs),
(293,-12,o),
(358,8,o),
(432,56,c),
(371,165,l),
(332,138,o),
(294,119,o),
(256,119,cs),
(205,119,o),
(176,150,o),
(176,207,cs),
(176,300,o),
(230,406,o),
(310,406,cs),
(339,406,o),
(371,394,o),
(392,372,c),
(483,474,l),
(451,509,o),
(391,537,o),
(330,537,cs),
(149,537,o),
(22,371,o),
(22,188,cs)
);
}
);
userData = {
com.schriftgestaltung.Glyphs.lastChange = "2021-03-04 00:17:26 +0000";
};
width = 483;
},
{
anchors = (
{
name = bottom;
pos = (183,0);
},
{
name = top;
pos = (308,526);
}
);
layerId = master02;
shapes = (
{
closed = 1;
nodes = (
(15,71,o),
(85,-12,o),
(203,-12,cs),
(255,-12,o),
(300,4,o),
(343,28,c),
(312,141,l),
(291,128,o),
(264,119,o),
(240,119,cs),
(193,119,o),
(160,153,o),
(160,215,cs),
(160,303,o),
(210,406,o),
(301,406,cs),
(325,406,o),
(348,397,o),
(364,384,c),
(443,497,l),
(410,521,o),
(372,537,o),
(320,537,cs),
(138,537,o),
(15,370,o),
(15,190,cs)
);
}
);
userData = {
com.schriftgestaltung.Glyphs.lastChange = "2021-03-04 00:25:17 +0000";
};
width = 410;
},
{
anchors = (
{
name = bottom;
pos = (195,0);
},
{
name = top;
pos = (303,510);
}
);
layerId = master03;
shapes = (
{
closed = 1;
nodes = (
(37,55,o),
(88,-8,o),
(186,-8,cs),
(261,-8,o),
(307,32,o),
(352,87,c),
(314,122,l),
(278,78,o),
(240,47,o),
(191,47,cs),
(125,47,o),
(97,89,o),
(97,176,cs),
(97,319,o),
(176,463,o),
(295,463,cs),
(317,463,o),
(348,449,o),
(366,411,c),
(414,437,l),
(392,492,o),
(341,518,o),
(300,518,cs),
(144,518,o),
(37,351,o),
(37,166,cs)
);
}
);
userData = {
com.schriftgestaltung.Glyphs.lastChange = "2021-03-04 23:04:20 +0000";
};
width = 425;
},
{
anchors = (
{
name = bottom;
pos = (178,0);
},
{
name = top;
pos = (283,514);
}
);
layerId = master04;
shapes = (
{
closed = 1;
nodes = (
(30,61,o),
(84,-10,o),
(179,-10,cs),
(241,-10,o),
(304,26,o),
(352,83,c),
(300,138,l),
(267,96,o),
(231,67,o),
(192,67,cs),
(143,67,o),
(118,109,o),
(118,190,cs),
(118,322,o),
(196,446,o),
(286,446,cs),
(317,446,o),
(340,428,o),
(358,392,c),
(420,447,l),
(396,494,o),
(351,525,o),
(292,525,cs),
(139,525,o),
(30,357,o),
(30,170,cs)
);
}
);
userData = {
com.schriftgestaltung.Glyphs.lastChange = "2021-03-04 00:16:33 +0000";
};
width = 425;
},
{
anchors = (
{
name = bottom;
pos = (205,0);
},
{
name = top;
pos = (313,510);
}
);
layerId = master05;
shapes = (
{
closed = 1;
nodes = (
(41,55,o),
(105,-8,o),
(200,-8,cs),
(282,-8,o),
(347,33,o),
(394,91,c),
(356,126,l),
(317,78,o),
(263,47,o),
(205,47,cs),
(141,47,o),
(101,89,o),
(101,176,cs),
(101,319,o),
(194,463,o),
(313,463,cs),
(359,463,o),
(388,444,o),
(409,403,c),
(458,434,l),
(432,488,o),
(378,518,o),
(318,518,cs),
(162,518,o),
(41,351,o),
(41,166,cs)
);
}
);
userData = {
com.schriftgestaltung.Glyphs.lastChange = "2021-03-04 00:14:43 +0000";
};
width = 481;
},
{
anchors = (
{
name = bottom;
pos = (215,0);
},
{
name = top;
pos = (321,515);
}
);
layerId = master06;
shapes = (
{
closed = 1;
nodes = (
(38,61,o),
(107,-10,o),
(212,-10,cs),
(289,-10,o),
(354,24,o),
(411,79,c),
(365,140,l),
(326,99,o),
(277,72,o),
(226,72,cs),
(167,72,o),
(131,111,o),
(131,187,cs),
(131,312,o),
(210,443,o),
(315,443,cs),
(355,443,o),
(385,426,o),
(406,392,c),
(470,448,l),
(442,495,o),
(386,525,o),
(326,525,cs),
(161,525,o),
(38,358,o),
(38,174,cs)
);
}
);
userData = {
com.schriftgestaltung.Glyphs.lastChange = "2021-03-04 00:14:57 +0000";
};
width = 495;
}
);
unicode = 99;
},
{
color = 5;
glyphname = d;
kernLeft = o;
kernRight = l;
layers = (
{
anchors = (
{
name = caron.alt;
pos = (691,720);
}
);
layerId = master01;
shapes = (
{
closed = 1;
nodes = (
(22,70,o),
(86,-12,o),
(184,-12,c),
(259,-12,o),
(326,31,o),
(367,101,c),
(348,111,l),
(348,0,l),
(492,0,l),
(492,49,ls),
(492,78,o),
(493,97,o),
(499,125,cs),
(628,735,l),
(475,715,l),
(385,294,ls),
(361,184,o),
(292,120,o),
(233,120,c),
(197,120,o),
(176,146,o),
(176,207,cs),
(176,302,o),
(231,417,o),
(322,417,c),
(363,417,o),
(399,398,o),
(428,356,c),
(457,491,l),
(417,521,o),
(368,537,o),
(318,537,c),
(146,537,o),
(22,371,o),
(22,189,cs)
);
}
);
userData = {
com.schriftgestaltung.Glyphs.lastChange = "2021-03-02 23:46:34 +0000";
};
width = 598;
},
{
anchors = (
{
name = caron.alt;
pos = (602,720);
}
);
layerId = master02;
shapes = (
{
closed = 1;
nodes = (
(16,63,o),
(65,-12,o),
(149,-12,c),
(208,-12,o),
(265,31,o),
(302,101,c),
(286,111,l),
(283,0,l),
(414,0,l),
(416,50,ls),
(417,79,o),
(418,96,o),
(424,125,cs),
(553,735,l),
(413,715,l),
(324,298,ls),
(300,184,o),
(243,123,o),
(203,123,c),
(177,123,o),
(158,144,o),
(158,199,c),
(158,300,o),
(205,412,o),
(278,412,c),
(309,412,o),
(338,400,o),
(362,363,c),
(385,485,l),
(356,519,o),
(313,537,o),
(269,537,c),
(136,537,o),
(16,356,o),
(16,178,c)
);
}
);
userData = {
com.schriftgestaltung.Glyphs.lastChange = "2021-03-02 23:44:54 +0000";
};
width = 522;
},
{
anchors = (
{
name = caron.alt;
pos = (564,720);
}
);
layerId = master03;
shapes = (
{
closed = 1;
nodes = (
(39,52,o),
(87,-8,o),
(166,-8,cs),
(238,-8,o),
(295,37,o),
(332,108,c),
(323,113,l),
(319,0,l),
(375,0,l),
(375,25,ls),
(375,58,o),
(379,89,o),
(386,122,cs),
(515,731,l),
(452,717,l),
(349,232,ls),
(324,112,o),
(254,45,o),
(182,45,cs),
(123,45,o),
(100,88,o),
(100,176,cs),
(100,337,o),
(182,466,o),
(281,466,cs),
(330,466,o),
(363,448,o),
(394,403,c),
(404,455,l),
(374,499,o),
(334,518,o),
(286,518,cs),
(152,518,o),
(39,368,o),
(39,170,cs)
);
}
);
userData = {
com.schriftgestaltung.Glyphs.lastChange = "2021-03-04 23:04:20 +0000";
};
width = 499;
},
{
anchors = (
{
name = caron.alt;
pos = (587,720);
}
);
layerId = master04;
shapes = (
{
closed = 1;
nodes = (
(28,46,o),
(86,-10,o),
(154,-10,c),
(213,-10,o),
(273,30,o),
(311,100,c),
(300,113,l),
(294,0,l),
(378,0,l),
(379,33,ls),
(380,65,o),
(383,92,o),
(390,124,cs),
(520,732,l),
(428,716,l),
(330,252,ls),
(304,130,o),
(241,67,o),
(184,67,c),
(141,67,o),
(118,97,o),
(118,180,c),
(118,326,o),
(196,450,o),
(277,450,c),
(309,450,o),
(344,437,o),
(373,397,c),
(388,460,l),
(360,501,o),
(318,525,o),
(273,525,c),
(149,525,o),
(28,363,o),
(28,170,c)
);
}
);
userData = {
com.schriftgestaltung.Glyphs.lastChange = "2021-03-02 23:38:03 +0000";
};
width = 499;
},
{
anchors = (
{
name = caron.alt;
pos = (644,720);
}
);
layerId = master05;
shapes = (
{
closed = 1;
nodes = (
(42,52,o),
(110,-8,o),
(189,-8,cs),
(261,-8,o),
(333,37,o),
(375,108,c),
(366,113,l),
(362,0,l),
(418,0,l),
(418,25,ls),
(418,58,o),
(422,89,o),
(429,122,cs),
(558,731,l),
(495,717,l),
(392,232,ls),
(367,112,o),
(277,45,o),
(205,45,cs),
(146,45,o),
(103,88,o),
(103,176,cs),
(103,337,o),
(205,466,o),
(304,466,cs),
(353,466,o),
(396,448,o),
(437,403,c),
(447,455,l),
(407,499,o),
(357,518,o),
(309,518,cs),
(175,518,o),
(42,368,o),
(42,170,cs)
);
}
);
userData = {
com.schriftgestaltung.Glyphs.lastChange = "2021-03-02 23:45:43 +0000";
};
width = 551;
},
{
anchors = (
{
name = caron.alt;
pos = (673,720);
}
);
layerId = master06;
shapes = (
{
closed = 1;
nodes = (
(39,58,o),
(108,-10,o),
(194,-10,c),
(267,-10,o),
(335,29,o),
(376,100,c),
(364,112,l),
(361,0,l),
(448,0,l),
(448,34,ls),
(448,65,o),
(451,92,o),
(458,123,cs),
(587,732,l),
(492,716,l),
(394,254,ls),
(369,138,o),
(286,72,o),
(219,72,c),
(168,72,o),
(133,109,o),
(133,187,c),
(133,325,o),
(218,449,o),
(314,449,c),
(361,449,o),
(401,430,o),
(438,386,c),
(455,468,l),
(415,507,o),
(365,525,o),
(316,525,c),
(169,525,o),
(39,369,o),
(39,177,c)
);
}
);
userData = {
com.schriftgestaltung.Glyphs.lastChange = "2021-03-02 23:45:59 +0000";
};
width = 580;
}
);
unicode = 100;
},
{
color = 5;
glyphname = eth;
layers = (
{
layerId = master01;
shapes = (
{
closed = 1;
nodes = (
(22,62,o),
(109,-12,o),
(225,-12,c),
(414,-12,o),
(515,150,o),
(515,332,c),
(515,478,o),
(440,630,o),
(337,720,c),
(179,720,l),
(302,609,o),
(387,487,o),
(387,331,cs),
(387,203,o),
(330,110,o),
(241,110,c),
(194,110,o),
(164,140,o),
(164,205,c),
(164,292,o),
(211,365,o),
(289,365,cs),
(337,365,o),
(371,348,o),
(396,314,c),
(427,380,l),
(406,430,o),
(354,480,o),
(272,480,c),
(124,480,o),
(22,342,o),
(22,198,c)
);
},
{
closed = 1;
nodes = (
(205,514,l),
(532,641,l),
(512,732,l),
(185,605,l)
);
}
);
userData = {
com.schriftgestaltung.Glyphs.lastChange = "2021-03-02 23:46:34 +0000";
};
width = 550;
},
{
layerId = master02;
shapes = (
{
closed = 1;
nodes = (
(24,71,o),
(102,-12,o),
(201,-12,c),
(346,-12,o),
(447,125,o),
(447,334,c),
(447,476,o),
(387,629,o),
(307,720,c),
(165,720,l),
(268,608,o),
(331,485,o),
(331,329,cs),
(331,203,o),
(287,112,o),
(217,112,c),
(176,112,o),
(154,140,o),
(154,206,cs),
(154,292,o),
(195,361,o),
(255,361,cs),
(294,361,o),
(320,345,o),
(339,314,c),
(360,380,l),
(344,430,o),
(307,480,o),
(237,480,c),
(117,480,o),
(24,342,o),
(24,203,c)
);
},
{
closed = 1;
nodes = (
(184,519,l),
(468,645,l),
(438,732,l),
(153,606,l)
);
}
);
userData = {
com.schriftgestaltung.Glyphs.lastChange = "2021-03-02 23:44:54 +0000";
};
width = 486;
},
{
layerId = master03;
shapes = (
{
closed = 1;
nodes = (
(33,73,o),
(89,-8,o),
(178,-8,cs),
(339,-8,o),
(422,199,o),
(422,345,c),
(422,503,o),
(340,647,o),
(268,720,c),
(189,720,l),
(295,632,o),
(368,503,o),
(368,344,cs),
(368,229,o),
(305,48,o),
(194,48,cs),
(131,48,o),
(95,101,o),
(95,184,cs),
(95,290,o),
(176,423,o),
(266,423,cs),
(304,423,o),
(352,394,o),
(372,323,c),
(378,386,l),
(359,447,o),
(315,478,o),
(270,478,cs),
(144,478,o),
(33,330,o),
(33,180,cs)
);
},
{
closed = 1;
nodes = (
(173,544,l),
(452,684,l),
(438,728,l),
(158,588,l)
);
}
);
userData = {
com.schriftgestaltung.Glyphs.lastChange = "2021-03-04 23:04:20 +0000";
};
width = 470;
},
{
layerId = master04;
shapes = (
{
closed = 1;
nodes = (
(33,73,o),
(93,-10,o),
(184,-10,cs),
(321,-10,o),
(435,152,o),
(435,362,cs),
(435,508,o),
(376,643,o),
(307,720,c),
(206,720,l),
(299,625,o),
(359,507,o),
(359,358,cs),
(359,174,o),
(272,66,o),
(195,66,cs),
(144,66,o),
(115,116,o),
(115,195,cs),
(115,291,o),
(174,404,o),
(259,404,cs),
(302,404,o),
(338,381,o),
(361,329,c),
(382,390,l),
(365,431,o),
(323,479,o),
(251,479,cs),
(132,479,o),
(33,339,o),
(33,191,cs)
);
},
{
closed = 1;
nodes = (
(213,537,l),
(472,674,l),
(445,729,l),
(185,593,l)
);
}
);
userData = {
com.schriftgestaltung.Glyphs.lastChange = "2021-03-02 23:38:03 +0000";
};
width = 478;
},
{
layerId = master05;
shapes = (
{
closed = 1;
nodes = (
(48,73,o),
(121,-8,o),
(229,-8,c),
(394,-8,o),
(497,149,o),
(497,345,c),
(497,503,o),
(415,647,o),
(343,720,c),
(264,720,l),
(370,632,o),
(443,503,o),
(443,344,c),
(443,179,o),
(356,47,o),
(235,47,c),
(161,47,o),
(110,101,o),
(110,194,c),
(110,300,o),
(188,423,o),
(298,423,c),
(364,423,o),
(411,392,o),
(447,324,c),
(450,385,l),
(417,442,o),
(360,478,o),
(299,478,c),
(154,478,o),
(48,340,o),
(48,190,c)
);
},
{
closed = 1;
nodes = (
(248,544,l),
(527,684,l),
(513,728,l),
(233,588,l)
);
}
);
userData = {
com.schriftgestaltung.Glyphs.lastChange = "2021-03-02 23:45:43 +0000";
};
width = 565;
},
{
layerId = master06;
shapes = (
{
closed = 1;
nodes = (
(40,73,o),
(119,-10,o),
(227,-10,c),
(382,-10,o),
(508,135,o),
(508,360,cs),
(508,501,o),
(426,642,o),
(346,720,c),
(237,720,l),
(346,624,o),
(426,505,o),
(426,356,cs),
(426,170,o),
(326,69,o),
(236,69,c),
(171,69,o),
(130,118,o),
(130,196,c),
(130,292,o),
(195,401,o),
(303,401,cs),
(354,401,o),
(401,376,o),
(432,319,c),
(451,380,l),
(430,426,o),
(378,479,o),
(292,479,c),
(152,479,o),
(40,340,o),
(40,193,c)
);
},
{
closed = 1;
nodes = (
(231,533,l),
(527,669,l),
(506,729,l),
(209,594,l)
);
}
);
userData = {
com.schriftgestaltung.Glyphs.lastChange = "2021-03-02 23:45:59 +0000";
};
width = 559;
}
);
unicode = 240;
},
{
color = 5;
glyphname = dcroat;
kernLeft = o;
layers = (
{
layerId = master01;
shapes = (
{
closed = 1;
nodes = (
(648,565,l),
(670,670,l),
(340,670,l),
(318,565,l)
);
},
{
closed = 1;
nodes = (
(22,70,o),
(86,-12,o),
(184,-12,c),
(259,-12,o),
(326,31,o),
(367,101,c),
(348,111,l),
(348,0,l),
(492,0,l),
(492,49,ls),
(492,78,o),
(493,97,o),
(499,125,cs),
(628,735,l),
(475,715,l),
(385,294,ls),
(361,184,o),
(292,120,o),
(233,120,c),
(197,120,o),
(176,146,o),
(176,207,cs),
(176,295.214,o),
(231,402,o),
(322,402,cs),
(363,402,o),
(399,383,o),
(428,341,c),
(457,476,l),
(417,506,o),
(368,522,o),
(318,522,cs),
(146,522,o),
(22,363.155,o),
(22,189,cs)
);
}
);
userData = {
com.schriftgestaltung.Glyphs.lastChange = "2021-03-02 23:46:34 +0000";
};
width = 603;
},
{
layerId = master02;
shapes = (
{
closed = 1;
nodes = (
(561,563,l),
(584,673,l),
(305,673,l),
(282,563,l)
);
},
{
closed = 1;
nodes = (
(16,63,o),
(65,-12,o),
(149,-12,c),
(208,-12,o),
(265,31,o),
(302,101,c),
(286,111,l),
(283,0,l),
(414,0,l),
(416,50,ls),
(417,79,o),
(418,96,o),
(424,125,cs),
(553,735,l),
(413,715,l),
(324,298,ls),
(300,184,o),
(243,123,o),
(203,123,c),
(177,123,o),
(158,144,o),
(158,199,cs),
(158,292.82,o),
(205,395,o),
(278,395,cs),
(309,395,o),
(338,383,o),
(362,346,c),
(385,468,l),
(356,502,o),
(313,520,o),
(269,520,cs),
(136,520,o),
(16,348.521,o),
(16,178,cs)
);
}
);
userData = {
com.schriftgestaltung.Glyphs.lastChange = "2021-03-02 23:44:54 +0000";
};
width = 522;
},
{
layerId = master03;
shapes = (
{
closed = 1;
nodes = (
(505,586,l),
(515,636,l),
(294,636,l),
(284,586,l)
);
},
{
closed = 1;
nodes = (
(36,40,o),
(72,-8,o),
(153,-8,cs),
(211,-8,o),
(267,37,o),
(309,108,c),
(300,113,l),
(296,0,l),
(352,0,l),
(352,25,ls),
(352,58,o),
(356,89,o),
(363,122,cs),
(492,731,l),
(429,717,l),
(326,232,ls),
(301,112,o),
(231,45,o),
(169,45,cs),
(114,45,o),
(97,93,o),
(97,184,cs),
(97,342,o),
(169,466,o),
(268,466,cs),
(317,466,o),
(342,449,o),
(371,403,c),
(381,455,l),
(347,501,o),
(321,518,o),
(273,518,cs),
(139,518,o),
(36,356,o),
(36,170,cs)
);
}
);
userData = {
com.schriftgestaltung.Glyphs.lastChange = "2021-03-04 23:04:20 +0000";
};
width = 461;
},
{
layerId = master04;
shapes = (
{
closed = 1;
nodes = (
(550,588,l),
(561,642,l),
(291,642,l),
(280,588,l)
);
},
{
closed = 1;
nodes = (
(28,46,o),
(86,-10,o),
(154,-10,c),
(213,-10,o),
(273,30,o),
(311,100,c),
(300,113,l),
(294,0,l),
(378,0,l),
(379,33,ls),
(380,65,o),
(383,92,o),
(390,124,cs),
(520,732,l),
(428,716,l),
(330,252,ls),
(304,130,o),
(241,67,o),
(184,67,c),
(141,67,o),
(118,97,o),
(118,180,c),
(118,326,o),
(196,450,o),
(277,450,c),
(309,450,o),
(344,437,o),
(373,397,c),
(388,460,l),
(360,501,o),
(318,525,o),
(273,525,c),
(149,525,o),
(28,363,o),
(28,170,c)
);
}
);
userData = {
com.schriftgestaltung.Glyphs.lastChange = "2021-03-02 23:38:03 +0000";
};
width = 501;
},
{
layerId = master05;
shapes = (
{
closed = 1;
nodes = (
(601,586,l),
(611,636,l),
(330,636,l),
(320,586,l)
);
},
{
closed = 1;
nodes = (
(42,52,o),
(110,-8,o),
(189,-8,cs),
(261,-8,o),
(333,37,o),
(375,108,c),
(366,113,l),
(362,0,l),
(418,0,l),
(418,25,ls),
(418,58,o),
(422,89,o),
(429,122,cs),
(558,731,l),
(495,717,l),
(392,232,ls),
(367,112,o),
(277,45,o),
(205,45,cs),
(146,45,o),
(103,88,o),
(103,176,cs),
(103,337,o),
(205,466,o),
(304,466,cs),
(353,466,o),
(396,448,o),
(437,403,c),
(447,455,l),
(407,499,o),
(357,518,o),
(309,518,cs),
(175,518,o),
(42,368,o),
(42,170,cs)
);
}
);
userData = {
com.schriftgestaltung.Glyphs.lastChange = "2021-03-02 23:45:43 +0000";
};
width = 556;
},
{
layerId = master06;
shapes = (
{
closed = 1;
nodes = (
(631,586,l),
(643,644,l),
(327,644,l),
(315,586,l)
);
},
{
closed = 1;
nodes = (
(39,58,o),
(108,-10,o),
(194,-10,c),
(267,-10,o),
(335,29,o),
(376,100,c),
(364,112,l),
(361,0,l),
(448,0,l),
(448,34,ls),
(448,65,o),
(451,92,o),
(458,123,cs),
(587,732,l),
(492,716,l),
(394,254,ls),
(369,138,o),
(286,72,o),
(219,72,c),
(168,72,o),
(133,109,o),
(133,187,c),
(133,325,o),
(218,449,o),
(314,449,c),
(361,449,o),
(401,430,o),
(438,386,c),
(455,468,l),
(415,507,o),
(365,525,o),
(316,525,c),
(169,525,o),
(39,369,o),
(39,177,c)
);
}
);
userData = {
com.schriftgestaltung.Glyphs.lastChange = "2021-03-02 23:45:59 +0000";
};
width = 585;
}
);
unicode = 273;
},
{
color = 5;
glyphname = e;
kernLeft = o;
kernRight = e;
layers = (
{
anchors = (
{
name = bottom;
pos = (234,0);
},
{
name = ogonek;
pos = (294,0);
},
{
name = top;
pos = (334,525);
}
);
layerId = master01;
shapes = (
{
closed = 1;
nodes = (
(21,65,o),
(102,-12,o),
(234,-12,cs),
(316,-12,o),
(377,10,o),
(456,61,c),
(395,164,l),
(353,134,o),
(300,114,o),
(253,114,cs),
(201,114,o),
(175,146,o),
(175,205,cs),
(175,300,o),
(229,416,o),
(318,416,cs),
(349,416,o),
(368,400,o),
(368,374,cs),
(368,336,o),
(334,308,o),
(148,307,cs),
(145,307,o),
(140,307,o),
(137,307,c),
(123,215,l),
(137,215,o),
(147,214,o),
(161,214,cs),
(362,214,o),
(516,248,o),
(516,390,cs),
(516,473,o),
(444,537,o),
(339,537,cs),
(144,537,o),
(21,371,o),
(21,182,cs)
);
}
);
userData = {
com.schriftgestaltung.Glyphs.lastChange = "2021-03-02 23:46:34 +0000";
};
width = 536;
},
{
anchors = (
{
name = bottom;
pos = (194,0);
},
{
name = ogonek;
pos = (244,0);
},
{
name = top;
pos = (293,525);
}
);
layerId = master02;
shapes = (
{
closed = 1;
nodes = (
(16,66,o),
(79,-12,o),
(194,-12,cs),
(261,-12,o),
(312,7,o),
(386,57,c),
(335,164,l),
(299,136,o),
(254,116,o),
(216,116,cs),
(174,116,o),
(158,150,o),
(158,207,cs),
(158,299,o),
(204,416,o),
(274,416,cs),
(297,416,o),
(313,397,o),
(313,376,c),
(313,335,o),
(282,309,o),
(119,308,cs),
(116,308,o),
(114,308,o),
(111,308,c),
(109,214,l),
(115,214,o),
(122,214,o),
(128,214,cs),
(322,214,o),
(447,265,o),
(447,393,c),
(447,473,o),
(389,537,o),
(296,537,c),
(136,537,o),
(16,372,o),
(16,183,cs)
);
}
);
userData = {
com.schriftgestaltung.Glyphs.lastChange = "2021-03-02 23:44:54 +0000";
};
width = 466;
},
{
anchors = (
{
name = bottom;
pos = (176,0);
},
{
name = ogonek;
pos = (227,0);
},
{
name = top;
pos = (297,510);
}
);
layerId = master03;
shapes = (
{
closed = 1;
nodes = (
(32,53,o),
(87,-8,o),
(183,-8,cs),
(247,-8,o),
(302,26,o),
(349,81,c),
(312,116,l),
(275,73,o),
(230,47,o),
(188,47,cs),
(122,47,o),
(92,88,o),
(92,176,cs),
(92,318,o),
(165,463,o),
(289,463,cs),
(340,463,o),
(353,424,o),
(353,390,cs),
(353,345,o),
(312,286,o),
(193,286,cs),
(163,286,o),
(133,289,o),
(92,299,c),
(83,250,l),
(127,239,o),
(161,236,o),
(195,236,cs),
(351,236,o),
(413,319,o),
(413,394,cs),
(413,456,o),
(376,518,o),
(294,518,cs),
(132,518,o),
(32,349,o),
(32,165,cs)
);
}
);
userData = {
com.schriftgestaltung.Glyphs.lastChange = "2021-03-04 23:04:20 +0000";
};
width = 437;
},
{
anchors = (
{
name = bottom;
pos = (184,0);
},
{
name = ogonek;
pos = (236,0);
},
{
name = top;
pos = (294,514);
}
);
layerId = master04;
shapes = (
{
closed = 1;
nodes = (
(30,63,o),
(86,-10,o),
(182,-10,cs),
(238,-10,o),
(306,20,o),
(362,80,c),
(313,138,l),
(276,91,o),
(234,67,o),
(195,67,cs),
(144,67,o),
(113,112,o),
(113,177,cs),
(113,314,o),
(190,449,o),
(278,449,cs),
(317,449,o),
(337,424,o),
(337,390,cs),
(337,342,o),
(290,291,o),
(167,291,cs),
(148,291,o),
(128,292,o),
(105,296,c),
(93,237,l),
(122,232,o),
(146,230,o),
(170,230,cs),
(314,230,o),
(424,289,o),
(424,401,cs),
(424,472,o),
(373,525,o),
(291,525,cs),
(145,525,o),
(30,364,o),
(30,170,cs)
);
}
);
userData = {
com.schriftgestaltung.Glyphs.lastChange = "2021-03-02 23:38:03 +0000";
};
width = 447;
},
{
anchors = (
{
name = bottom;
pos = (205,0);
},
{
name = ogonek;
pos = (270,0);
},
{
name = top;
pos = (330,510);
}
);
layerId = master05;
shapes = (
{
closed = 1;
nodes = (
(40,55,o),
(115,-8,o),
(211,-8,cs),
(293,-8,o),
(360,33,o),
(408,91,c),
(371,126,l),
(331,78,o),
(279,47,o),
(216,47,cs),
(148,47,o),
(100,87,o),
(100,176,cs),
(100,318,o),
(203,463,o),
(327,463,cs),
(378,463,o),
(411,434,o),
(411,390,cs),
(411,345,o),
(363,286,o),
(211,286,cs),
(179,286,o),
(142,289,o),
(100,295,c),
(91,246,l),
(136,239,o),
(177,236,o),
(213,236,cs),
(402,236,o),
(471,319,o),
(471,394,cs),
(471,466,o),
(414,518,o),
(332,518,cs),
(170,518,o),
(40,349,o),
(40,165,cs)
);
}
);
userData = {
com.schriftgestaltung.Glyphs.lastChange = "2021-03-02 23:45:43 +0000";
};
width = 500;
},
{
anchors = (
{
name = bottom;
pos = (224,0);
},
{
name = ogonek;
pos = (287,0);
},
{
name = top;
pos = (337,515);
}
);
layerId = master06;
shapes = (
{
closed = 1;
nodes = (
(37,59,o),
(114,-10,o),
(223,-10,cs),
(305,-10,o),
(370,25,o),
(429,80,c),
(383,139,l),
(342,98,o),
(290,71,o),
(233,71,cs),
(171,71,o),
(130,108,o),
(130,186,cs),
(130,312,o),
(216,446,o),
(328,446,cs),
(371,446,o),
(399,422,o),
(399,384,cs),
(399,342,o),
(357,294,o),
(207,294,cs),
(180,294,o),
(151,296,o),
(117,299,c),
(106,235,l),
(145,231,o),
(180,229,o),
(212,229,cs),
(367,229,o),
(491,277,o),
(491,393,cs),
(491,468,o),
(428,525,o),
(338,525,cs),
(164,525,o),
(37,357,o),
(37,171,cs)
);
}
);
userData = {
com.schriftgestaltung.Glyphs.lastChange = "2021-03-02 23:45:59 +0000";
};
width = 524;
}
);
unicode = 101;
},
{
color = 5;
glyphname = "ipa:schwa";
kernLeft = o;
kernRight = o;
layers = (
{
layerId = master01;
shapes = (
{
closed = 1;
nodes = (
(21,74,o),
(104,-12,o),
(223,-12,c),
(420,-12,o),
(519,141,o),
(519,308,c),
(519,465,o),
(419,537,o),
(285,537,cs),
(214,537,o),
(163,519,o),
(111,498,c),
(129,381,l),
(171,399,o),
(221,409,o),
(265,409,cs),
(338,409,o),
(374,371,o),
(374,302,cs),
(374,210,o),
(339,109,o),
(237,109,cs),
(188,109,o),
(158,141,o),
(158,189,cs),
(158,207,o),
(166,228,o),
(171,253,c),
(131,212,l),
(402,212,l),
(422,307,l),
(42,307,l),
(26,265,o),
(21,228,o),
(21,183,cs)
);
}
);
userData = {
com.schriftgestaltung.Glyphs.lastChange = "2021-03-02 23:46:34 +0000";
};
width = 556;
},
{
layerId = master02;
shapes = (
{
closed = 1;
nodes = (
(12,74,o),
(79,-12,o),
(193,-12,c),
(348,-12,o),
(437,140,o),
(442,307,c),
(444,465,o),
(362,537,o),
(239,537,c),
(188,537,o),
(136,526,o),
(90,505,c),
(108,379,l),
(144,396,o),
(186,406,o),
(223,406,cs),
(284,406,o),
(309,368,o),
(309,301,cs),
(309,212,o),
(278,113,o),
(195,113,cs),
(158,113,o),
(136,143,o),
(136,190,cs),
(136,207,o),
(143,227,o),
(149,254,c),
(112,212,l),
(333,212,l),
(354,310,l),
(34,310,l),
(17,265,o),
(12,228,o),
(12,184,cs)
);
}
);
userData = {
com.schriftgestaltung.Glyphs.lastChange = "2021-03-02 23:44:54 +0000";
};
width = 466;
},
{
layerId = master03;
shapes = (
{
closed = 1;
nodes = (
(30,75,o),
(69,-8,o),
(178,-8,cs),
(339,-8,o),
(403,151,o),
(403,317,cs),
(403,460,o),
(339,518,o),
(254,518,cs),
(203,518,o),
(165,505,o),
(111,467,c),
(137,424,l),
(179,454,o),
(212,463,o),
(249,463,cs),
(303,463,o),
(346,423,o),
(346,314,cs),
(346,172,o),
(303,46,o),
(183,46,cs),
(107,46,o),
(89,104,o),
(89,172,cs),
(89,212,o),
(105,240,o),
(105,240,c),
(79,216,l),
(347,216,l),
(358,266,l),
(46,266,l),
(46,266,o),
(30,220,o),
(30,168,cs)
);
}
);
userData = {
com.schriftgestaltung.Glyphs.lastChange = "2021-03-04 23:04:20 +0000";
};
width = 453;
},
{
layerId = master04;
shapes = (
{
closed = 1;
nodes = (
(29,75,o),
(82,-10,o),
(182,-10,cs),
(336,-10,o),
(423,147,o),
(423,324,cs),
(423,460,o),
(357,524,o),
(257,524,cs),
(203,524,o),
(155,505,o),
(107,472,c),
(130,401,l),
(166,428,o),
(207,446,o),
(244,446,cs),
(309,446,o),
(341,409,o),
(341,321,cs),
(341,183,o),
(290,65,o),
(191,65,cs),
(132,65,o),
(109,115,o),
(109,177,cs),
(109,210,o),
(121,237,o),
(123,244,c),
(95,215,l),
(347,215,l),
(363,279,l),
(46,279,l),
(40,266,o),
(29,226,o),
(29,172,cs)
);
}
);
userData = {
com.schriftgestaltung.Glyphs.lastChange = "2021-03-02 23:38:03 +0000";
};
width = 467;
},
{
layerId = master05;
shapes = (
{
closed = 1;
nodes = (
(37,75,o),
(98,-8,o),
(215,-8,c),
(381,-8,o),
(470,151,o),
(470,317,c),
(470,460,o),
(396,518,o),
(293,518,cs),
(235,518,o),
(177,495,o),
(121,455,c),
(147,411,l),
(190,441,o),
(240,462,o),
(288,462,cs),
(365,462,o),
(413,423,o),
(413,314,c),
(413,172,o),
(345,46,o),
(220,46,c),
(136,46,o),
(96,104,o),
(96,172,cs),
(96,212,o),
(112,240,o),
(112,240,c),
(86,216,l),
(414,216,l),
(425,266,l),
(53,266,l),
(53,266,o),
(37,220,o),
(37,168,c)
);
}
);
userData = {
com.schriftgestaltung.Glyphs.lastChange = "2021-03-02 23:45:43 +0000";
};
width = 529;
},
{
layerId = master06;
shapes = (
{
closed = 1;
nodes = (
(36,75,o),
(105,-10,o),
(222,-10,c),
(399,-10,o),
(492,147,o),
(492,314,c),
(492,462,o),
(409,525,o),
(295,525,cs),
(232,525,o),
(177,504,o),
(122,470,c),
(145,400,l),
(188,426,o),
(238,443,o),
(284,443,cs),
(360,443,o),
(404,405,o),
(404,310,c),
(404,185,o),
(347,68,o),
(231,68,c),
(159,68,o),
(123,117,o),
(123,178,cs),
(123,210,o),
(136,236,o),
(138,245,c),
(107,215,l),
(414,215,l),
(429,281,l),
(54,281,l),
(48,266,o),
(36,223,o),
(36,173,c)
);
}
);
userData = {
com.schriftgestaltung.Glyphs.lastChange = "2021-03-02 23:45:59 +0000";
};
width = 547;
}
);
unicode = 601;
},
{
color = 5;
glyphname = f;
kernLeft = f;
kernRight = f;
layers = (
{
layerId = master01;
shapes = (
{
closed = 1;
nodes = (
(192,0,l),
(304,525,ls),
(315,581,o),
(343,607,o),
(384,607,cs),
(406,607,o),
(430,604,o),
(450,595,c),
(494,711,l),
(463,723,o),
(423,732,o),
(381,732,cs),
(260,732,o),
(184,668,o),
(156,538,cs),
(42,0,l)
);
},
{
closed = 1;
nodes = (
(415,410,l),
(440,525,l),
(64,525,l),
(39,410,l)
);
}
);
userData = {
com.schriftgestaltung.Glyphs.lastChange = "2021-03-02 23:46:34 +0000";
};
width = 388;
},
{
layerId = master02;
shapes = (
{
closed = 1;
nodes = (
(166,0,l),
(277,522,ls),
(289,577,o),
(312,603,o),
(349,603,c),
(364,603,o),
(381,600,o),
(397,591,c),
(441,711,l),
(414,723,o),
(380,732,o),
(343,732,cs),
(241,732,o),
(171,668,o),
(143,536,cs),
(29,0,l)
);
},
{
closed = 1;
nodes = (
(362,407,l),
(387,525,l),
(65,525,l),
(40,407,l)
);
}
);
userData = {
com.schriftgestaltung.Glyphs.lastChange = "2021-03-02 23:44:54 +0000";
};
width = 333;
},
{
layerId = master03;
shapes = (
{
closed = 1;
nodes = (
(99,0,l),
(221,572,ls),
(235,640,o),
(267,675,o),
(296,675,cs),
(319,675,o),
(336,672,o),
(354,662,c),
(376,709,l),
(355,723,o),
(326,728,o),
(303,728,cs),
(234,728,o),
(182,675,o),
(161,575,cs),
(39,0,l)
);
},
{
closed = 1;
nodes = (
(314,460,l),
(324,510,l),
(74,510,l),
(64,460,l)
);
}
);
userData = {
com.schriftgestaltung.Glyphs.lastChange = "2021-03-04 23:04:20 +0000";
};
width = 275;
},
{
layerId = master04;
shapes = (
{
closed = 1;
nodes = (
(123,0,l),
(241,557,ls),
(255,622,o),
(283,654,o),
(321,654,cs),
(340,654,o),
(361,650,o),
(378,639,c),
(408,707,l),
(385,720,o),
(355,730,o),
(325,730,cs),
(237,730,o),
(178,673,o),
(153,564,cs),
(35,0,l)
);
},
{
closed = 1;
nodes = (
(335,445,l),
(352,515,l),
(68,515,l),
(51,445,l)
);
}
);
userData = {
com.schriftgestaltung.Glyphs.lastChange = "2021-03-02 23:38:03 +0000";
};
width = 302;
},
{
layerId = master05;
shapes = (
{
closed = 1;
nodes = (
(117,0,l),
(239,572,ls),
(253,640,o),
(294,675,o),
(343,675,cs),
(368,675,o),
(391,670,o),
(414,658,c),
(436,705,l),
(412,719,o),
(378,728,o),
(350,728,cs),
(261,728,o),
(200,675,o),
(179,575,cs),
(57,0,l)
);
},
{
closed = 1;
nodes = (
(362,460,l),
(372,510,l),
(72,510,l),
(62,460,l)
);
}
);
userData = {
com.schriftgestaltung.Glyphs.lastChange = "2021-03-02 23:45:43 +0000";
};
width = 350;
},
{
layerId = master06;
shapes = (
{
closed = 1;
nodes = (
(144,0,l),
(262,555,ls),
(275,619,o),
(311,651,o),
(357,651,cs),
(381,651,o),
(405,647,o),
(427,636,c),
(457,707,l),
(430,720,o),
(394,730,o),
(361,730,cs),
(261,730,o),
(195,673,o),
(171,562,cs),
(52,0,l)
);
},
{
closed = 1;
nodes = (
(381,442,l),
(396,515,l),
(69,515,l),
(54,442,l)
);
}
);
userData = {
com.schriftgestaltung.Glyphs.lastChange = "2021-03-02 23:45:59 +0000";
};
width = 347;
}
);
unicode = 102;
},
{
color = 5;
glyphname = g;
kernLeft = o;
kernRight = u;
layers = (
{
anchors = (
{
name = top;
pos = (356,525);
}
);
layerId = master01;
shapes = (
{
closed = 1;
nodes = (
(29,-184,o),
(88,-197,o),
(160,-197,c),
(317,-197,o),
(442,-124,o),
(478,44,cs),
(581,525,l),
(444,525,l),
(422,480,l),
(385,304,ls),
(365,203,o),
(292,145,o),
(235,145,cs),
(196,145,o),
(179,170,o),
(179,222,c),
(179,313,o),
(228,417,o),
(319,417,cs),
(360,417,o),
(396,398,o),
(425,356,c),
(454,491,l),
(414,521,o),
(365,537,o),
(315,537,cs),
(143,537,o),
(25,381,o),
(25,204,c),
(25,93,o),
(85,16,o),
(186,16,cs),
(256,16,o),
(324,50,o),
(364,111,c),
(345,121,l),
(328,41,ls),
(312,-32,o),
(251,-67,o),
(167,-67,cs),
(117,-67,o),
(66,-51,o),
(27,-30,c),
(-30,-156,l)
);
}
);
userData = {
com.schriftgestaltung.Glyphs.lastChange = "2021-03-02 23:46:34 +0000";
};
width = 589;
},
{
anchors = (
{
name = top;
pos = (313,525);
}
);
layerId = master02;
shapes = (
{
closed = 1;
nodes = (
(13,-185,o),
(68,-197,o),
(130,-197,c),
(271,-197,o),
(371,-124,o),
(407,45,c),
(509,525,l),
(383,525,l),
(364,483,l),
(324,298,l),
(300.033,200.474,o),
(246,153,o),
(211,153,c),
(182,153,o),
(163,172,o),
(163,223,c),
(163,316,o),
(208,412,o),
(278,412,cs),
(309,412,o),
(338,400,o),
(362,363,c),
(385,485,l),
(356,519,o),
(313,537,o),
(269,537,cs),
(139,537,o),
(21,372,o),
(21,206,cs),
(21,91,o),
(70,18,o),
(159,18,c),
(211,18,o),
(266.209,46.766,o),
(302,101,c),
(285,111,l),
(270,42,ls),
(255,-28,o),
(210,-64,o),
(141,-64,c),
(98,-64,o),
(53,-50,o),
(18,-28,c),
(-37,-156,l)
);
}
);
userData = {
com.schriftgestaltung.Glyphs.lastChange = "2021-03-02 23:44:54 +0000";
};
width = 516;
},
{
anchors = (
{
name = top;
pos = (295,510);
}
);
layerId = master03;
shapes = (
{
closed = 1;
nodes = (
(37,-174,o),
(75,-193,o),
(137,-193,c),
(261,-193,o),
(328,-129,o),
(360,20,cs),
(464,510,l),
(412,510,l),
(389,439,l),
(345,232,ls),
(320,112,o),
(266,45,o),
(184,45,cs),
(115,45,o),
(106,118,o),
(106,166,cs),
(106,323,o),
(183,466,o),
(257,466,cs),
(317,466,o),
(355,452,o),
(390,414,c),
(400,455,l),
(364,500,o),
(321,518,o),
(262,518,cs),
(144,518,o),
(45,354,o),
(45,160,cs),
(45,82,o),
(79,-8,o),
(168,-8,cs),
(250,-8,o),
(286,37,o),
(328,108,c),
(320,113,l),
(301,25,ls),
(276,-93,o),
(227,-139,o),
(143,-139,c),
(88,-139,o),
(57,-122,o),
(21,-99,c),
(-7,-148,l)
);
}
);
userData = {
com.schriftgestaltung.Glyphs.lastChange = "2021-03-04 23:04:20 +0000";
};
width = 480;
},
{
anchors = (
{
name = top;
pos = (303,514);
}
);
layerId = master04;
shapes = (
{
closed = 1;
nodes = (
(18,-178,o),
(66,-195,o),
(122,-195,cs),
(241,-195,o),
(338,-127,o),
(371,28,cs),
(474,515,l),
(395,515,l),
(373,452,l),
(333,255,ls),
(310,140,o),
(239,75,o),
(185,75,cs),
(142,75,o),
(119,113,o),
(119,192,cs),
(119,321,o),
(194,450,o),
(278,450,cs),
(316,450,o),
(348,434,o),
(375,398,c),
(390,459,l),
(358,504,o),
(316,525,o),
(275,525,cs),
(149,525,o),
(31,370,o),
(31,180,cs),
(31,65,o),
(80,-1,o),
(156,-1,cs),
(216,-1,o),
(275,37,o),
(312,108,c),
(301,116,l),
(284,30,ls),
(263,-74,o),
(202,-116,o),
(131,-116,cs),
(86,-116,o),
(41,-98,o),
(10,-74,c),
(-25,-151,l)
);
}
);
userData = {
com.schriftgestaltung.Glyphs.lastChange = "2021-03-02 23:38:03 +0000";
};
width = 498;
},
{
anchors = (
{
name = top;
pos = (323,510);
}
);
layerId = master05;
shapes = (
{
closed = 1;
nodes = (
(34,-174,o),
(92,-193,o),
(154,-193,c),
(278,-193,o),
(375,-129,o),
(407,20,cs),
(511,510,l),
(459,510,l),
(436,439,l),
(392,232,ls),
(367,112,o),
(277,45,o),
(205,45,c),
(146,45,o),
(103,88,o),
(103,176,c),
(103,337,o),
(205,466,o),
(304,466,c),
(353,466,o),
(396,448,o),
(437,403,c),
(447,455,l),
(407,499,o),
(357,518,o),
(309,518,c),
(175,518,o),
(42,368,o),
(42,170,c),
(42,52,o),
(110,-8,o),
(189,-8,c),
(261,-8,o),
(333,37,o),
(375,108,c),
(367,113,l),
(348,25,ls),
(323,-93,o),
(244,-139,o),
(160,-139,c),
(105,-139,o),
(54,-122,o),
(18,-99,c),
(-10,-148,l)
);
}
);
userData = {
com.schriftgestaltung.Glyphs.lastChange = "2021-03-02 23:45:43 +0000";
};
width = 542;
},
{
anchors = (
{
name = top;
pos = (343,515);
}
);
layerId = master06;
shapes = (
{
closed = 1;
nodes = (
(37,-178,o),
(95,-195,o),
(160,-195,c),
(296,-195,o),
(403,-127,o),
(437,29,cs),
(540,515,l),
(458,515,l),
(435,454,l),
(394,258,ls),
(371,144,o),
(287,80,o),
(220,80,c),
(168,80,o),
(134,117,o),
(134,192,c),
(134,328,o),
(218,449,o),
(314,449,c),
(360,449,o),
(400,430,o),
(437,386,c),
(454,468,l),
(414,507,o),
(364,525,o),
(315,525,c),
(168,525,o),
(40,373,o),
(40,182,c),
(40,67,o),
(107,0,o),
(194,0,c),
(266,0,o),
(334,36,o),
(375,103,c),
(364,116,l),
(345,31,ls),
(323,-71,o),
(251,-113,o),
(167,-113,c),
(114,-113,o),
(63,-97,o),
(26,-75,c),
(-13,-151,l)
);
}
);
userData = {
com.schriftgestaltung.Glyphs.lastChange = "2021-03-02 23:45:59 +0000";
};
width = 575;
}
);
unicode = 103;
},
{
color = 5;
glyphname = h;
kernLeft = l;
kernRight = n;
layers = (
{
anchors = (
{
name = top;
pos = (233,720);
}
);
layerId = master01;
shapes = (
{
closed = 1;
nodes = (
(155,0,l),
(204,231,ls),
(227,341,o),
(301,405,o),
(356,405,c),
(393,405,o),
(415,387,o),
(415,347,cs),
(415,337,o),
(413,327,o),
(411,315,cs),
(344,0,l),
(494,0,l),
(561,313,ls),
(566,335,o),
(568,355,o),
(568,374,cs),
(568,477,o),
(504,537,o),
(415,537,c),
(330,537,o),
(265,494,o),
(224,424,c),
(243,414,l),
(311,735,l),
(157,715,l),
(5,0,l)
);
}
);
userData = {
com.schriftgestaltung.Glyphs.lastChange = "2021-03-02 23:46:34 +0000";
};
width = 615;
},
{
anchors = (
{
name = top;
pos = (226,720);
}
);
layerId = master02;
shapes = (
{
closed = 1;
nodes = (
(142,0,l),
(190,228,ls),
(215,348,o),
(269,400,o),
(316,400,c),
(344,400,o),
(361,381,o),
(361,349,cs),
(361,336,o),
(359,322,o),
(357,312,cs),
(291,0,l),
(428,0,l),
(494,310,ls),
(499,332,o),
(501,355,o),
(501,378,c),
(501,475,o),
(451,537,o),
(373,537,c),
(306,537,o),
(253,495,o),
(217,421,c),
(230,415,l),
(298,735,l),
(152,715,l),
(5,0,l)
);
}
);
userData = {
com.schriftgestaltung.Glyphs.lastChange = "2021-03-02 23:44:54 +0000";
};
width = 544;
},
{
anchors = (
{
name = top;
pos = (202,720);
}
);
layerId = master03;
shapes = (
{
closed = 1;
nodes = (
(76,0,l),
(135,278,ls),
(160,398,o),
(222,465,o),
(294,465,c),
(343,465,o),
(358,434,o),
(358,384,cs),
(358,348,o),
(348,304,o),
(344,285,cs),
(286,0,l),
(346,0,l),
(405,287,ls),
(409,306,o),
(419,376,o),
(419,414,cs),
(419,463,o),
(391,518,o),
(312,518,c),
(241,518,o),
(195,473,o),
(153,402,c),
(160,397,l),
(231,731,l),
(168,717,l),
(16,0,l)
);
}
);
userData = {
com.schriftgestaltung.Glyphs.lastChange = "2021-03-04 23:04:20 +0000";
};
width = 480;
},
{
anchors = (
{
name = top;
pos = (209,720);
}
);
layerId = master04;
shapes = (
{
closed = 1;
nodes = (
(101,0,l),
(155,263,ls),
(179,381,o),
(242,448,o),
(304,448,c),
(342,448,o),
(368,422,o),
(368,368,cs),
(368,349,o),
(366,333,o),
(362,314,cs),
(295,0,l),
(383,0,l),
(450,315,ls),
(454,335,o),
(457,357,o),
(457,377,c),
(457,474,o),
(405,525,o),
(332,525,c),
(274,525,o),
(212,485,o),
(175,415,c),
(186,402,l),
(257,732,l),
(165,716,l),
(13,0,l)
);
}
);
userData = {
com.schriftgestaltung.Glyphs.lastChange = "2021-03-02 23:38:03 +0000";
};
width = 512;
},
{
anchors = (
{
name = top;
pos = (212,720);
}
);
layerId = master05;
shapes = (
{
closed = 1;
nodes = (
(91,0,l),
(150,278,ls),
(175,398,o),
(265,465,o),
(337,465,c),
(396,465,o),
(433,432,o),
(433,364,cs),
(433,348,o),
(431,331,o),
(427,312,cs),
(361,0,l),
(421,0,l),
(488,314,ls),
(492,333,o),
(494,353,o),
(494,370,cs),
(494,463,o),
(430,518,o),
(355,518,c),
(284,518,o),
(210,473,o),
(168,402,c),
(175,397,l),
(246,731,l),
(183,717,l),
(31,0,l)
);
}
);
userData = {
com.schriftgestaltung.Glyphs.lastChange = "2021-03-02 23:45:43 +0000";
};
width = 562;
},
{
anchors = (
{
name = top;
pos = (225,720);
}
);
layerId = master06;
shapes = (
{
closed = 1;
nodes = (
(119,0,l),
(174,261,ls),
(199,378,o),
(283,444,o),
(349,444,c),
(400,444,o),
(432,416,o),
(432,358,cs),
(432,344,o),
(430,330,o),
(426,313,cs),
(360,0,l),
(452,0,l),
(519,314,ls),
(523,334,o),
(525,354,o),
(525,371,cs),
(525,468,o),
(458,525,o),
(378,525,c),
(302,525,o),
(235,486,o),
(193,416,c),
(204,403,l),
(274,732,l),
(179,716,l),
(27,0,l)
);
}
);
userData = {
com.schriftgestaltung.Glyphs.lastChange = "2021-03-02 23:45:59 +0000";
};
width = 594;
}
);
unicode = 104;
},
{
color = 5;
glyphname = hbar;
kernLeft = l;
kernRight = n;
layers = (
{
layerId = master01;
shapes = (
{
closed = 1;
nodes = (
(385,565,l),
(407,670,l),
(97,670,l),
(75,565,l)
);
},
{
closed = 1;
nodes = (
(160,0,l),
(209,231,ls),
(232,341,o),
(306,405,o),
(361,405,c),
(398,405,o),
(420,387,o),
(420,347,cs),
(420,337,o),
(418,327,o),
(416,315,cs),
(349,0,l),
(499,0,l),
(566,313,ls),
(571,335,o),
(573,355,o),
(573,374,cs),
(573,477,o),
(509,537,o),
(420,537,c),
(335,537,o),
(270,494,o),
(229,424,c),
(248,414,l),
(316,735,l),
(162,715,l),
(10,0,l)
);
}
);
userData = {
com.schriftgestaltung.Glyphs.lastChange = "2021-03-02 23:46:34 +0000";
};
width = 620;
},
{
layerId = master02;
shapes = (
{
closed = 1;
nodes = (
(336,563,l),
(359,673,l),
(100,673,l),
(77,563,l)
);
},
{
closed = 1;
nodes = (
(142,0,l),
(190,228,ls),
(215,348,o),
(269,400,o),
(316,400,c),
(344,400,o),
(361,381,o),
(361,349,cs),
(361,336,o),
(359,322,o),
(357,312,cs),
(291,0,l),
(428,0,l),
(494,310,ls),
(499,332,o),
(501,355,o),
(501,378,c),
(501,475,o),
(451,537,o),
(373,537,c),
(306,537,o),
(253,495,o),
(217,421,c),
(230,415,l),
(298,735,l),
(152,715,l),
(5,0,l)
);
}
);
userData = {
com.schriftgestaltung.Glyphs.lastChange = "2021-03-02 23:44:54 +0000";
};
width = 544;
},
{
layerId = master03;
shapes = (
{
closed = 1;
nodes = (
(311,586,l),
(322,636,l),
(101,636,l),
(90,586,l)
);
},
{
closed = 1;
nodes = (
(78,0,l),
(137,278,ls),
(162,398,o),
(212,465,o),
(284,465,c),
(331,465,o),
(351,432,o),
(351,384,cs),
(351,368,o),
(348,331,o),
(344,312,cs),
(278,0,l),
(338,0,l),
(405,314,ls),
(409,333,o),
(414,364,o),
(414,404,cs),
(414,473,o),
(377,518,o),
(302,518,c),
(231,518,o),
(197,473,o),
(155,402,c),
(162,397,l),
(233,731,l),
(170,717,l),
(18,0,l)
);
}
);
userData = {
com.schriftgestaltung.Glyphs.lastChange = "2021-03-04 23:04:20 +0000";
};
width = 472;
},
{
layerId = master04;
shapes = (
{
closed = 1;
nodes = (
(350,587,l),
(361,642,l),
(96,642,l),
(85,587,l)
);
},
{
closed = 1;
nodes = (
(101,0,l),
(155,263,ls),
(179,381,o),
(242,448,o),
(304,448,c),
(342,448,o),
(368,422,o),
(368,368,cs),
(368,349,o),
(366,333,o),
(362,314,cs),
(295,0,l),
(383,0,l),
(450,315,ls),
(454,335,o),
(457,357,o),
(457,377,c),
(457,474,o),
(405,525,o),
(332,525,c),
(274,525,o),
(212,485,o),
(175,415,c),
(186,402,l),
(257,732,l),
(165,716,l),
(13,0,l)
);
}
);
userData = {
com.schriftgestaltung.Glyphs.lastChange = "2021-03-02 23:38:03 +0000";
};
width = 512;
},
{
layerId = master05;
shapes = (
{
closed = 1;
nodes = (
(369,586,l),
(380,636,l),
(99,636,l),
(88,586,l)
);
},
{
closed = 1;
nodes = (
(96,0,l),
(155,278,ls),
(180,398,o),
(270,465,o),
(342,465,c),
(401,465,o),
(438,432,o),
(438,364,cs),
(438,348,o),
(436,331,o),
(432,312,cs),
(366,0,l),
(426,0,l),
(493,314,ls),
(497,333,o),
(499,353,o),
(499,370,cs),
(499,463,o),
(435,518,o),
(360,518,c),
(289,518,o),
(215,473,o),
(173,402,c),
(180,397,l),
(251,731,l),
(188,717,l),
(36,0,l)
);
}
);
userData = {
com.schriftgestaltung.Glyphs.lastChange = "2021-03-02 23:45:43 +0000";
};
width = 567;
},
{
layerId = master06;
shapes = (
{
closed = 1;
nodes = (
(397,585,l),
(410,644,l),
(94,644,l),
(81,585,l)
);
},
{
closed = 1;
nodes = (
(124,0,l),
(179,261,ls),
(204,378,o),
(288,444,o),
(354,444,c),
(405,444,o),
(437,416,o),
(437,358,cs),
(437,344,o),
(435,330,o),
(431,313,cs),
(365,0,l),
(457,0,l),
(524,314,ls),
(528,334,o),
(530,354,o),
(530,371,cs),
(530,468,o),
(463,525,o),
(383,525,c),
(307,525,o),
(240,486,o),
(198,416,c),
(209,403,l),
(279,732,l),
(184,716,l),
(32,0,l)
);
}
);
userData = {
com.schriftgestaltung.Glyphs.lastChange = "2021-03-02 23:45:59 +0000";
};
width = 600;
}
);
unicode = 295;
},
{
color = 5;
glyphname = i;
kernLeft = i;
kernRight = i;
layers = (
{
anchors = (
{
name = bottom;
pos = (80,0);
},
{
name = ogonek;
pos = (155,0);
}
);
layerId = master01;
shapes = (
{
closed = 1;
nodes = (
(155,0,l),
(267,525,l),
(117,525,l),
(5,0,l)
);
},
{
closed = 1;
nodes = (
(132,618,o),
(162,585,o),
(209,585,c),
(269,585,o),
(316,634,o),
(316,692,c),
(316,734,o),
(286,767,o),
(239,767,c),
(179,767,o),
(132,718,o),
(132,660,c)
);
}
);
userData = {
com.schriftgestaltung.Glyphs.lastChange = "2021-03-08 00:36:01 +0000";
};
width = 280;
},
{
anchors = (
{
name = bottom;
pos = (71,0);
},
{
name = ogonek;
pos = (139,0);
}
);
layerId = master02;
shapes = (
{
closed = 1;
nodes = (
(139,0,l),
(251,525,l),
(114,525,l),
(2,0,l)
);
},
{
closed = 1;
nodes = (
(127,620,o),
(157,588,o),
(199,588,c),
(254,588,o),
(301,634,o),
(301,694,cs),
(301,737,o),
(271,769,o),
(228,769,c),
(174,769,o),
(127,723,o),
(127,663,cs)
);
}
);
userData = {
com.schriftgestaltung.Glyphs.lastChange = "2021-03-08 00:31:05 +0000";
};
width = 261;
},
{
anchors = (
{
name = bottom;
pos = (54,0);
},
{
name = ogonek;
pos = (84,0);
}
);
layerId = master03;
shapes = (
{
closed = 1;
nodes = (
(84,0,l),
(192,510,l),
(132,510,l),
(24,0,l)
);
},
{
closed = 1;
nodes = (
(156,655,o),
(169,639,o),
(192,639,c),
(220,639,o),
(243,664,o),
(243,691,c),
(243,712,o),
(230,728,o),
(207,728,c),
(179,728,o),
(156,703,o),
(156,676,c)
);
}
);
userData = {
com.schriftgestaltung.Glyphs.lastChange = "2021-03-08 00:21:52 +0000";
};
width = 230;
},
{
anchors = (
{
name = bottom;
pos = (56,0);
},
{
name = ogonek;
pos = (100,0);
}
);
layerId = master04;
shapes = (
{
closed = 1;
nodes = (
(100,0,l),
(209,515,l),
(121,515,l),
(12,0,l)
);
},
{
closed = 1;
nodes = (
(143,643,o),
(160,623,o),
(190,623,cs),
(224,623,o),
(258,650,o),
(258,693,cs),
(258,720,o),
(241,740,o),
(211,740,cs),
(176,740,o),
(143,711,o),
(143,669,cs)
);
}
);
userData = {
com.schriftgestaltung.Glyphs.lastChange = "2021-03-08 00:23:43 +0000";
};
width = 231;
},
{
anchors = (
{
name = bottom;
pos = (64,0);
},
{
name = ogonek;
pos = (34,0);
}
);
layerId = master05;
shapes = (
{
closed = 1;
nodes = (
(94,0,l),
(202,510,l),
(142,510,l),
(34,0,l)
);
},
{
closed = 1;
nodes = (
(166,655,o),
(179,639,o),
(202,639,c),
(230,639,o),
(253,664,o),
(253,691,c),
(253,712,o),
(240,728,o),
(217,728,c),
(189,728,o),
(166,703,o),
(166,676,c)
);
}
);
userData = {
com.schriftgestaltung.Glyphs.lastChange = "2021-03-02 23:45:43 +0000";
};
width = 248;
},
{
anchors = (
{
name = bottom;
pos = (73,0);
},
{
name = ogonek;
pos = (119,0);
}
);
layerId = master06;
shapes = (
{
closed = 1;
nodes = (
(119,0,l),
(228,515,l),
(136,515,l),
(27,0,l)
);
},
{
closed = 1;
nodes = (
(154,630,o),
(173,608,o),
(205,608,c),
(244,608,o),
(276,641,o),
(276,679,c),
(276,708,o),
(257,730,o),
(225,730,c),
(186,730,o),
(154,696,o),
(154,658,c)
);
}
);
userData = {
com.schriftgestaltung.Glyphs.lastChange = "2021-03-08 00:34:42 +0000";
};
width = 266;
}
);
unicode = 105;
},
{
color = 5;
glyphname = idotless;
layers = (
{
anchors = (
{
name = bottom;
pos = (80,0);
},
{
name = ogonek;
pos = (155,0);
},
{
name = top;
pos = (197,525);
}
);
layerId = master01;
shapes = (
{
closed = 1;
nodes = (
(155,0,l),
(267,525,l),
(117,525,l),
(5,0,l)
);
}
);
userData = {
com.schriftgestaltung.Glyphs.lastChange = "2021-03-08 00:37:02 +0000";
};
width = 280;
},
{
anchors = (
{
name = bottom;
pos = (71,0);
},
{
name = ogonek;
pos = (139,0);
},
{
name = top;
pos = (189,525);
}
);
layerId = master02;
shapes = (
{
closed = 1;
nodes = (
(139,0,l),
(251,525,l),
(114,525,l),
(2,0,l)
);
}
);
userData = {
com.schriftgestaltung.Glyphs.lastChange = "2021-03-08 00:36:50 +0000";
};
width = 261;
},
{
anchors = (
{
name = bottom;
pos = (54,0);
},
{
name = ogonek;
pos = (84,0);
},
{
name = top;
pos = (162,510);
}
);
layerId = master03;
shapes = (
{
closed = 1;
nodes = (
(84,0,l),
(192,510,l),
(132,510,l),
(24,0,l)
);
}
);
userData = {
com.schriftgestaltung.Glyphs.lastChange = "2021-03-08 00:23:12 +0000";
};
width = 230;
},
{
anchors = (
{
name = bottom;
pos = (56,0);
},
{
name = ogonek;
pos = (100,0);
},
{
name = top;
pos = (165,515);
}
);
layerId = master04;
shapes = (
{
closed = 1;
nodes = (
(100,0,l),
(209,515,l),
(121,515,l),
(12,0,l)
);
}
);
userData = {
com.schriftgestaltung.Glyphs.lastChange = "2021-03-08 00:36:46 +0000";
};
width = 231;
},
{
anchors = (
{
name = bottom;
pos = (64,0);
},
{
name = ogonek;
pos = (94,0);
},
{
name = top;
pos = (169,510);
}
);
layerId = master05;
shapes = (
{
closed = 1;
nodes = (
(94,0,l),
(202,510,l),
(142,510,l),
(34,0,l)
);
}
);
userData = {
com.schriftgestaltung.Glyphs.lastChange = "2021-03-08 00:36:54 +0000";
};
width = 248;
},
{
anchors = (
{
name = bottom;
pos = (73,0);
},
{
name = ogonek;
pos = (119,0);
},
{
name = top;
pos = (184,515);
}
);
layerId = master06;
shapes = (
{
closed = 1;
nodes = (
(119,0,l),
(228,515,l),
(136,515,l),
(27,0,l)
);
}
);
userData = {
com.schriftgestaltung.Glyphs.lastChange = "2021-03-08 00:36:58 +0000";
};
width = 266;
}
);
unicode = 305;
},
{
color = 5;
glyphname = j;
kernLeft = j;
kernRight = i;
layers = (
{
layerId = master01;
shapes = (
{
closed = 1;
nodes = (
(-139,-189,o),
(-107,-197,o),
(-67,-197,c),
(49,-197,o),
(127,-134,o),
(155,-2,cs),
(267,525,l),
(117,525,l),
(5,2,ls),
(-7,-55,o),
(-38,-75,o),
(-78,-75,c),
(-96,-75,o),
(-113,-71,o),
(-129,-63,c),
(-164,-179,l)
);
},
{
closed = 1;
nodes = (
(132,618,o),
(162,585,o),
(209,585,c),
(269,585,o),
(316,634,o),
(316,692,c),
(316,734,o),
(286,767,o),
(239,767,c),
(179,767,o),
(132,718,o),
(132,660,c)
);
}
);
userData = {
com.schriftgestaltung.Glyphs.lastChange = "2021-03-02 23:46:34 +0000";
};
width = 280;
},
{
layerId = master02;
shapes = (
{
closed = 1;
nodes = (
(-123,-189,o),
(-90,-197,o),
(-58,-197,c),
(42,-197,o),
(110,-133,o),
(139,1,cs),
(251,525,l),
(114,525,l),
(3,5,ls),
(-8,-46,o),
(-34,-73,o),
(-68,-73,c),
(-81,-73,o),
(-96,-68,o),
(-109,-61,c),
(-144,-179,l)
);
},
{
closed = 1;
nodes = (
(127,620,o),
(157,588,o),
(199,588,c),
(254,588,o),
(301,634,o),
(301,694,cs),
(301,737,o),
(271,769,o),
(228,769,c),
(174,769,o),
(127,723,o),
(127,663,cs)
);
}
);
userData = {
com.schriftgestaltung.Glyphs.lastChange = "2021-03-02 23:44:54 +0000";
};
width = 261;
},
{
layerId = master03;
shapes = (
{
closed = 1;
nodes = (
(-98,-184,o),
(-80,-193,o),
(-51,-193,c),
(11,-193,o),
(63,-147,o),
(84,-48,cs),
(202,510,l),
(142,510,l),
(24,-47,ls),
(9,-116,o),
(-20,-140,o),
(-51,-140,c),
(-70,-140,o),
(-81,-134,o),
(-96,-127,c),
(-118,-173,l)
);
},
{
closed = 1;
nodes = (
(166,655,o),
(179,639,o),
(202,639,c),
(230,639,o),
(253,664,o),
(253,691,c),
(253,712,o),
(240,728,o),
(217,728,c),
(189,728,o),
(166,703,o),
(166,676,c)
);
}
);
userData = {
com.schriftgestaltung.Glyphs.lastChange = "2021-03-04 23:04:20 +0000";
};
width = 230;
},
{
layerId = master04;
shapes = (
{
closed = 1;
nodes = (
(-125,-186,o),
(-99,-195,o),
(-70,-195,c),
(10,-195,o),
(70,-143,o),
(93,-34,cs),
(209,515,l),
(121,515,l),
(5,-32,ls),
(-9,-97,o),
(-36,-120,o),
(-72,-120,c),
(-88,-120,o),
(-104,-115,o),
(-117,-107,c),
(-143,-175,l)
);
},
{
closed = 1;
nodes = (
(143,643,o),
(160,623,o),
(190,623,cs),
(224,623,o),
(258,650,o),
(258,693,cs),
(258,720,o),
(241,740,o),
(211,740,cs),
(176,740,o),
(143,711,o),
(143,669,cs)
);
}
);
userData = {
com.schriftgestaltung.Glyphs.lastChange = "2021-03-02 23:38:03 +0000";
};
width = 231;
},
{
layerId = master05;
shapes = (
{
closed = 1;
nodes = (
(-128,-184,o),
(-100,-193,o),
(-71,-193,c),
(6,-193,o),
(63,-147,o),
(84,-48,cs),
(202,510,l),
(142,510,l),
(24,-47,ls),
(9,-116,o),
(-25,-140,o),
(-71,-140,c),
(-90,-140,o),
(-111,-134,o),
(-126,-127,c),
(-148,-173,l)
);
},
{
closed = 1;
nodes = (
(166,655,o),
(179,639,o),
(202,639,c),
(230,639,o),
(253,664,o),
(253,691,c),
(253,712,o),
(240,728,o),
(217,728,c),
(189,728,o),
(166,703,o),
(166,676,c)
);
}
);
userData = {
com.schriftgestaltung.Glyphs.lastChange = "2021-03-02 23:45:43 +0000";
};
width = 248;
},
{
layerId = master06;
shapes = (
{
closed = 1;
nodes = (
(-129,-186,o),
(-99,-195,o),
(-66,-195,c),
(24,-195,o),
(89,-142,o),
(112,-32,cs),
(228,515,l),
(136,515,l),
(20,-30,ls),
(7,-94,o),
(-26,-117,o),
(-70,-117,c),
(-89,-117,o),
(-109,-112,o),
(-124,-104,c),
(-150,-175,l)
);
},
{
closed = 1;
nodes = (
(154,630,o),
(173,608,o),
(205,608,c),
(244,608,o),
(276,641,o),
(276,679,c),
(276,708,o),
(257,730,o),
(225,730,c),
(186,730,o),
(154,696,o),
(154,658,c)
);
}
);
userData = {
com.schriftgestaltung.Glyphs.lastChange = "2021-03-02 23:45:59 +0000";
};
width = 266;
}
);
unicode = 106;
},
{
color = 5;
glyphname = jdotless;
layers = (
{
anchors = (
{
name = top;
pos = (193,525);
}
);
layerId = master01;
shapes = (
{
closed = 1;
nodes = (
(-139,-189,o),
(-107,-197,o),
(-67,-197,c),
(49,-197,o),
(127,-134,o),
(155,-2,cs),
(267,525,l),
(117,525,l),
(5,2,ls),
(-7,-55,o),
(-38,-75,o),
(-78,-75,c),
(-96,-75,o),
(-113,-71,o),
(-129,-63,c),
(-164,-179,l)
);
}
);
userData = {
com.schriftgestaltung.Glyphs.lastChange = "2021-03-09 01:08:11 +0000";
};
width = 280;
},
{
anchors = (
{
name = top;
pos = (184,525);
}
);
layerId = master02;
shapes = (
{
closed = 1;
nodes = (
(-123,-189,o),
(-90,-197,o),
(-58,-197,c),
(42,-197,o),
(110,-133,o),
(139,1,cs),
(251,525,l),
(114,525,l),
(3,5,ls),
(-8,-46,o),
(-34,-73,o),
(-68,-73,c),
(-81,-73,o),
(-96,-68,o),
(-109,-61,c),
(-144,-179,l)
);
}
);
userData = {
com.schriftgestaltung.Glyphs.lastChange = "2021-03-09 00:56:20 +0000";
};
width = 261;
},
{
anchors = (
{
name = top;
pos = (173,508);
}
);
layerId = master03;
shapes = (
{
closed = 1;
nodes = (
(-98,-184,o),
(-80,-193,o),
(-51,-193,c),
(11,-193,o),
(63,-147,o),
(84,-48,cs),
(202,510,l),
(142,510,l),
(24,-47,ls),
(9,-116,o),
(-20,-140,o),
(-51,-140,c),
(-70,-140,o),
(-81,-134,o),
(-96,-127,c),
(-118,-173,l)
);
}
);
userData = {
com.schriftgestaltung.Glyphs.lastChange = "2021-03-09 00:44:45 +0000";
};
width = 230;
},
{
anchors = (
{
name = top;
pos = (167,515);
}
);
layerId = master04;
shapes = (
{
closed = 1;
nodes = (
(-125,-186,o),
(-99,-195,o),
(-70,-195,c),
(10,-195,o),
(70,-143,o),
(93,-34,cs),
(209,515,l),
(121,515,l),
(5,-32,ls),
(-9,-97,o),
(-36,-120,o),
(-72,-120,c),
(-88,-120,o),
(-104,-115,o),
(-117,-107,c),
(-143,-175,l)
);
}
);
userData = {
com.schriftgestaltung.Glyphs.lastChange = "2021-03-09 00:47:11 +0000";
};
width = 231;
},
{
anchors = (
{
name = top;
pos = (172,510);
}
);
layerId = master05;
shapes = (
{
closed = 1;
nodes = (
(-128,-184,o),
(-100,-193,o),
(-71,-193,c),
(6,-193,o),
(63,-147,o),
(84,-48,cs),
(202,510,l),
(142,510,l),
(24,-47,ls),
(9,-116,o),
(-25,-140,o),
(-71,-140,c),
(-90,-140,o),
(-111,-134,o),
(-126,-127,c),
(-148,-173,l)
);
}
);
userData = {
com.schriftgestaltung.Glyphs.lastChange = "2021-03-09 00:58:35 +0000";
};
width = 248;
},
{
anchors = (
{
name = top;
pos = (184,515);
}
);
layerId = master06;
shapes = (
{
closed = 1;
nodes = (
(-129,-186,o),
(-99,-195,o),
(-66,-195,c),
(24,-195,o),
(89,-142,o),
(112,-32,cs),
(228,515,l),
(136,515,l),
(20,-30,ls),
(6,-94,o),
(-26,-117,o),
(-70,-117,c),
(-89,-117,o),
(-109,-112,o),
(-124,-104,c),
(-150,-175,l)
);
}
);
userData = {
com.schriftgestaltung.Glyphs.lastChange = "2021-03-09 01:04:45 +0000";
};
width = 266;
}
);
unicode = 567;
},
{
color = 5;
glyphname = k;
kernLeft = l;
kernRight = k;
layers = (
{
anchors = (
{
name = bottom;
pos = (254,0);
}
);
layerId = master01;
shapes = (
{
closed = 1;
nodes = (
(155,0,l),
(311,735,l),
(157,715,l),
(5,0,l)
);
},
{
closed = 1;
nodes = (
(599,525,l),
(401,525,l),
(157,278,l),
(118,93,l)
);
},
{
closed = 1;
nodes = (
(335,0,l),
(495,0,l),
(338,353,l),
(227,261,l)
);
}
);
userData = {
com.schriftgestaltung.Glyphs.lastChange = "2021-03-02 23:46:34 +0000";
};
width = 555;
},
{
anchors = (
{
name = bottom;
pos = (218,0);
}
);
layerId = master02;
shapes = (
{
closed = 1;
nodes = (
(137,0,l),
(293,735,l),
(152,715,l),
(0,0,l)
);
},
{
closed = 1;
nodes = (
(531,526,l),
(350,526,l),
(143,279,l),
(101,87,l)
);
},
{
closed = 1;
nodes = (
(280,0,l),
(426,0,l),
(300,355,l),
(200,260,l)
);
}
);
userData = {
com.schriftgestaltung.Glyphs.lastChange = "2021-03-02 23:44:54 +0000";
};
width = 483;
},
{
anchors = (
{
name = bottom;
pos = (186,0);
}
);
layerId = master03;
shapes = (
{
closed = 1;
nodes = (
(76,0,l),
(231,731,l),
(168,717,l),
(16,0,l)
);
},
{
closed = 1;
nodes = (
(465,510,l),
(386,510,l),
(113,256,l),
(106,178,l)
);
},
{
closed = 1;
nodes = (
(302,0,l),
(362,0,l),
(228,316,l),
(184,277,l)
);
}
);
userData = {
com.schriftgestaltung.Glyphs.lastChange = "2021-03-04 23:04:20 +0000";
};
width = 441;
},
{
anchors = (
{
name = bottom;
pos = (196,0);
}
);
layerId = master04;
shapes = (
{
closed = 1;
nodes = (
(99,0,l),
(258,732,l),
(167,717,l),
(13,0,l)
);
},
{
closed = 1;
nodes = (
(472,515,l),
(363,515,l),
(132,262,l),
(105,140,l)
);
},
{
closed = 1;
nodes = (
(290,0,l),
(384,0,l),
(262,327,l),
(195,274,l)
);
}
);
userData = {
com.schriftgestaltung.Glyphs.lastChange = "2021-03-02 23:38:03 +0000";
};
width = 454;
},
{
anchors = (
{
name = bottom;
pos = (225,0);
}
);
layerId = master05;
shapes = (
{
closed = 1;
nodes = (
(91,0,l),
(246,731,l),
(183,717,l),
(31,0,l)
);
},
{
closed = 1;
nodes = (
(510,510,l),
(431,510,l),
(140,261,l),
(124,186,l)
);
},
{
closed = 1;
nodes = (
(347,0,l),
(412,0,l),
(257,318,l),
(215,279,l)
);
}
);
userData = {
com.schriftgestaltung.Glyphs.lastChange = "2021-03-02 23:45:43 +0000";
};
width = 490;
},
{
anchors = (
{
name = bottom;
pos = (236,0);
}
);
layerId = master06;
shapes = (
{
closed = 1;
nodes = (
(119,0,l),
(275,732,l),
(179,716,l),
(27,0,l)
);
},
{
closed = 1;
nodes = (
(547,515,l),
(425,515,l),
(151,267,l),
(127,153,l)
);
},
{
closed = 1;
nodes = (
(348,0,l),
(447,0,l),
(291,330,l),
(225,273,l)
);
}
);
userData = {
com.schriftgestaltung.Glyphs.lastChange = "2021-03-02 23:45:59 +0000";
};
width = 517;
}
);
unicode = 107;
},
{
color = 5;
glyphname = kra;
kernRight = k;
layers = (
{
layerId = master01;
shapes = (
{
closed = 1;
nodes = (
(155,0,l),
(267,525,l),
(117,525,l),
(5,0,l)
);
},
{
closed = 1;
nodes = (
(599,525,l),
(401,525,l),
(157,278,l),
(118,93,l)
);
},
{
closed = 1;
nodes = (
(335,0,l),
(495,0,l),
(338,353,l),
(227,261,l)
);
}
);
userData = {
com.schriftgestaltung.Glyphs.lastChange = "2021-03-03 04:26:13 +0000";
};
width = 555;
},
{
layerId = master02;
shapes = (
{
closed = 1;
nodes = (
(137,0,l),
(248,525,l),
(111,525,l),
(0,0,l)
);
},
{
closed = 1;
nodes = (
(531,526,l),
(350,526,l),
(143,279,l),
(101,87,l)
);
},
{
closed = 1;
nodes = (
(280,0,l),
(426,0,l),
(300,355,l),
(200,260,l)
);
}
);
userData = {
com.schriftgestaltung.Glyphs.lastChange = "2021-03-03 04:18:12 +0000";
};
width = 483;
},
{
layerId = master03;
shapes = (
{
closed = 1;
nodes = (
(86,0,l),
(194,510,l),
(134,510,l),
(26,0,l)
);
},
{
closed = 1;
nodes = (
(465,510,l),
(386,510,l),
(135,261,l),
(119,186,l)
);
},
{
closed = 1;
nodes = (
(302,0,l),
(367,0,l),
(222,318,l),
(180,279,l)
);
}
);
userData = {
com.schriftgestaltung.Glyphs.lastChange = "2021-03-04 23:04:20 +0000";
};
width = 451;
},
{
layerId = master04;
shapes = (
{
closed = 1;
nodes = (
(99,0,l),
(210,515,l),
(123,515,l),
(13,0,l)
);
},
{
closed = 1;
nodes = (
(472,515,l),
(363,515,l),
(132,262,l),
(105,140,l)
);
},
{
closed = 1;
nodes = (
(290,0,l),
(384,0,l),
(262,327,l),
(195,274,l)
);
}
);
userData = {
com.schriftgestaltung.Glyphs.lastChange = "2021-03-03 04:13:13 +0000";
};
width = 454;
},
{
layerId = master05;
shapes = (
{
closed = 1;
nodes = (
(91,0,l),
(199,510,l),
(139,510,l),
(31,0,l)
);
},
{
closed = 1;
nodes = (
(510,510,l),
(431,510,l),
(140,261,l),
(124,186,l)
);
},
{
closed = 1;
nodes = (
(347,0,l),
(412,0,l),
(257,318,l),
(215,279,l)
);
}
);
userData = {
com.schriftgestaltung.Glyphs.lastChange = "2021-03-03 04:19:52 +0000";
};
width = 490;
},
{
layerId = master06;
shapes = (
{
closed = 1;
nodes = (
(119,0,l),
(228,515,l),
(136,515,l),
(27,0,l)
);
},
{
closed = 1;
nodes = (
(547,515,l),
(425,515,l),
(151,267,l),
(127,153,l)
);
},
{
closed = 1;
nodes = (
(348,0,l),
(447,0,l),
(291,330,l),
(225,273,l)
);
}
);
userData = {
com.schriftgestaltung.Glyphs.lastChange = "2021-03-03 04:25:16 +0000";
};
width = 517;
}
);
unicode = 312;
},
{
color = 5;
glyphname = l;
kernLeft = l;
kernRight = l;
layers = (
{
anchors = (
{
name = bottom;
pos = (80,0);
},
{
name = caron.alt;
pos = (373,720);
},
{
name = top;
pos = (233,720);
}
);
layerId = master01;
shapes = (
{
closed = 1;
nodes = (
(155,0,l),
(311,735,l),
(157,715,l),
(5,0,l)
);
}
);
userData = {
com.schriftgestaltung.Glyphs.lastChange = "2021-03-02 23:46:34 +0000";
};
width = 280;
},
{
anchors = (
{
name = bottom;
pos = (70,0);
},
{
name = caron.alt;
pos = (340,720);
},
{
name = top;
pos = (221,720);
}
);
layerId = master02;
shapes = (
{
closed = 1;
nodes = (
(137,0,l),
(293,735,l),
(152,715,l),
(0,0,l)
);
}
);
userData = {
com.schriftgestaltung.Glyphs.lastChange = "2021-03-02 23:44:54 +0000";
};
width = 257;
},
{
anchors = (
{
name = bottom;
pos = (52,0);
},
{
name = caron.alt;
pos = (307,720);
},
{
name = top;
pos = (205,720);
}
);
layerId = master03;
shapes = (
{
closed = 1;
nodes = (
(82,0,l),
(237,731,l),
(174,717,l),
(22,0,l)
);
}
);
userData = {
com.schriftgestaltung.Glyphs.lastChange = "2021-03-04 23:04:20 +0000";
};
width = 230;
},
{
anchors = (
{
name = bottom;
pos = (57,0);
},
{
name = caron.alt;
pos = (323,720);
},
{
name = top;
pos = (210,720);
}
);
layerId = master04;
shapes = (
{
closed = 1;
nodes = (
(101,0,l),
(257,732,l),
(165,716,l),
(13,0,l)
);
}
);
userData = {
com.schriftgestaltung.Glyphs.lastChange = "2021-03-02 23:38:03 +0000";
};
width = 234;
},
{
anchors = (
{
name = bottom;
pos = (62,0);
},
{
name = caron.alt;
pos = (337,720);
},
{
name = top;
pos = (215,720);
}
);
layerId = master05;
shapes = (
{
closed = 1;
nodes = (
(92,0,l),
(247,731,l),
(184,717,l),
(32,0,l)
);
}
);
userData = {
com.schriftgestaltung.Glyphs.lastChange = "2021-03-02 23:45:43 +0000";
};
width = 244;
},
{
anchors = (
{
name = bottom;
pos = (73,0);
},
{
name = caron.alt;
pos = (359,720);
},
{
name = top;
pos = (226,720);
}
);
layerId = master06;
shapes = (
{
closed = 1;
nodes = (
(119,0,l),
(274,732,l),
(179,716,l),
(27,0,l)
);
}
);
userData = {
com.schriftgestaltung.Glyphs.lastChange = "2021-03-02 23:45:59 +0000";
};
width = 266;
}
);
unicode = 108;
},
{
color = 5;
glyphname = lslash;
layers = (
{
layerId = master01;
shapes = (
{
closed = 1;
nodes = (
(165,0,l),
(321,735,l),
(167,715,l),
(15,0,l)
);
},
{
closed = 1;
nodes = (
(303,320,l),
(333,460,l),
(26,310,l),
(-4,170,l)
);
}
);
userData = {
com.schriftgestaltung.Glyphs.lastChange = "2021-03-02 23:46:34 +0000";
};
width = 300;
},
{
layerId = master02;
shapes = (
{
closed = 1;
nodes = (
(137,0,l),
(293,735,l),
(152,715,l),
(0,0,l)
);
},
{
closed = 1;
nodes = (
(265,317,l),
(296,462,l),
(26,311,l),
(-5,166,l)
);
}
);
userData = {
com.schriftgestaltung.Glyphs.lastChange = "2021-03-02 23:44:54 +0000";
};
width = 268;
},
{
layerId = master03;
shapes = (
{
closed = 1;
nodes = (
(84,0,l),
(239,731,l),
(176,717,l),
(24,0,l)
);
},
{
closed = 1;
nodes = (
(210,339,l),
(223,400,l),
(38,291,l),
(25,230,l)
);
}
);
userData = {
com.schriftgestaltung.Glyphs.lastChange = "2021-03-04 23:04:20 +0000";
};
width = 212;
},
{
layerId = master04;
shapes = (
{
closed = 1;
nodes = (
(101,0,l),
(257,732,l),
(165,716,l),
(13,0,l)
);
},
{
closed = 1;
nodes = (
(249,353,l),
(268,441,l),
(31,300,l),
(12,213,l)
);
}
);
userData = {
com.schriftgestaltung.Glyphs.lastChange = "2021-03-02 23:38:03 +0000";
};
width = 244;
},
{
layerId = master05;
shapes = (
{
closed = 1;
nodes = (
(102,0,l),
(257,731,l),
(194,717,l),
(42,0,l)
);
},
{
closed = 1;
nodes = (
(243,339,l),
(256,400,l),
(32,291,l),
(19,230,l)
);
}
);
userData = {
com.schriftgestaltung.Glyphs.lastChange = "2021-03-02 23:45:43 +0000";
};
width = 264;
},
{
layerId = master06;
shapes = (
{
closed = 1;
nodes = (
(139,0,l),
(294,732,l),
(199,716,l),
(47,0,l)
);
},
{
closed = 1;
nodes = (
(285,351,l),
(308,442,l),
(41,301,l),
(18,210,l)
);
}
);
userData = {
com.schriftgestaltung.Glyphs.lastChange = "2021-03-02 23:45:59 +0000";
};
width = 306;
}
);
unicode = 322;
},
